<svg version="1.1" viewBox="0.0 0.0 960.0 540.0" fill="none" stroke="none" stroke-linecap="square" stroke-miterlimit="10" xmlns:xlink="http://www.w3.org/1999/xlink" xmlns="http://www.w3.org/2000/svg"><clipPath id="g6f4aa969e5_1_100.0"><path d="m0 0l960.0 0l0 540.0l-960.0 0l0 -540.0z" clip-rule="nonzero"/></clipPath><g clip-path="url(#g6f4aa969e5_1_100.0)"><path fill="#ffffff" d="m0 0l960.0 0l0 540.0l-960.0 0z" fill-rule="evenodd"/><path fill="#000000" fill-opacity="0.0" d="m68.125984 22.217848l709.6378 0l0 60.125984l-709.6378 0z" fill-rule="evenodd"/><path fill="#cc0000" d="m79.750984 58.417217l3.5 -0.328125l-0.03125 0.9375q0 1.546875 0.703125 2.828125q0.71875 1.28125 2.359375 1.984375q1.640625 0.7031288 3.890625 0.7031288q3.21875 0 4.890625 -1.4062538q1.6875 -1.40625 1.6875 -3.203125q0 -1.265625 -0.890625 -2.296875q-0.90625 -1.015625 -4.96875 -2.765625q-3.15625 -1.375 -4.3125 -2.109375q-1.796875 -1.171875 -2.65625 -2.5625q-0.859375 -1.40625 -0.859375 -3.1875q0 -2.0625 1.125 -3.71875q1.140625 -1.65625 3.3125 -2.53125q2.1875 -0.875 4.921875 -0.875q3.265625 0 5.5 1.09375q2.234375 1.09375 3.25 2.921875q1.015625 1.8125 1.015625 3.46875q0 0.171875 -0.015625 0.546875l-3.453125 0.28125q0 -1.140625 -0.203125 -1.765625q-0.359375 -1.125 -1.125 -1.890625q-0.765625 -0.765625 -2.109375 -1.21875q-1.328125 -0.46875 -2.984375 -0.46875q-2.921875 0 -4.546875 1.3125q-1.234375 1.0 -1.234375 2.65625q0 0.984375 0.5 1.765625q0.515625 0.765625 1.84375 1.515625q0.953125 0.53125 4.5 2.09375q2.890625 1.28125 3.984375 2.015625q1.453125 0.953125 2.234375 2.34375q0.78125 1.375 0.78125 3.125q0 2.15625 -1.328125 4.0q-1.3125 1.8281288 -3.640625 2.8281288q-2.328125 1.0 -5.34375 1.0q-4.53125 0 -7.40625 -1.96875q-2.875 -1.9843788 -2.890625 -7.125004zm24.100693 1.296875q0 -5.671875 3.328125 -9.390625q2.75 -3.0625 7.21875 -3.0625q3.5 0 5.640625 2.1875q2.140625 2.1875 2.140625 5.90625q0 3.34375 -1.34375 6.21875q-1.34375 2.8593788 -3.84375 4.390629q-2.484375 1.53125 -5.234375 1.53125q-2.265625 0 -4.125 -0.96875q-1.84375 -0.96875 -2.8125 -2.7343788q-0.96875 -1.765625 -0.96875 -4.078125zm3.296875 -0.328125q0 2.734375 1.3125 4.15625q1.3125 1.4062538 3.328125 1.4062538q1.0625 0 2.09375 -0.421875q1.046875 -0.4375 1.9375 -1.3125038q0.890625 -0.875 1.515625 -2.0q0.640625 -1.125 1.015625 -2.40625q0.5625 -1.8125 0.5625 -3.46875q0 -2.625 -1.328125 -4.078125q-1.3125 -1.453125 -3.3125 -1.453125q-1.546875 0 -2.828125 0.75q-1.28125 0.734375 -2.3125 2.15625q-1.015625 1.421875 -1.5 3.3125q-0.484375 1.875 -0.484375 3.359375zm16.619507 7.671879l5.5781326 -26.718754l3.296875 0l-5.5781326 26.718754l-3.296875 0zm21.761879 -3.5000038q-3.484375 3.9375038 -7.125 3.9375038q-2.25 0 -3.625 -1.28125q-1.375 -1.28125 -1.375 -3.1406288q0 -1.234375 0.625 -4.203125l2.328125 -11.171875l3.296875 0l-2.578125 12.375q-0.328125 1.546875 -0.328125 2.40625q0 1.09375 0.65625 1.7031288q0.671875 0.609375 1.96875 0.609375q1.375 0 2.703125 -0.671875q1.328125 -0.6718788 2.28125 -1.8125038q0.953125 -1.15625 1.5625 -2.71875q0.390625 -1.0 0.921875 -3.515625l1.75 -8.375l3.296875 0l-4.046875 19.359379l-3.046875 0l0.734375 -3.5000038zm15.260132 0.8281288l-0.546875 2.6875q-1.1875 0.3125 -2.296875 0.3125q-1.96875 0 -3.140625 -0.96875q-0.875 -0.71875 -0.875 -1.984375q0 -0.6406288 0.46875 -2.9375038l2.359375 -11.25l-2.609375 0l0.53125 -2.546875l2.609375 0l1.0 -4.75l3.765625 -2.28125l-1.46875 7.03125l3.25 0l-0.546875 2.546875l-3.234375 0l-2.234375 10.703125q-0.421875 2.046875 -0.421875 2.453125q0 0.578125 0.328125 0.8906288q0.34375 0.3125 1.109375 0.3125q1.09375 0 1.953125 -0.21875zm7.3397064 -20.312504l0.78125 -3.734375l3.28125 0l-0.78125 3.734375l-3.28125 0zm-4.8125 22.984379l4.046875 -19.359379l3.296875 0l-4.046875 19.359379l-3.296875 0zm9.011871 -7.343754q0 -5.671875 3.328125 -9.390625q2.75 -3.0625 7.21875 -3.0625q3.5 0 5.640625 2.1875q2.140625 2.1875 2.140625 5.90625q0 3.34375 -1.34375 6.21875q-1.34375 2.8593788 -3.84375 4.390629q-2.484375 1.53125 -5.234375 1.53125q-2.265625 0 -4.125 -0.96875q-1.84375 -0.96875 -2.8125 -2.7343788q-0.96875 -1.765625 -0.96875 -4.078125zm3.296875 -0.328125q0 2.734375 1.3125 4.15625q1.3125 1.4062538 3.328125 1.4062538q1.0625 0 2.09375 -0.421875q1.046875 -0.4375 1.9375 -1.3125038q0.890625 -0.875 1.515625 -2.0q0.640625 -1.125 1.015625 -2.40625q0.5625 -1.8125 0.5625 -3.46875q0 -2.625 -1.328125 -4.078125q-1.3125 -1.453125 -3.3125 -1.453125q-1.546875 0 -2.828125 0.75q-1.28125 0.734375 -2.3125 2.15625q-1.015625 1.421875 -1.5 3.3125q-0.484375 1.875 -0.484375 3.359375zm16.869507 7.671879l4.046875 -19.359379l3.0 0l-0.71875 3.375q1.953125 -1.984375 3.640625 -2.890625q1.703125 -0.921875 3.46875 -0.921875q2.359375 0 3.6875 1.28125q1.34375 1.265625 1.34375 3.40625q0 1.078125 -0.46875 3.390625l-2.46875 11.718754l-3.296875 0l2.578125 -12.265629q0.375 -1.78125 0.375 -2.640625q0 -0.96875 -0.671875 -1.5625q-0.65625 -0.609375 -1.921875 -0.609375q-2.53125 0 -4.515625 1.828125q-1.96875 1.8125 -2.890625 6.25l-1.890625 9.000004l-3.296875 0zm24.916382 -15.625004l0.78125 -3.734375l3.71875 0l-0.765625 3.734375l-3.734375 0zm-3.265625 15.625004l0.796875 -3.7343788l3.734375 0l-0.8125 3.7343788l-3.71875 0zm26.023163 -26.718754l3.5625 0l-3.421875 16.421875q-0.421875 2.046875 -0.421875 3.03125q0 2.140625 1.6875 3.453125q1.703125 1.3125038 4.28125 1.3125038q2.03125 0 3.78125 -0.9375038q1.765625 -0.9375 2.78125 -2.75q1.03125 -1.828125 1.84375 -5.828125l3.0937347 -14.703125l3.5625 0l-3.265625 15.671875q-0.828125 4.015625 -2.2031097 6.359375q-1.359375 2.3437538 -3.78125 3.7500038q-2.421875 1.40625 -5.640625 1.40625q-3.015625 0 -5.234375 -1.0q-2.21875 -1.0 -3.328125 -2.7656288q-1.09375 -1.765625 -1.09375 -4.015625q0 -1.40625 0.75 -4.828125l3.046875 -14.578125zm21.097794 20.109375l3.296875 -0.203125q0 1.421875 0.4375 2.421875q0.4375 1.0 1.609375 1.6406288q1.1875 0.640625 2.75 0.640625q2.1875 0 3.28125 -0.875q1.09375 -0.8750038 1.09375 -2.0625038q0 -0.859375 -0.65625 -1.625q-0.671875 -0.765625 -3.296875 -1.875q-2.609375 -1.125 -3.34375 -1.59375q-1.21875 -0.734375 -1.84375 -1.75q-0.609375 -1.015625 -0.609375 -2.328125q0 -2.296875 1.8125 -3.9375q1.828125 -1.640625 5.109375 -1.640625q3.65625 0 5.546875 1.6875q1.90625 1.6875 1.984375 4.4375l-3.21875 0.21875q-0.078125 -1.75 -1.25 -2.765625q-1.15625 -1.03125 -3.296875 -1.03125q-1.71875 0 -2.671875 0.796875q-0.9375 0.78125 -0.9375 1.6875q0 0.90625 0.828125 1.609375q0.546875 0.46875 2.8125 1.453125q3.796875 1.640625 4.78125 2.59375q1.5625 1.515625 1.5625 3.671875q0 1.453125 -0.890625 2.8437538q-0.875 1.375 -2.6875 2.203125q-1.8125 0.828125 -4.265625 0.828125q-3.359375 0 -5.71875 -1.65625q-2.34375 -1.65625 -2.21875 -5.390629zm32.570312 0.03125l3.21875 0.328125q-0.703125 2.390625 -3.1875 4.546879q-2.484375 2.140625 -5.9375 2.140625q-2.140625 0 -3.9375 -0.984375q-1.796875 -1.0 -2.734375 -2.8906288q-0.9375 -1.90625 -0.9375 -4.328125q0 -3.171875 1.453125 -6.140625q1.46875 -2.984375 3.796875 -4.4375q2.34375 -1.453125 5.0625 -1.453125q3.46875 0 5.53125 2.15625q2.0625 2.140625 2.0625 5.859375q0 1.421875 -0.25 2.921875l-14.25 0q-0.078125 0.5625 -0.078125 1.015625q0 2.71875 1.25 4.15625q1.25 1.4218788 3.046875 1.4218788q1.703125 0 3.34375 -1.1093788q1.640625 -1.109375 2.546875 -3.203125zm-9.578125 -4.796875l10.859375 0q0.015625 -0.515625 0.015625 -0.734375q0 -2.46875 -1.25 -3.78125q-1.234375 -1.328125 -3.171875 -1.328125q-2.125 0 -3.875 1.453125q-1.734375 1.453125 -2.578125 4.390625zm26.240479 11.375004l5.578125 -26.718754l3.296875 0l-5.578125 26.718754l-3.296875 0zm13.230621 -22.984379l0.78125 -3.734375l3.28125 0l-0.78125 3.734375l-3.28125 0zm-4.8125 22.984379l4.046875 -19.359379l3.296875 0l-4.046875 19.359379l-3.296875 0zm8.418091 0l4.046875 -19.359379l3.0 0l-0.71875 3.375q1.953125 -1.984375 3.640625 -2.890625q1.703125 -0.921875 3.46875 -0.921875q2.359375 0 3.6875 1.28125q1.34375 1.265625 1.34375 3.40625q0 1.078125 -0.46875 3.390625l-2.46875 11.718754l-3.296875 0l2.578125 -12.265629q0.375 -1.78125 0.375 -2.640625q0 -0.96875 -0.671875 -1.5625q-0.65625 -0.609375 -1.921875 -0.609375q-2.53125 0 -4.515625 1.828125q-1.96875 1.8125 -2.890625 6.25l-1.890625 9.000004l-3.296875 0zm34.97888 -6.578129l3.21875 0.328125q-0.703125 2.390625 -3.1875 4.546879q-2.484375 2.140625 -5.9375 2.140625q-2.140625 0 -3.9375 -0.984375q-1.796875 -1.0 -2.734375 -2.8906288q-0.9375 -1.90625 -0.9375 -4.328125q0 -3.171875 1.453125 -6.140625q1.46875 -2.984375 3.796875 -4.4375q2.34375 -1.453125 5.0625 -1.453125q3.46875 0 5.53125 2.15625q2.0625 2.140625 2.0625 5.859375q0 1.421875 -0.25 2.921875l-14.25 0q-0.078125 0.5625 -0.078125 1.015625q0 2.71875 1.25 4.15625q1.25 1.4218788 3.046875 1.4218788q1.703125 0 3.34375 -1.1093788q1.640625 -1.109375 2.546875 -3.203125zm-9.578125 -4.796875l10.859375 0q0.015625 -0.515625 0.015625 -0.734375q0 -2.46875 -1.25 -3.78125q-1.234375 -1.328125 -3.171875 -1.328125q-2.125 0 -3.875 1.453125q-1.734375 1.453125 -2.578125 4.390625zm29.182007 8.968754q-1.71875 1.484375 -3.3125 2.171875q-1.578125 0.671875 -3.390625 0.671875q-2.671875 0 -4.3125 -1.578125q-1.640625 -1.578125 -1.640625 -4.031254q0 -1.625 0.734375 -2.875q0.734375 -1.25 1.953125 -2.0q1.234375 -0.765625 3.0 -1.09375q1.109375 -0.21875 4.21875 -0.34375q3.109375 -0.125 4.453125 -0.65625q0.390625 -1.34375 0.390625 -2.234375q0 -1.15625 -0.84375 -1.8125q-1.140625 -0.90625 -3.359375 -0.90625q-2.078125 0 -3.40625 0.921875q-1.3125 0.921875 -1.90625 2.609375l-3.34375 -0.296875q1.03125 -2.875 3.234375 -4.40625q2.21875 -1.53125 5.59375 -1.53125q3.59375 0 5.6875 1.71875q1.59375 1.265625 1.59375 3.3125q0 1.546875 -0.453125 3.59375l-1.0625 4.8125q-0.515625 2.296875 -0.515625 3.7343788q0 0.90625 0.40625 2.625l-3.34375 0q-0.265625 -0.953125 -0.375 -2.40625zm1.21875 -7.406254q-0.703125 0.28125 -1.5 0.4375q-0.78125 0.140625 -2.640625 0.296875q-2.875 0.25 -4.0625 0.65625q-1.1875 0.390625 -1.796875 1.25q-0.59375 0.84375 -0.59375 1.890625q0 1.375 0.953125 2.2812538q0.953125 0.890625 2.734375 0.890625q1.640625 0 3.140625 -0.859375q1.515625 -0.8750038 2.390625 -2.4218788q0.875 -1.546875 1.375 -4.421875zm6.478882 9.812504l4.046875 -19.359379l2.921875 0l-0.828125 3.953125q1.5 -2.234375 2.921875 -3.3125q1.4375 -1.078125 2.9375 -1.078125q0.984375 0 2.421875 0.71875l-1.34375 3.0625q-0.859375 -0.625 -1.875 -0.625q-1.734375 0 -3.5625 1.9375q-1.828125 1.921875 -2.859375 6.9375l-1.640625 7.765629l-3.140625 0zm22.801514 0l4.046875 -19.359379l2.921875 0l-0.828125 3.953125q1.5 -2.234375 2.921875 -3.3125q1.4375 -1.078125 2.9375 -1.078125q0.984375 0 2.421875 0.71875l-1.34375 3.0625q-0.859375 -0.625 -1.875 -0.625q-1.734375 0 -3.5625 1.9375q-1.828125 1.921875 -2.859375 6.9375l-1.640625 7.765629l-3.140625 0zm26.649292 -6.578129l3.21875 0.328125q-0.703125 2.390625 -3.1875 4.546879q-2.484375 2.140625 -5.9375 2.140625q-2.140625 0 -3.9375 -0.984375q-1.796875 -1.0 -2.734375 -2.8906288q-0.9375 -1.90625 -0.9375 -4.328125q0 -3.171875 1.453125 -6.140625q1.46875 -2.984375 3.796875 -4.4375q2.34375 -1.453125 5.0625 -1.453125q3.46875 0 5.53125 2.15625q2.0625 2.140625 2.0625 5.859375q0 1.421875 -0.25 2.921875l-14.25 0q-0.078125 0.5625 -0.078125 1.015625q0 2.71875 1.25 4.15625q1.25 1.4218788 3.046875 1.4218788q1.703125 0 3.34375 -1.1093788q1.640625 -1.109375 2.546875 -3.203125zm-9.578125 -4.796875l10.859375 0q0.015625 -0.515625 0.015625 -0.734375q0 -2.46875 -1.25 -3.78125q-1.234375 -1.328125 -3.171875 -1.328125q-2.125 0 -3.875 1.453125q-1.734375 1.453125 -2.578125 4.390625zm15.947632 13.125004l3.328125 0.3125q-0.03125 1.125 0.265625 1.6875q0.3125 0.5625 1.0 0.875q0.890625 0.40625 2.3125 0.40625q2.984375 0 4.296875 -1.546875q0.859375 -1.046875 1.59375 -4.515625l0.328125 -1.578125q-2.578125 2.609375 -5.46875 2.609375q-2.9375 0 -4.921875 -2.15625q-1.96875 -2.1562538 -1.96875 -6.125004q0 -3.25 1.546875 -5.984375q1.5625 -2.734375 3.703125 -4.125q2.15625 -1.40625 4.4375 -1.40625q3.8125 0 5.875 3.609375l0.65625 -3.171875l3.015625 0l-3.890625 18.687504q-0.640625 3.078125 -1.6875 4.796875q-1.03125 1.71875 -2.890625 2.671875q-1.84375 0.953125 -4.265625 0.953125q-2.328125 0 -4.015625 -0.609375q-1.6875 -0.59375 -2.515625 -1.75q-0.828125 -1.15625 -0.828125 -2.65625q0 -0.453125 0.09375 -0.984375zm4.109375 -10.312504q0 1.984375 0.390625 2.984375q0.546875 1.40625 1.546875 2.140625q1.015625 0.7343788 2.265625 0.7343788q1.609375 0 3.21875 -1.1250038q1.609375 -1.140625 2.59375 -3.53125q1.0 -2.390625 1.0 -4.5625q0 -2.390625 -1.328125 -3.796875q-1.3125 -1.421875 -3.265625 -1.421875q-1.203125 0 -2.34375 0.65625q-1.125 0.640625 -2.109375 1.96875q-0.96875 1.3125 -1.46875 3.15625q-0.5 1.84375 -0.5 2.796875zm16.822632 8.562504l4.046875 -19.359379l2.921875 0l-0.828125 3.953125q1.5 -2.234375 2.921875 -3.3125q1.4375 -1.078125 2.9375 -1.078125q0.984375 0 2.421875 0.71875l-1.34375 3.0625q-0.859375 -0.625 -1.875 -0.625q-1.734375 0 -3.5625 1.9375q-1.828125 1.921875 -2.859375 6.9375l-1.640625 7.765629l-3.140625 0zm26.649292 -6.578129l3.21875 0.328125q-0.703125 2.390625 -3.1875 4.546879q-2.484375 2.140625 -5.9375 2.140625q-2.140625 0 -3.9375 -0.984375q-1.796875 -1.0 -2.734375 -2.8906288q-0.9375 -1.90625 -0.9375 -4.328125q0 -3.171875 1.453125 -6.140625q1.46875 -2.984375 3.796875 -4.4375q2.34375 -1.453125 5.0625 -1.453125q3.46875 0 5.53125 2.15625q2.0625 2.140625 2.0625 5.859375q0 1.421875 -0.25 2.921875l-14.25 0q-0.078125 0.5625 -0.078125 1.015625q0 2.71875 1.25 4.15625q1.25 1.4218788 3.046875 1.4218788q1.703125 0 3.34375 -1.1093788q1.640625 -1.109375 2.546875 -3.203125zm-9.578125 -4.796875l10.859375 0q0.015625 -0.515625 0.015625 -0.734375q0 -2.46875 -1.25 -3.78125q-1.234375 -1.328125 -3.171875 -1.328125q-2.125 0 -3.875 1.453125q-1.734375 1.453125 -2.578125 4.390625zm16.432007 4.765625l3.296875 -0.203125q0 1.421875 0.4375 2.421875q0.4375 1.0 1.609375 1.6406288q1.1875 0.640625 2.75 0.640625q2.1875 0 3.28125 -0.875q1.09375 -0.8750038 1.09375 -2.0625038q0 -0.859375 -0.65625 -1.625q-0.671875 -0.765625 -3.296875 -1.875q-2.609375 -1.125 -3.34375 -1.59375q-1.21875 -0.734375 -1.84375 -1.75q-0.609375 -1.015625 -0.609375 -2.328125q0 -2.296875 1.8125 -3.9375q1.828125 -1.640625 5.109375 -1.640625q3.65625 0 5.546875 1.6875q1.90625 1.6875 1.984375 4.4375l-3.21875 0.21875q-0.078125 -1.75 -1.25 -2.765625q-1.15625 -1.03125 -3.296875 -1.03125q-1.71875 0 -2.671875 0.796875q-0.9375 0.78125 -0.9375 1.6875q0 0.90625 0.828125 1.609375q0.546875 0.46875 2.8125 1.453125q3.796875 1.640625 4.78125 2.59375q1.5625 1.515625 1.5625 3.671875q0 1.453125 -0.890625 2.8437538q-0.875 1.375 -2.6875 2.203125q-1.8125 0.828125 -4.265625 0.828125q-3.359375 0 -5.71875 -1.65625q-2.34375 -1.65625 -2.21875 -5.390629zm18.664062 0l3.296875 -0.203125q0 1.421875 0.4375 2.421875q0.4375 1.0 1.609375 1.6406288q1.1875 0.640625 2.75 0.640625q2.1875 0 3.28125 -0.875q1.09375 -0.8750038 1.09375 -2.0625038q0 -0.859375 -0.65625 -1.625q-0.671875 -0.765625 -3.296875 -1.875q-2.609375 -1.125 -3.34375 -1.59375q-1.21875 -0.734375 -1.84375 -1.75q-0.609375 -1.015625 -0.609375 -2.328125q0 -2.296875 1.8125 -3.9375q1.828125 -1.640625 5.109375 -1.640625q3.65625 0 5.546875 1.6875q1.90625 1.6875 1.984375 4.4375l-3.21875 0.21875q-0.078125 -1.75 -1.25 -2.765625q-1.15625 -1.03125 -3.296875 -1.03125q-1.71875 0 -2.671875 0.796875q-0.9375 0.78125 -0.9375 1.6875q0 0.90625 0.828125 1.609375q0.546875 0.46875 2.8125 1.453125q3.796875 1.640625 4.78125 2.59375q1.5625 1.515625 1.5625 3.671875q0 1.453125 -0.890625 2.8437538q-0.875 1.375 -2.6875 2.203125q-1.8125 0.828125 -4.265625 0.828125q-3.359375 0 -5.71875 -1.65625q-2.34375 -1.65625 -2.21875 -5.390629zm23.039062 -16.375l0.78125 -3.734375l3.28125 0l-0.78125 3.734375l-3.28125 0zm-4.8125 22.984379l4.046875 -19.359379l3.296875 0l-4.046875 19.359379l-3.296875 0zm9.011902 -7.343754q0 -5.671875 3.328125 -9.390625q2.75 -3.0625 7.21875 -3.0625q3.5 0 5.640625 2.1875q2.140625 2.1875 2.140625 5.90625q0 3.34375 -1.34375 6.21875q-1.34375 2.8593788 -3.84375 4.390629q-2.484375 1.53125 -5.234375 1.53125q-2.265625 0 -4.125 -0.96875q-1.84375 -0.96875 -2.8125 -2.7343788q-0.96875 -1.765625 -0.96875 -4.078125zm3.296875 -0.328125q0 2.734375 1.3125 4.15625q1.3125 1.4062538 3.328125 1.4062538q1.0625 0 2.09375 -0.421875q1.046875 -0.4375 1.9375 -1.3125038q0.890625 -0.875 1.515625 -2.0q0.640625 -1.125 1.015625 -2.40625q0.5625 -1.8125 0.5625 -3.46875q0 -2.625 -1.328125 -4.078125q-1.3125 -1.453125 -3.3125 -1.453125q-1.546875 0 -2.828125 0.75q-1.28125 0.734375 -2.3125 2.15625q-1.015625 1.421875 -1.5 3.3125q-0.484375 1.875 -0.484375 3.359375zm16.869507 7.671879l4.046875 -19.359379l3.0 0l-0.71875 3.375q1.953125 -1.984375 3.640625 -2.890625q1.703125 -0.921875 3.46875 -0.921875q2.359375 0 3.6875 1.28125q1.34375 1.265625 1.34375 3.40625q0 1.078125 -0.46875 3.390625l-2.46875 11.718754l-3.296875 0l2.578125 -12.265629q0.375 -1.78125 0.375 -2.640625q0 -0.96875 -0.671875 -1.5625q-0.65625 -0.609375 -1.921875 -0.609375q-2.53125 0 -4.515625 1.828125q-1.96875 1.8125 -2.890625 6.25l-1.890625 9.000004l-3.296875 0zm31.115417 0l4.046875 -19.359379l3.296875 0l-0.671875 3.1875q1.84375 -2.0625 3.28125 -2.84375q1.453125 -0.78125 3.15625 -0.78125q1.796875 0 3.015625 0.96875q1.21875 0.953125 1.59375 2.65625q1.46875 -1.8125 3.09375 -2.71875q1.640625 -0.90625 3.453125 -0.90625q2.421875 0 3.625 1.15625q1.21875 1.140625 1.21875 3.21875q0 0.890625 -0.421875 2.953125l-2.609375 12.468754l-3.296875 0l2.671875 -12.796879q0.34375 -1.5625 0.34375 -2.234375q0 -0.953125 -0.609375 -1.5q-0.59375 -0.546875 -1.6875 -0.546875q-1.484375 0 -3.015625 0.890625q-1.53125 0.890625 -2.375 2.34375q-0.84375 1.453125 -1.484375 4.453125l-1.96875 9.390629l-3.296875 0l2.734375 -13.062504q0.296875 -1.34375 0.296875 -1.90625q0 -0.9375 -0.59375 -1.515625q-0.59375 -0.59375 -1.546875 -0.59375q-1.40625 0 -2.953125 0.890625q-1.53125 0.890625 -2.5 2.484375q-0.96875 1.59375 -1.578125 4.546875l-1.921875 9.156254l-3.296875 0zm31.70398 -7.343754q0 -5.671875 3.328125 -9.390625q2.75 -3.0625 7.21875 -3.0625q3.5 0 5.640625 2.1875q2.140625 2.1875 2.140625 5.90625q0 3.34375 -1.34375 6.21875q-1.34375 2.8593788 -3.84375 4.390629q-2.484375 1.53125 -5.234375 1.53125q-2.265625 0 -4.125 -0.96875q-1.84375 -0.96875 -2.8125 -2.7343788q-0.96875 -1.765625 -0.96875 -4.078125zm3.296875 -0.328125q0 2.734375 1.3125 4.15625q1.3125 1.4062538 3.328125 1.4062538q1.0625 0 2.09375 -0.421875q1.046875 -0.4375 1.9375 -1.3125038q0.890625 -0.875 1.515625 -2.0q0.640625 -1.125 1.015625 -2.40625q0.5625 -1.8125 0.5625 -3.46875q0 -2.625 -1.328125 -4.078125q-1.3125 -1.453125 -3.3125 -1.453125q-1.546875 0 -2.828125 0.75q-1.28125 0.734375 -2.3125 2.15625q-1.015625 1.421875 -1.5 3.3125q-0.484375 1.875 -0.484375 3.359375zm29.932007 4.859379q-2.828125 3.25 -5.90625 3.25q-2.765625 0 -4.59375 -2.03125q-1.828125 -2.0312538 -1.828125 -5.890629q0 -3.546875 1.4375 -6.46875q1.453125 -2.921875 3.625 -4.375q2.1875 -1.46875 4.375 -1.46875q3.609375 0 5.453125 3.484375l2.1875 -10.40625l3.28125 0l-5.578125 26.718754l-3.046875 0l0.59375 -2.8125zm-9.046875 -5.296879q0 2.015625 0.390625 3.1875q0.40625 1.171875 1.375 1.9531288q0.96875 0.765625 2.3125 0.765625q2.25 0 4.0625 -2.3281288q2.453125 -3.109375 2.453125 -7.65625q0 -2.296875 -1.203125 -3.59375q-1.203125 -1.296875 -3.03125 -1.296875q-1.1875 0 -2.171875 0.53125q-0.96875 0.53125 -1.921875 1.796875q-0.953125 1.265625 -1.609375 3.21875q-0.65625 1.9375 -0.65625 3.421875zm30.963257 1.53125l3.21875 0.328125q-0.703125 2.390625 -3.1875 4.546879q-2.484375 2.140625 -5.9375 2.140625q-2.140625 0 -3.9375 -0.984375q-1.796875 -1.0 -2.734375 -2.8906288q-0.9375 -1.90625 -0.9375 -4.328125q0 -3.171875 1.453125 -6.140625q1.46875 -2.984375 3.796875 -4.4375q2.34375 -1.453125 5.0625 -1.453125q3.46875 0 5.53125 2.15625q2.0625 2.140625 2.0625 5.859375q0 1.421875 -0.25 2.921875l-14.25 0q-0.078125 0.5625 -0.078125 1.015625q0 2.71875 1.25 4.15625q1.25 1.4218788 3.046875 1.4218788q1.703125 0 3.34375 -1.1093788q1.640625 -1.109375 2.546875 -3.203125zm-9.578125 -4.796875l10.859375 0q0.015625 -0.515625 0.015625 -0.734375q0 -2.46875 -1.25 -3.78125q-1.234375 -1.328125 -3.171875 -1.328125q-2.125 0 -3.875 1.453125q-1.734375 1.453125 -2.578125 4.390625zm15.869507 11.375004l5.578125 -26.718754l3.296875 0l-5.578125 26.718754l-3.296875 0z" fill-rule="nonzero"/><path fill="#000000" fill-opacity="0.0" d="m78.272964 463.9134l664.0945 -0.8189087" fill-rule="evenodd"/><path stroke="#595959" stroke-width="3.0" stroke-linejoin="round" stroke-linecap="butt" d="m78.272964 463.9134l646.0945 -0.7967224" fill-rule="evenodd"/><path fill="#595959" stroke="#595959" stroke-width="3.0" stroke-linecap="butt" d="m724.3736 468.07187l13.608154 -4.971985l-13.620422 -4.938385z" fill-rule="evenodd"/><path fill="#000000" fill-opacity="0.0" d="m79.21785 464.85828l-0.09449005 -307.5276" fill-rule="evenodd"/><path stroke="#595959" stroke-width="3.0" stroke-linejoin="round" stroke-linecap="butt" d="m79.21785 464.85828l-0.08895874 -289.5276" fill-rule="evenodd"/><path fill="#595959" stroke="#595959" stroke-width="3.0" stroke-linecap="butt" d="m84.08408 175.32918l-4.9593735 -13.612762l-4.9510193 13.615814z" fill-rule="evenodd"/><path fill="#000000" fill-opacity="0.0" d="m240.23622 469.16534l187.46455 0l0 35.40158l-187.46455 0z" fill-rule="evenodd"/><path fill="#000000" d="m250.31435 489.8905l2.140625 -0.1875q0.15625 1.28125 0.703125 2.109375q0.5625 0.828125 1.734375 1.34375q1.1718597 0.5 2.6406097 0.5q1.296875 0 2.296875 -0.375q1.0 -0.390625 1.484375 -1.0625q0.484375 -0.6875 0.484375 -1.484375q0 -0.796875 -0.46875 -1.40625q-0.46875 -0.609375 -1.546875 -1.015625q-0.6875 -0.265625 -3.0625 -0.828125q-2.3593597 -0.578125 -3.3124847 -1.078125q-1.234375 -0.640625 -1.84375 -1.59375q-0.59375 -0.96875 -0.59375 -2.140625q0 -1.3125 0.734375 -2.4375q0.75 -1.125 2.15625 -1.703125q1.421875 -0.59375 3.1562347 -0.59375q1.90625 0 3.359375 0.609375q1.46875 0.609375 2.25 1.8125q0.796875 1.1875 0.84375 2.703125l-2.171875 0.171875q-0.171875 -1.640625 -1.1875 -2.46875q-1.015625 -0.828125 -3.0 -0.828125q-2.0624847 0 -3.0156097 0.765625q-0.9375 0.75 -0.9375 1.8125q0 0.921875 0.671875 1.515625q0.65625 0.609375 3.4218597 1.234375q2.78125 0.625 3.8125 1.09375q1.5 0.6875 2.203125 1.75q0.71875 1.0625 0.71875 2.4375q0 1.375 -0.78125 2.59375q-0.78125 1.203125 -2.25 1.890625q-1.46875 0.671875 -3.3125 0.671875q-2.3281097 0 -3.9062347 -0.671875q-1.578125 -0.6875 -2.484375 -2.046875q-0.890625 -1.375 -0.9375 -3.09375zm24.445297 10.28125l0 -6.09375q-0.484375 0.6875 -1.375 1.15625q-0.890625 0.453125 -1.875 0.453125q-2.21875 0 -3.828125 -1.765625q-1.59375 -1.78125 -1.59375 -4.859375q0 -1.875 0.640625 -3.359375q0.65625 -1.484375 1.890625 -2.25q1.25 -0.78125 2.71875 -0.78125q2.3125 0 3.640625 1.953125l0 -1.671875l1.890625 0l0 17.21875l-2.109375 0zm-6.5 -11.03125q0 2.40625 1.0 3.609375q1.015625 1.203125 2.421875 1.203125q1.34375 0 2.3125 -1.140625q0.984375 -1.140625 0.984375 -3.484375q0 -2.484375 -1.03125 -3.734375q-1.03125 -1.25 -2.40625 -1.25q-1.375 0 -2.328125 1.171875q-0.953125 1.15625 -0.953125 3.625zm20.066406 6.265625l0 -1.828125q-1.453125 2.109375 -3.9375 2.109375q-1.109375 0 -2.0625 -0.421875q-0.953125 -0.421875 -1.421875 -1.0625q-0.453125 -0.640625 -0.640625 -1.5625q-0.140625 -0.625 -0.140625 -1.96875l0 -7.71875l2.109375 0l0 6.90625q0 1.65625 0.140625 2.234375q0.1875 0.828125 0.828125 1.3125q0.65625 0.46875 1.609375 0.46875q0.9375 0 1.765625 -0.484375q0.84375 -0.5 1.1875 -1.328125q0.34375 -0.84375 0.34375 -2.4375l0 -6.671875l2.109375 0l0 12.453125l-1.890625 0zm13.316406 -1.53125q-1.171875 0.984375 -2.265625 1.40625q-1.078125 0.40625 -2.3125 0.40625q-2.046875 0 -3.15625 -1.0q-1.09375 -1.0 -1.09375 -2.5625q0 -0.921875 0.40625 -1.671875q0.421875 -0.75 1.09375 -1.203125q0.671875 -0.46875 1.515625 -0.703125q0.625 -0.15625 1.875 -0.3125q2.5625 -0.3125 3.765625 -0.734375q0.015625 -0.421875 0.015625 -0.546875q0 -1.28125 -0.609375 -1.8125q-0.796875 -0.71875 -2.390625 -0.71875q-1.5 0 -2.203125 0.53125q-0.703125 0.515625 -1.046875 1.84375l-2.0625 -0.28125q0.28125 -1.328125 0.921875 -2.140625q0.640625 -0.8125 1.859375 -1.25q1.21875 -0.453125 2.828125 -0.453125q1.59375 0 2.59375 0.375q1.0 0.375 1.46875 0.953125q0.46875 0.5625 0.65625 1.4375q0.09375 0.53125 0.09375 1.9375l0 2.8125q0 2.9375 0.140625 3.71875q0.140625 0.78125 0.53125 1.5l-2.203125 0q-0.328125 -0.65625 -0.421875 -1.53125zm-0.171875 -4.71875q-1.15625 0.46875 -3.453125 0.796875q-1.296875 0.1875 -1.84375 0.421875q-0.53125 0.234375 -0.828125 0.6875q-0.28125 0.453125 -0.28125 1.0q0 0.84375 0.625 1.40625q0.640625 0.5625 1.875 0.5625q1.21875 0 2.171875 -0.53125q0.953125 -0.53125 1.390625 -1.453125q0.34375 -0.71875 0.34375 -2.109375l0 -0.78125zm5.3789062 6.25l0 -12.453125l1.890625 0l0 1.890625q0.734375 -1.328125 1.34375 -1.75q0.625 -0.421875 1.359375 -0.421875q1.0625 0 2.171875 0.6875l-0.734375 1.953125q-0.765625 -0.453125 -1.546875 -0.453125q-0.6875 0 -1.25 0.421875q-0.546875 0.40625 -0.78125 1.140625q-0.34375 1.125 -0.34375 2.46875l0 6.515625l-2.109375 0zm16.539062 -4.015625l2.171875 0.28125q-0.515625 1.90625 -1.90625 2.96875q-1.390625 1.046875 -3.5625 1.046875q-2.734375 0 -4.34375 -1.671875q-1.59375 -1.6875 -1.59375 -4.734375q0 -3.140625 1.609375 -4.875q1.625 -1.734375 4.203125 -1.734375q2.5 0 4.078125 1.703125q1.59375 1.703125 1.59375 4.78125q0 0.1875 -0.015625 0.5625l-9.28125 0q0.109375 2.046875 1.15625 3.140625q1.046875 1.09375 2.609375 1.09375q1.15625 0 1.96875 -0.609375q0.828125 -0.609375 1.3125 -1.953125zm-6.9375 -3.40625l6.953125 0q-0.140625 -1.5625 -0.796875 -2.359375q-1.0 -1.21875 -2.609375 -1.21875q-1.453125 0 -2.453125 0.984375q-0.984375 0.96875 -1.09375 2.59375zm18.9375 7.421875l0 -10.8125l-1.875 0l0 -1.640625l1.875 0l0 -1.3125q0 -1.265625 0.21875 -1.875q0.296875 -0.8125 1.0625 -1.3125q0.78125 -0.515625 2.15625 -0.515625q0.890625 0 1.96875 0.203125l-0.3125 1.84375q-0.65625 -0.125 -1.25 -0.125q-0.953125 0 -1.359375 0.421875q-0.390625 0.40625 -0.390625 1.53125l0 1.140625l2.421875 0l0 1.640625l-2.421875 0l0 10.8125l-2.09375 0zm14.683594 -4.015625l2.171875 0.28125q-0.515625 1.90625 -1.90625 2.96875q-1.390625 1.046875 -3.5625 1.046875q-2.734375 0 -4.34375 -1.671875q-1.59375 -1.6875 -1.59375 -4.734375q0 -3.140625 1.609375 -4.875q1.625 -1.734375 4.203125 -1.734375q2.5 0 4.078125 1.703125q1.59375 1.703125 1.59375 4.78125q0 0.1875 -0.015625 0.5625l-9.28125 0q0.109375 2.046875 1.15625 3.140625q1.046875 1.09375 2.609375 1.09375q1.15625 0 1.96875 -0.609375q0.828125 -0.609375 1.3125 -1.953125zm-6.9375 -3.40625l6.953125 0q-0.140625 -1.5625 -0.796875 -2.359375q-1.0 -1.21875 -2.609375 -1.21875q-1.453125 0 -2.453125 0.984375q-0.984375 0.96875 -1.09375 2.59375zm20.285156 3.40625l2.171875 0.28125q-0.515625 1.90625 -1.90625 2.96875q-1.390625 1.046875 -3.5625 1.046875q-2.734375 0 -4.34375 -1.671875q-1.59375 -1.6875 -1.59375 -4.734375q0 -3.140625 1.609375 -4.875q1.625 -1.734375 4.203125 -1.734375q2.5 0 4.078125 1.703125q1.59375 1.703125 1.59375 4.78125q0 0.1875 -0.015625 0.5625l-9.28125 0q0.109375 2.046875 1.15625 3.140625q1.046875 1.09375 2.609375 1.09375q1.15625 0 1.96875 -0.609375q0.828125 -0.609375 1.3125 -1.953125zm-6.9375 -3.40625l6.953125 0q-0.140625 -1.5625 -0.796875 -2.359375q-1.0 -1.21875 -2.609375 -1.21875q-1.453125 0 -2.453125 0.984375q-0.984375 0.96875 -1.09375 2.59375zm16.363281 5.53125l0.3125 1.859375q-0.890625 0.203125 -1.59375 0.203125q-1.15625 0 -1.796875 -0.359375q-0.625 -0.375 -0.890625 -0.96875q-0.25 -0.59375 -0.25 -2.484375l0 -7.171875l-1.546875 0l0 -1.640625l1.546875 0l0 -3.078125l2.09375 -1.265625l0 4.34375l2.125 0l0 1.640625l-2.125 0l0 7.28125q0 0.90625 0.109375 1.171875q0.125 0.25 0.375 0.40625q0.25 0.140625 0.71875 0.140625q0.34375 0 0.921875 -0.078125z" fill-rule="nonzero"/><path fill="#000000" fill-opacity="0.0" d="m32.72441 336.58005l0 -104.28346l35.401573 0l0 104.28346z" fill-rule="evenodd"/><path fill="#000000" d="m63.73082 326.00192l-17.21875 0l0 -1.921875l1.625 0q-0.953125 -0.6875 -1.421875 -1.53125q-0.484375 -0.859375 -0.484375 -2.078125q0 -1.59375 0.828125 -2.8125q0.8125 -1.21875 2.3125 -1.84375q1.5 -0.625 3.28125 -0.625q1.90625 0 3.4375 0.6875q1.53125 0.6875 2.34375 2.0q0.8125 1.296875 0.8125 2.734375q0 1.0625 -0.4375 1.90625q-0.453125 0.828125 -1.140625 1.375l6.0625 0l0 2.109375zm-10.921875 -1.921875q2.40625 0 3.5625 -0.96875q1.140625 -0.96875 1.140625 -2.359375q0 -1.40625 -1.1875 -2.40625q-1.1875 -1.0 -3.6875 -1.0q-2.375 0 -3.5625 0.984375q-1.1875 0.96875 -1.1875 2.328125q0 1.359375 1.265625 2.390625q1.25 1.03125 3.65625 1.03125zm6.15625 -11.410156l-12.453125 0l0 -1.890625l1.890625 0q-1.328125 -0.734375 -1.75 -1.34375q-0.421875 -0.625 -0.421875 -1.359375q0 -1.0625 0.6875 -2.171875l1.953125 0.734375q-0.453125 0.765625 -0.453125 1.546875q0 0.6875 0.421875 1.25q0.40625 0.546875 1.140625 0.78125q1.125 0.34375 2.46875 0.34375l6.515625 0l0 2.109375zm-14.75 -8.0234375l-2.4375 0l0 -2.109375l2.4375 0l0 2.109375zm14.75 0l-12.453125 0l0 -2.109375l12.453125 0l0 2.109375zm-4.5625 -13.441406l0.265625 -2.078125q2.15625 0.34375 3.375 1.75q1.203125 1.390625 1.203125 3.4375q0 2.546875 -1.671875 4.109375q-1.671875 1.546875 -4.78125 1.546875q-2.015625 0 -3.53125 -0.671875q-1.515625 -0.671875 -2.265625 -2.03125q-0.765625 -1.359375 -0.765625 -2.96875q0 -2.03125 1.03125 -3.3125q1.03125 -1.296875 2.90625 -1.65625l0.328125 2.046875q-1.265625 0.296875 -1.890625 1.046875q-0.640625 0.734375 -0.640625 1.796875q0 1.59375 1.15625 2.59375q1.140625 0.984375 3.609375 0.984375q2.5 0 3.640625 -0.953125q1.140625 -0.96875 1.140625 -2.515625q0 -1.234375 -0.765625 -2.0625q-0.765625 -0.84375 -2.34375 -1.0625zm0.546875 -12.40625l0.28125 -2.171875q1.90625 0.515625 2.96875 1.90625q1.046875 1.390625 1.046875 3.5625q0 2.734375 -1.671875 4.34375q-1.6875 1.59375 -4.734375 1.59375q-3.140625 0 -4.875 -1.609375q-1.734375 -1.625 -1.734375 -4.203125q0 -2.5 1.703125 -4.078125q1.703125 -1.59375 4.78125 -1.59375q0.1875 0 0.5625 0.015625l0 9.28125q2.046875 -0.109375 3.140625 -1.15625q1.09375 -1.046875 1.09375 -2.609375q0 -1.15625 -0.609375 -1.96875q-0.609375 -0.828125 -1.953125 -1.3125zm-3.40625 6.9375l0 -6.953125q-1.5625 0.140625 -2.359375 0.796875q-1.21875 1.0 -1.21875 2.609375q0 1.453125 0.984375 2.453125q0.96875 0.984375 2.59375 1.09375z" fill-rule="nonzero"/><path fill="#38761d" d="m151.67717 393.84778l0 0c0 -4.418274 3.5817108 -8.0 8.0 -8.0l0 0c2.1217346 0 4.156555 0.8428345 5.656845 2.3431396c1.5002899 1.5002747 2.343155 3.5351257 2.343155 5.6568604l0 0c0 4.418274 -3.581726 8.0 -8.0 8.0l0 0c-4.418289 0 -8.0 -3.581726 -8.0 -8.0z" fill-rule="evenodd"/><path stroke="#38761d" stroke-width="2.0" stroke-linejoin="round" stroke-linecap="butt" d="m151.67717 393.84778l0 0c0 -4.418274 3.5817108 -8.0 8.0 -8.0l0 0c2.1217346 0 4.156555 0.8428345 5.656845 2.3431396c1.5002899 1.5002747 2.343155 3.5351257 2.343155 5.6568604l0 0c0 4.418274 -3.581726 8.0 -8.0 8.0l0 0c-4.418289 0 -8.0 -3.581726 -8.0 -8.0z" fill-rule="evenodd"/><path fill="#38761d" d="m121.514435 373.10498l0 0c0 -4.418274 3.581726 -8.0 8.0 -8.0l0 0c2.1217346 0 4.1565704 0.842865 5.6568604 2.3431396c1.5002899 1.5003052 2.3431396 3.5351257 2.3431396 5.6568604l0 0c0 4.418274 -3.581726 8.0 -8.0 8.0l0 0c-4.418274 0 -8.0 -3.581726 -8.0 -8.0z" fill-rule="evenodd"/><path stroke="#38761d" stroke-width="2.0" stroke-linejoin="round" stroke-linecap="butt" d="m121.514435 373.10498l0 0c0 -4.418274 3.581726 -8.0 8.0 -8.0l0 0c2.1217346 0 4.1565704 0.842865 5.6568604 2.3431396c1.5002899 1.5003052 2.3431396 3.5351257 2.3431396 5.6568604l0 0c0 4.418274 -3.581726 8.0 -8.0 8.0l0 0c-4.418274 0 -8.0 -3.581726 -8.0 -8.0z" fill-rule="evenodd"/><path fill="#38761d" d="m208.17061 357.10498l0 0c0 -4.418274 3.5817108 -8.0 8.0 -8.0l0 0c2.1217346 0 4.156555 0.842865 5.656845 2.3431396c1.5002899 1.5003052 2.343155 3.5351257 2.343155 5.6568604l0 0c0 4.418274 -3.581726 8.0 -8.0 8.0l0 0c-4.418289 0 -8.0 -3.581726 -8.0 -8.0z" fill-rule="evenodd"/><path stroke="#38761d" stroke-width="2.0" stroke-linejoin="round" stroke-linecap="butt" d="m208.17061 357.10498l0 0c0 -4.418274 3.5817108 -8.0 8.0 -8.0l0 0c2.1217346 0 4.156555 0.842865 5.656845 2.3431396c1.5002899 1.5003052 2.343155 3.5351257 2.343155 5.6568604l0 0c0 4.418274 -3.581726 8.0 -8.0 8.0l0 0c-4.418289 0 -8.0 -3.581726 -8.0 -8.0z" fill-rule="evenodd"/><path fill="#38761d" d="m506.9344 149.3307l0 0c0 -4.418274 3.581726 -8.0 8.0 -8.0l0 0c2.121704 0 4.156555 0.842865 5.6568604 2.343155c1.5003052 1.5002899 2.3431396 3.5351105 2.3431396 5.656845l0 0c0 4.418289 -3.581726 8.0 -8.0 8.0l0 0c-4.418274 0 -8.0 -3.5817108 -8.0 -8.0z" fill-rule="evenodd"/><path stroke="#38761d" stroke-width="2.0" stroke-linejoin="round" stroke-linecap="butt" d="m506.9344 149.3307l0 0c0 -4.418274 3.581726 -8.0 8.0 -8.0l0 0c2.121704 0 4.156555 0.842865 5.6568604 2.343155c1.5003052 1.5002899 2.3431396 3.5351105 2.3431396 5.656845l0 0c0 4.418289 -3.581726 8.0 -8.0 8.0l0 0c-4.418274 0 -8.0 -3.5817108 -8.0 -8.0z" fill-rule="evenodd"/><path fill="#38761d" d="m464.0 240.29659l0 0c0 -4.418274 3.581726 -8.0 8.0 -8.0l0 0c2.1217346 0 4.156555 0.842865 5.6568604 2.343155c1.5002747 1.5002899 2.3431396 3.5351105 2.3431396 5.656845l0 0c0 4.418274 -3.581726 8.0 -8.0 8.0l0 0c-4.418274 0 -8.0 -3.581726 -8.0 -8.0z" fill-rule="evenodd"/><path stroke="#38761d" stroke-width="2.0" stroke-linejoin="round" stroke-linecap="butt" d="m464.0 240.29659l0 0c0 -4.418274 3.581726 -8.0 8.0 -8.0l0 0c2.1217346 0 4.156555 0.842865 5.6568604 2.343155c1.5002747 1.5002899 2.3431396 3.5351105 2.3431396 5.656845l0 0c0 4.418274 -3.581726 8.0 -8.0 8.0l0 0c-4.418274 0 -8.0 -3.581726 -8.0 -8.0z" fill-rule="evenodd"/><path fill="#38761d" d="m373.9344 202.52231l0 0c0 -4.418274 3.581726 -8.0 8.0 -8.0l0 0c2.1217346 0 4.156555 0.84284973 5.6568604 2.3431396c1.5002747 1.5003052 2.3431396 3.5351257 2.3431396 5.6568604l0 0c0 4.418274 -3.581726 8.0 -8.0 8.0l0 0c-4.418274 0 -8.0 -3.581726 -8.0 -8.0z" fill-rule="evenodd"/><path stroke="#38761d" stroke-width="2.0" stroke-linejoin="round" stroke-linecap="butt" d="m373.9344 202.52231l0 0c0 -4.418274 3.581726 -8.0 8.0 -8.0l0 0c2.1217346 0 4.156555 0.84284973 5.6568604 2.3431396c1.5002747 1.5003052 2.3431396 3.5351257 2.3431396 5.6568604l0 0c0 4.418274 -3.581726 8.0 -8.0 8.0l0 0c-4.418274 0 -8.0 -3.581726 -8.0 -8.0z" fill-rule="evenodd"/><path fill="#38761d" d="m325.9685 295.7743l0 0c0 -4.4183044 3.581726 -8.0 8.0 -8.0l0 0c2.1217346 0 4.156555 0.8428345 5.6568604 2.3431396c1.5002747 1.5002747 2.3431396 3.5351257 2.3431396 5.6568604l0 0c0 4.418274 -3.581726 8.0 -8.0 8.0l0 0c-4.418274 0 -8.0 -3.581726 -8.0 -8.0z" fill-rule="evenodd"/><path stroke="#38761d" stroke-width="2.0" stroke-linejoin="round" stroke-linecap="butt" d="m325.9685 295.7743l0 0c0 -4.4183044 3.581726 -8.0 8.0 -8.0l0 0c2.1217346 0 4.156555 0.8428345 5.6568604 2.3431396c1.5002747 1.5002747 2.3431396 3.5351257 2.3431396 5.6568604l0 0c0 4.418274 -3.581726 8.0 -8.0 8.0l0 0c-4.418274 0 -8.0 -3.581726 -8.0 -8.0z" fill-rule="evenodd"/><path fill="#38761d" d="m266.50394 332.5013l0 0c0 -4.418274 3.581726 -8.0 8.0 -8.0l0 0c2.1217346 0 4.156555 0.842865 5.6568604 2.3431396c1.5002747 1.5003052 2.3431396 3.5351257 2.3431396 5.6568604l0 0c0 4.418274 -3.581726 8.0 -8.0 8.0l0 0c-4.418274 0 -8.0 -3.581726 -8.0 -8.0z" fill-rule="evenodd"/><path stroke="#38761d" stroke-width="2.0" stroke-linejoin="round" stroke-linecap="butt" d="m266.50394 332.5013l0 0c0 -4.418274 3.581726 -8.0 8.0 -8.0l0 0c2.1217346 0 4.156555 0.842865 5.6568604 2.3431396c1.5002747 1.5003052 2.3431396 3.5351257 2.3431396 5.6568604l0 0c0 4.418274 -3.581726 8.0 -8.0 8.0l0 0c-4.418274 0 -8.0 -3.581726 -8.0 -8.0z" fill-rule="evenodd"/><path fill="#38761d" d="m366.3491 291.97375l0 0c0 -4.418274 3.581726 -8.0 8.0 -8.0l0 0c2.1217346 0 4.156555 0.842865 5.65683 2.3431396c1.5003052 1.5003052 2.3431702 3.5351257 2.3431702 5.6568604l0 0c0 4.418274 -3.581726 8.0 -8.0 8.0l0 0c-4.418274 0 -8.0 -3.581726 -8.0 -8.0z" fill-rule="evenodd"/><path stroke="#38761d" stroke-width="2.0" stroke-linejoin="round" stroke-linecap="butt" d="m366.3491 291.97375l0 0c0 -4.418274 3.581726 -8.0 8.0 -8.0l0 0c2.1217346 0 4.156555 0.842865 5.65683 2.3431396c1.5003052 1.5003052 2.3431702 3.5351257 2.3431702 5.6568604l0 0c0 4.418274 -3.581726 8.0 -8.0 8.0l0 0c-4.418274 0 -8.0 -3.581726 -8.0 -8.0z" fill-rule="evenodd"/><path fill="#38761d" d="m535.9134 224.29659l0 0c0 -4.418274 3.581726 -8.0 8.0 -8.0l0 0c2.121704 0 4.156555 0.842865 5.6568604 2.343155c1.5003052 1.5002899 2.3431396 3.5351105 2.3431396 5.656845l0 0c0 4.418274 -3.581726 8.0 -8.0 8.0l0 0c-4.418274 0 -8.0 -3.581726 -8.0 -8.0z" fill-rule="evenodd"/><path stroke="#38761d" stroke-width="2.0" stroke-linejoin="round" stroke-linecap="butt" d="m535.9134 224.29659l0 0c0 -4.418274 3.581726 -8.0 8.0 -8.0l0 0c2.121704 0 4.156555 0.842865 5.6568604 2.343155c1.5003052 1.5002899 2.3431396 3.5351105 2.3431396 5.656845l0 0c0 4.418274 -3.581726 8.0 -8.0 8.0l0 0c-4.418274 0 -8.0 -3.581726 -8.0 -8.0z" fill-rule="evenodd"/><path fill="#38761d" d="m229.71391 404.99475l0 0c0 -4.418274 3.581726 -8.0 8.0 -8.0l0 0c2.1217346 0 4.156555 0.842865 5.656845 2.3431396c1.5003052 1.5003052 2.343155 3.5351257 2.343155 5.6568604l0 0c0 4.418274 -3.581726 8.0 -8.0 8.0l0 0c-4.418274 0 -8.0 -3.581726 -8.0 -8.0z" fill-rule="evenodd"/><path stroke="#38761d" stroke-width="2.0" stroke-linejoin="round" stroke-linecap="butt" d="m229.71391 404.99475l0 0c0 -4.418274 3.581726 -8.0 8.0 -8.0l0 0c2.1217346 0 4.156555 0.842865 5.656845 2.3431396c1.5003052 1.5003052 2.343155 3.5351257 2.343155 5.6568604l0 0c0 4.418274 -3.581726 8.0 -8.0 8.0l0 0c-4.418274 0 -8.0 -3.581726 -8.0 -8.0z" fill-rule="evenodd"/><path fill="#38761d" d="m634.80316 303.23096l0 0c0 -4.418274 3.581726 -8.0 8.0 -8.0l0 0c2.121704 0 4.156555 0.842865 5.6568604 2.3431702c1.5002441 1.5002747 2.3431396 3.5351257 2.3431396 5.65683l0 0c0 4.4183044 -3.581726 8.0 -8.0 8.0l0 0c-4.418274 0 -8.0 -3.5816956 -8.0 -8.0z" fill-rule="evenodd"/><path stroke="#38761d" stroke-width="2.0" stroke-linejoin="round" stroke-linecap="butt" d="m634.80316 303.23096l0 0c0 -4.418274 3.581726 -8.0 8.0 -8.0l0 0c2.121704 0 4.156555 0.842865 5.6568604 2.3431702c1.5002441 1.5002747 2.3431396 3.5351257 2.3431396 5.65683l0 0c0 4.4183044 -3.581726 8.0 -8.0 8.0l0 0c-4.418274 0 -8.0 -3.5816956 -8.0 -8.0z" fill-rule="evenodd"/><path fill="#000000" fill-opacity="0.0" d="m742.36743 431.8504l58.425232 0l0 63.307068l-58.425232 0z" fill-rule="evenodd"/><path fill="#000000" d="m751.6643 479.2504l7.578125 -10.78125l-7.015625 -9.96875l4.390625 0l3.1875 4.875q0.90625 1.375 1.453125 2.3125q0.859375 -1.28125 1.578125 -2.28125l3.5 -4.90625l4.1875 0l-7.15625 9.765625l7.703125 10.984375l-4.3125 0l-4.25 -6.453125l-1.140625 -1.734375l-5.453125 8.1875l-4.25 0z" fill-rule="nonzero"/><path fill="#000000" fill-opacity="0.0" d="m36.719162 106.84777l58.425194 0l0 63.30709l-58.425194 0z" fill-rule="evenodd"/><path fill="#000000" d="m48.203537 162.23215l-0.390625 -3.296875q1.15625 0.3125 2.015625 0.3125q1.171875 0 1.875 -0.390625q0.703125 -0.390625 1.140625 -1.09375q0.34375 -0.53125 1.078125 -2.609375q0.09375 -0.296875 0.3125 -0.859375l-7.875 -20.796875l3.796875 0l4.3125 12.015625q0.84375 2.28125 1.5 4.8125q0.609375 -2.421875 1.453125 -4.734375l4.4375 -12.09375l3.515625 0l-7.890625 21.109375q-1.28125 3.40625 -1.984375 4.703125q-0.9375 1.734375 -2.15625 2.546875q-1.203125 0.8125 -2.875 0.8125q-1.015625 0 -2.265625 -0.4375z" fill-rule="nonzero"/><path fill="#000000" fill-opacity="0.0" d="m79.215225 409.27298l618.6142 -302.70868" fill-rule="evenodd"/><path stroke="#0000ff" stroke-width="3.0" stroke-linejoin="round" stroke-linecap="butt" d="m79.215225 409.27298l618.6142 -302.70868" fill-rule="evenodd"/><path fill="#000000" fill-opacity="0.0" d="m643.14435 210.52231l202.74017 0l0 63.370087l-202.74017 0z" fill-rule="evenodd"/><path fill="#000000" d="m654.2381 242.56232l0 -10.8125l-1.875 0l0 -1.640625l1.875 0l0 -1.3125q0 -1.265625 0.21875 -1.875q0.296875 -0.8125 1.0625 -1.3125q0.78125 -0.515625 2.15625 -0.515625q0.890625 0 1.96875 0.203125l-0.3125 1.84375q-0.65625 -0.125 -1.25 -0.125q-0.953125 0 -1.359375 0.421875q-0.390625 0.40625 -0.390625 1.53125l0 1.140625l2.421875 0l0 1.640625l-2.421875 0l0 10.8125l-2.09375 0zm10.183594 5.046875q-1.734375 -2.203125 -2.953125 -5.15625q-1.203125 -2.953125 -1.203125 -6.109375q0 -2.796875 0.90625 -5.34375q1.046875 -2.96875 3.25 -5.90625l1.515625 0q-1.421875 2.4375 -1.875 3.46875q-0.71875 1.625 -1.125 3.375q-0.5 2.203125 -0.5 4.40625q0 5.640625 3.5 11.265625l-1.515625 0zm2.5546875 -5.046875l4.546875 -6.46875l-4.203125 -5.984375l2.640625 0l1.90625 2.921875q0.546875 0.828125 0.875 1.390625q0.515625 -0.765625 0.9375 -1.359375l2.109375 -2.953125l2.515625 0l-4.296875 5.859375l4.625 6.59375l-2.59375 0l-2.546875 -3.875l-0.6875 -1.03125l-3.265625 4.90625l-2.5625 0zm14.796875 5.046875l-1.515625 0q3.5 -5.625 3.5 -11.265625q0 -2.203125 -0.5 -4.359375q-0.390625 -1.765625 -1.109375 -3.375q-0.453125 -1.0625 -1.890625 -3.515625l1.515625 0q2.203125 2.9375 3.25 5.90625q0.90625 2.546875 0.90625 5.34375q0 3.15625 -1.21875 6.109375q-1.203125 2.953125 -2.9375 5.15625zm24.378906 -15.15625l-11.34375 0l0 -1.96875l11.34375 0l0 1.96875zm0 5.21875l-11.34375 0l0 -1.96875l11.34375 0l0 1.96875zm11.871094 4.890625l-3.796875 -12.453125l2.171875 0l1.984375 7.1875l0.734375 2.671875q0.046875 -0.203125 0.640625 -2.5625l1.984375 -7.296875l2.171875 0l1.859375 7.21875l0.625 2.390625l0.71875 -2.40625l2.125 -7.203125l2.046875 0l-3.890625 12.453125l-2.1875 0l-1.984375 -7.453125l-0.46875 -2.125l-2.53125 9.578125l-2.203125 0z" fill-rule="nonzero"/><path fill="#000000" d="m732.15216 245.90607q0 -2.03125 0.40625 -3.265625q0.421875 -1.234375 1.25 -1.90625q0.828125 -0.671875 2.078125 -0.671875q0.921875 0 1.609375 0.375q0.703125 0.359375 1.15625 1.0625q0.453125 0.703125 0.703125 1.703125q0.265625 1.0 0.265625 2.703125q0 2.015625 -0.421875 3.265625q-0.40625 1.234375 -1.234375 1.921875q-0.828125 0.671875 -2.078125 0.671875q-1.65625 0 -2.609375 -1.203125q-1.125 -1.421875 -1.125 -4.65625zm1.4375 0q0 2.828125 0.65625 3.765625q0.671875 0.921875 1.640625 0.921875q0.96875 0 1.625 -0.9375q0.65625 -0.9375 0.65625 -3.75q0 -2.828125 -0.65625 -3.75q-0.65625 -0.9375 -1.640625 -0.9375q-0.96875 0 -1.546875 0.828125q-0.734375 1.046875 -0.734375 3.859375z" fill-rule="nonzero"/><path fill="#000000" d="m746.39435 239.78107l0 -4.703125l-4.671875 0l0 -1.96875l4.671875 0l0 -4.6875l1.984375 0l0 4.6875l4.6875 0l0 1.96875l-4.6875 0l0 4.703125l-1.984375 0zm11.875 2.78125l-3.796875 -12.453125l2.171875 0l1.984375 7.1875l0.734375 2.671875q0.046875 -0.203125 0.640625 -2.5625l1.984375 -7.296875l2.171875 0l1.859375 7.21875l0.625 2.390625l0.71875 -2.40625l2.125 -7.203125l2.046875 0l-3.890625 12.453125l-2.1875 0l-1.984375 -7.453125l-0.46875 -2.125l-2.53125 9.578125l-2.203125 0z" fill-rule="nonzero"/><path fill="#000000" d="m777.6951 251.56232l-1.40625 0l0 -8.96875q-0.515625 0.484375 -1.34375 0.96875q-0.8125 0.484375 -1.46875 0.734375l0 -1.359375q1.171875 -0.5625 2.046875 -1.34375q0.890625 -0.796875 1.265625 -1.53125l0.90625 0l0 11.5z" fill-rule="nonzero"/><path fill="#000000" d="m780.7967 242.56232l4.546875 -6.46875l-4.203125 -5.984375l2.640625 0l1.90625 2.921875q0.546875 0.828125 0.875 1.390625q0.515625 -0.765625 0.9375 -1.359375l2.109375 -2.953125l2.515625 0l-4.296875 5.859375l4.625 6.59375l-2.59375 0l-2.546875 -3.875l-0.6875 -1.03125l-3.265625 4.90625l-2.5625 0z" fill-rule="nonzero"/><path fill="#000000" fill-opacity="0.0" d="m670.4908 219.72441l-49.039368 -71.68504" fill-rule="evenodd"/><path stroke="#595959" stroke-width="2.0" stroke-linejoin="round" stroke-linecap="butt" d="m670.4908 219.72441l-42.263916 -61.780823" fill-rule="evenodd"/><path fill="#595959" stroke="#595959" stroke-width="2.0" stroke-linecap="butt" d="m630.95337 156.07838l-7.851074 -5.6258545l2.3980713 9.356262z" fill-rule="evenodd"/><path fill="#000000" fill-opacity="0.0" d="m144.14174 92.32546l312.7874 0l0 41.448814l-312.7874 0z" fill-rule="evenodd"/><path fill="#000000" d="m154.23549 124.36546l3.578125 -17.1875l11.171875 0l-0.40625 1.96875l-8.875 0l-1.140625 5.46875l9.046875 0l-0.421875 1.953125l-9.03125 0l-1.625 7.796875l-2.296875 0zm17.378906 -14.78125l0.5 -2.40625l2.109375 0l-0.5 2.40625l-2.109375 0zm-3.09375 14.78125l2.59375 -12.453125l2.125 0l-2.59375 12.453125l-2.125 0zm10.363281 -1.71875l-0.34375 1.734375q-0.765625 0.203125 -1.484375 0.203125q-1.265625 0 -2.015625 -0.625q-0.5625 -0.46875 -0.5625 -1.28125q0 -0.40625 0.3125 -1.890625l1.515625 -7.234375l-1.6875 0l0.34375 -1.640625l1.671875 0l0.65625 -3.046875l2.421875 -1.46875l-0.953125 4.515625l2.09375 0l-0.359375 1.640625l-2.078125 0l-1.4375 6.890625q-0.265625 1.3125 -0.265625 1.5625q0 0.375 0.21875 0.578125q0.21875 0.203125 0.703125 0.203125q0.703125 0 1.25 -0.140625zm16.773438 0.171875q-1.09375 0.953125 -2.125 1.390625q-1.015625 0.4375 -2.171875 0.4375q-1.71875 0 -2.78125 -1.015625q-1.046875 -1.015625 -1.046875 -2.59375q0 -1.046875 0.46875 -1.84375q0.46875 -0.8125 1.25 -1.296875q0.796875 -0.484375 1.9375 -0.6875q0.703125 -0.140625 2.703125 -0.21875q2.0 -0.09375 2.875 -0.4375q0.234375 -0.859375 0.234375 -1.4375q0 -0.734375 -0.53125 -1.15625q-0.734375 -0.59375 -2.15625 -0.59375q-1.34375 0 -2.1875 0.59375q-0.84375 0.59375 -1.234375 1.6875l-2.140625 -0.1875q0.65625 -1.859375 2.078125 -2.84375q1.421875 -0.984375 3.59375 -0.984375q2.296875 0 3.65625 1.109375q1.03125 0.8125 1.03125 2.125q0 1.0 -0.296875 2.3125l-0.6875 3.09375q-0.328125 1.484375 -0.328125 2.40625q0 0.578125 0.25 1.6875l-2.140625 0q-0.171875 -0.609375 -0.25 -1.546875zm0.78125 -4.765625q-0.4375 0.1875 -0.953125 0.28125q-0.5 0.09375 -1.703125 0.1875q-1.84375 0.171875 -2.609375 0.421875q-0.765625 0.25 -1.15625 0.8125q-0.375 0.546875 -0.375 1.203125q0 0.890625 0.609375 1.46875q0.609375 0.578125 1.75 0.578125q1.0625 0 2.03125 -0.546875q0.96875 -0.5625 1.53125 -1.5625q0.5625 -1.0 0.875 -2.84375zm10.6875 6.3125l3.578125 -17.1875l2.125 0l-3.59375 17.1875l-2.109375 0zm8.503906 -14.78125l0.5 -2.40625l2.109375 0l-0.5 2.40625l-2.109375 0zm-3.09375 14.78125l2.59375 -12.453125l2.125 0l-2.59375 12.453125l-2.125 0zm5.4101562 0l2.609375 -12.453125l1.921875 0l-0.46875 2.171875q1.265625 -1.28125 2.34375 -1.859375q1.09375 -0.59375 2.234375 -0.59375q1.515625 0 2.375 0.828125q0.859375 0.8125 0.859375 2.1875q0 0.6875 -0.3125 2.1875l-1.578125 7.53125l-2.125 0l1.65625 -7.890625q0.25 -1.140625 0.25 -1.703125q0 -0.609375 -0.4375 -1.0q-0.421875 -0.390625 -1.234375 -0.390625q-1.625 0 -2.90625 1.171875q-1.265625 1.171875 -1.859375 4.015625l-1.203125 5.796875l-2.125 0zm22.488281 -4.234375l2.0625 0.21875q-0.4375 1.53125 -2.046875 2.921875q-1.59375 1.375 -3.8125 1.375q-1.375 0 -2.53125 -0.640625q-1.15625 -0.640625 -1.765625 -1.859375q-0.59375 -1.21875 -0.59375 -2.78125q0 -2.03125 0.9375 -3.9375q0.9375 -1.921875 2.4375 -2.859375q1.5 -0.9375 3.25 -0.9375q2.234375 0 3.5625 1.390625q1.328125 1.375 1.328125 3.765625q0 0.921875 -0.171875 1.875l-9.15625 0q-0.046875 0.375 -0.046875 0.65625q0 1.75 0.796875 2.671875q0.8125 0.921875 1.96875 0.921875q1.09375 0 2.140625 -0.71875q1.0625 -0.71875 1.640625 -2.0625zm-6.15625 -3.078125l6.984375 0q0 -0.328125 0 -0.46875q0 -1.59375 -0.796875 -2.4375q-0.796875 -0.859375 -2.046875 -0.859375q-1.359375 0 -2.484375 0.9375q-1.109375 0.9375 -1.65625 2.828125zm21.98436 5.59375l-0.34373474 1.734375q-0.765625 0.203125 -1.484375 0.203125q-1.265625 0 -2.015625 -0.625q-0.5625 -0.46875 -0.5625 -1.28125q0 -0.40625 0.3125 -1.890625l1.515625 -7.234375l-1.6875 0l0.34375 -1.640625l1.671875 0l0.65625 -3.046875l2.4218597 -1.46875l-0.953125 4.515625l2.09375 0l-0.359375 1.640625l-2.0781097 0l-1.4375 6.890625q-0.265625 1.3125 -0.265625 1.5625q0 0.375 0.21875 0.578125q0.21875 0.203125 0.703125 0.203125q0.703125 0 1.2499847 -0.140625zm1.7148438 1.71875l3.59375 -17.1875l2.109375 0l-1.359375 6.609375q1.171875 -1.15625 2.1875 -1.65625q1.03125 -0.5 2.109375 -0.5q1.546875 0 2.390625 0.828125q0.859375 0.8125 0.859375 2.140625q0 0.65625 -0.375 2.421875l-1.53125 7.34375l-2.125 0l1.59375 -7.53125q0.328125 -1.640625 0.328125 -2.0625q0 -0.609375 -0.421875 -1.0q-0.421875 -0.390625 -1.21875 -0.390625q-1.140625 0 -2.1875 0.609375q-1.046875 0.59375 -1.640625 1.65625q-0.578125 1.046875 -1.078125 3.375l-1.109375 5.34375l-2.125 0zm13.347656 0l2.609375 -12.453125l1.875 0l-0.53125 2.546875q0.953125 -1.4375 1.875 -2.125q0.921875 -0.703125 1.890625 -0.703125q0.625 0 1.546875 0.46875l-0.859375 1.96875q-0.546875 -0.40625 -1.203125 -0.40625q-1.125 0 -2.296875 1.25q-1.171875 1.234375 -1.828125 4.453125l-1.0625 5.0l-2.015625 0zm8.3671875 -4.71875q0 -3.65625 2.140625 -6.046875q1.78125 -1.96875 4.640625 -1.96875q2.25 0 3.625 1.40625q1.390625 1.40625 1.390625 3.796875q0 2.15625 -0.875 4.0q-0.859375 1.84375 -2.46875 2.828125q-1.59375 0.984375 -3.359375 0.984375q-1.453125 0 -2.65625 -0.625q-1.1875 -0.625 -1.8125 -1.75q-0.625 -1.140625 -0.625 -2.625zm2.125 -0.21875q0 1.765625 0.84375 2.671875q0.84375 0.90625 2.140625 0.90625q0.6875 0 1.34375 -0.265625q0.671875 -0.28125 1.25 -0.84375q0.578125 -0.5625 0.96875 -1.28125q0.40625 -0.734375 0.65625 -1.5625q0.359375 -1.15625 0.359375 -2.21875q0 -1.6875 -0.84375 -2.625q-0.84375 -0.9375 -2.140625 -0.9375q-1.0 0 -1.828125 0.484375q-0.8125 0.46875 -1.46875 1.390625q-0.65625 0.90625 -0.96875 2.125q-0.3125 1.203125 -0.3125 2.15625zm19.347656 2.6875q-2.234375 2.53125 -4.578125 2.53125q-1.453125 0 -2.34375 -0.828125q-0.875 -0.828125 -0.875 -2.015625q0 -0.796875 0.40625 -2.703125l1.5 -7.1875l2.109375 0l-1.65625 7.96875q-0.21875 0.984375 -0.21875 1.546875q0 0.703125 0.421875 1.09375q0.4375 0.390625 1.265625 0.390625q0.890625 0 1.734375 -0.4375q0.859375 -0.4375 1.46875 -1.171875q0.625 -0.734375 1.015625 -1.75q0.25 -0.640625 0.59375 -2.25l1.125 -5.390625l2.125 0l-2.609375 12.453125l-1.953125 0l0.46875 -2.25zm4.7382812 3.375l2.140625 0.203125q-0.03125 0.71875 0.171875 1.078125q0.203125 0.375 0.640625 0.578125q0.5625 0.25 1.484375 0.25q1.921875 0 2.765625 -1.0q0.546875 -0.65625 1.015625 -2.90625l0.21875 -1.0q-1.65625 1.671875 -3.515625 1.671875q-1.890625 0 -3.171875 -1.390625q-1.265625 -1.390625 -1.265625 -3.9375q0 -2.09375 1.0 -3.84375q1.0 -1.765625 2.375 -2.65625q1.390625 -0.90625 2.859375 -0.90625q2.453125 0 3.78125 2.328125l0.421875 -2.046875l1.9375 0l-2.5 12.015625q-0.421875 1.984375 -1.09375 3.09375q-0.65625 1.109375 -1.84375 1.71875q-1.1875 0.609375 -2.75 0.609375q-1.5 0 -2.59375 -0.390625q-1.078125 -0.390625 -1.609375 -1.140625q-0.53125 -0.734375 -0.53125 -1.6875q0 -0.296875 0.0625 -0.640625zm2.640625 -6.640625q0 1.28125 0.25 1.921875q0.34375 0.90625 1.0 1.390625q0.65625 0.46875 1.453125 0.46875q1.03125 0 2.0625 -0.734375q1.03125 -0.734375 1.671875 -2.265625q0.640625 -1.53125 0.640625 -2.9375q0 -1.53125 -0.859375 -2.4375q-0.84375 -0.90625 -2.09375 -0.90625q-0.765625 0 -1.5 0.421875q-0.71875 0.40625 -1.359375 1.265625q-0.625 0.84375 -0.953125 2.03125q-0.3125 1.171875 -0.3125 1.78125zm10.816406 5.515625l3.59375 -17.1875l2.109375 0l-1.359375 6.609375q1.171875 -1.15625 2.1875 -1.65625q1.03125 -0.5 2.109375 -0.5q1.546875 0 2.390625 0.828125q0.859375 0.8125 0.859375 2.140625q0 0.65625 -0.375 2.421875l-1.53125 7.34375l-2.125 0l1.59375 -7.53125q0.328125 -1.640625 0.328125 -2.0625q0 -0.609375 -0.421875 -1.0q-0.421875 -0.390625 -1.21875 -0.390625q-1.140625 0 -2.1875 0.609375q-1.046875 0.59375 -1.640625 1.65625q-0.578125 1.046875 -1.078125 3.375l-1.109375 5.34375l-2.125 0zm24.96875 -1.71875l-0.34375 1.734375q-0.765625 0.203125 -1.484375 0.203125q-1.265625 0 -2.015625 -0.625q-0.5625 -0.46875 -0.5625 -1.28125q0 -0.40625 0.3125 -1.890625l1.515625 -7.234375l-1.6875 0l0.34375 -1.640625l1.671875 0l0.65625 -3.046875l2.421875 -1.46875l-0.953125 4.515625l2.09375 0l-0.359375 1.640625l-2.078125 0l-1.4375 6.890625q-0.265625 1.3125 -0.265625 1.5625q0 0.375 0.21875 0.578125q0.21875 0.203125 0.703125 0.203125q0.703125 0 1.25 -0.140625zm1.7148438 1.71875l3.59375 -17.1875l2.109375 0l-1.359375 6.609375q1.171875 -1.15625 2.1875 -1.65625q1.03125 -0.5 2.109375 -0.5q1.546875 0 2.390625 0.828125q0.859375 0.8125 0.859375 2.140625q0 0.65625 -0.375 2.421875l-1.53125 7.34375l-2.125 0l1.59375 -7.53125q0.328125 -1.640625 0.328125 -2.0625q0 -0.609375 -0.421875 -1.0q-0.421875 -0.390625 -1.21875 -0.390625q-1.140625 0 -2.1875 0.609375q-1.046875 0.59375 -1.640625 1.65625q-0.578125 1.046875 -1.078125 3.375l-1.109375 5.34375l-2.125 0zm22.488281 -4.234375l2.0625 0.21875q-0.4375 1.53125 -2.046875 2.921875q-1.59375 1.375 -3.8125 1.375q-1.375 0 -2.53125 -0.640625q-1.15625 -0.640625 -1.765625 -1.859375q-0.59375 -1.21875 -0.59375 -2.78125q0 -2.03125 0.9375 -3.9375q0.9375 -1.921875 2.4375 -2.859375q1.5 -0.9375 3.25 -0.9375q2.234375 0 3.5625 1.390625q1.328125 1.375 1.328125 3.765625q0 0.921875 -0.171875 1.875l-9.15625 0q-0.046875 0.375 -0.046875 0.65625q0 1.75 0.796875 2.671875q0.8125 0.921875 1.96875 0.921875q1.09375 0 2.140625 -0.71875q1.0625 -0.71875 1.640625 -2.0625zm-6.15625 -3.078125l6.984375 0q0 -0.328125 0 -0.46875q0 -1.59375 -0.796875 -2.4375q-0.796875 -0.859375 -2.046875 -0.859375q-1.359375 0 -2.484375 0.9375q-1.109375 0.9375 -1.65625 2.828125zm25.421875 5.5q-1.8125 2.09375 -3.796875 2.09375q-1.765625 0 -2.953125 -1.296875q-1.171875 -1.3125 -1.171875 -3.796875q0 -2.28125 0.921875 -4.15625q0.9375 -1.890625 2.34375 -2.828125q1.40625 -0.9375 2.8125 -0.9375q2.3125 0 3.5 2.25l1.40625 -6.703125l2.109375 0l-3.59375 17.1875l-1.953125 0l0.375 -1.8125zm-5.8125 -3.40625q0 1.296875 0.25 2.046875q0.265625 0.75 0.890625 1.25q0.625 0.5 1.484375 0.5q1.4375 0 2.609375 -1.5q1.578125 -1.984375 1.578125 -4.921875q0 -1.46875 -0.78125 -2.296875q-0.765625 -0.84375 -1.9375 -0.84375q-0.765625 0 -1.390625 0.34375q-0.625 0.34375 -1.25 1.15625q-0.609375 0.8125 -1.03125 2.0625q-0.421875 1.25 -0.421875 2.203125zm19.160156 3.671875q-1.09375 0.953125 -2.125 1.390625q-1.015625 0.4375 -2.171875 0.4375q-1.71875 0 -2.78125 -1.015625q-1.046875 -1.015625 -1.046875 -2.59375q0 -1.046875 0.46875 -1.84375q0.46875 -0.8125 1.25 -1.296875q0.796875 -0.484375 1.9375 -0.6875q0.703125 -0.140625 2.703125 -0.21875q2.0 -0.09375 2.875 -0.4375q0.234375 -0.859375 0.234375 -1.4375q0 -0.734375 -0.53125 -1.15625q-0.734375 -0.59375 -2.15625 -0.59375q-1.34375 0 -2.1875 0.59375q-0.84375 0.59375 -1.234375 1.6875l-2.140625 -0.1875q0.65625 -1.859375 2.078125 -2.84375q1.421875 -0.984375 3.59375 -0.984375q2.296875 0 3.65625 1.109375q1.03125 0.8125 1.03125 2.125q0 1.0 -0.296875 2.3125l-0.6875 3.09375q-0.328125 1.484375 -0.328125 2.40625q0 0.578125 0.25 1.6875l-2.140625 0q-0.171875 -0.609375 -0.25 -1.546875zm0.78125 -4.765625q-0.4375 0.1875 -0.953125 0.28125q-0.5 0.09375 -1.703125 0.1875q-1.84375 0.171875 -2.609375 0.421875q-0.765625 0.25 -1.15625 0.8125q-0.375 0.546875 -0.375 1.203125q0 0.890625 0.609375 1.46875q0.609375 0.578125 1.75 0.578125q1.0625 0 2.03125 -0.546875q0.96875 -0.5625 1.53125 -1.5625q0.5625 -1.0 0.875 -2.84375zm9.128906 4.59375l-0.34375 1.734375q-0.765625 0.203125 -1.484375 0.203125q-1.265625 0 -2.015625 -0.625q-0.5625 -0.46875 -0.5625 -1.28125q0 -0.40625 0.3125 -1.890625l1.515625 -7.234375l-1.6875 0l0.34375 -1.640625l1.671875 0l0.65625 -3.046875l2.421875 -1.46875l-0.953125 4.515625l2.09375 0l-0.359375 1.640625l-2.078125 0l-1.4375 6.890625q-0.265625 1.3125 -0.265625 1.5625q0 0.375 0.21875 0.578125q0.21875 0.203125 0.703125 0.203125q0.703125 0 1.25 -0.140625zm10.105469 0.171875q-1.09375 0.953125 -2.125 1.390625q-1.015625 0.4375 -2.171875 0.4375q-1.71875 0 -2.78125 -1.015625q-1.046875 -1.015625 -1.046875 -2.59375q0 -1.046875 0.46875 -1.84375q0.46875 -0.8125 1.25 -1.296875q0.796875 -0.484375 1.9375 -0.6875q0.703125 -0.140625 2.703125 -0.21875q2.0 -0.09375 2.875 -0.4375q0.234375 -0.859375 0.234375 -1.4375q0 -0.734375 -0.53125 -1.15625q-0.734375 -0.59375 -2.15625 -0.59375q-1.34375 0 -2.1875 0.59375q-0.84375 0.59375 -1.234375 1.6875l-2.140625 -0.1875q0.65625 -1.859375 2.078125 -2.84375q1.421875 -0.984375 3.59375 -0.984375q2.296875 0 3.65625 1.109375q1.03125 0.8125 1.03125 2.125q0 1.0 -0.296875 2.3125l-0.6875 3.09375q-0.328125 1.484375 -0.328125 2.40625q0 0.578125 0.25 1.6875l-2.140625 0q-0.171875 -0.609375 -0.25 -1.546875zm0.78125 -4.765625q-0.4375 0.1875 -0.953125 0.28125q-0.5 0.09375 -1.703125 0.1875q-1.84375 0.171875 -2.609375 0.421875q-0.765625 0.25 -1.15625 0.8125q-0.375 0.546875 -0.375 1.203125q0 0.890625 0.609375 1.46875q0.609375 0.578125 1.75 0.578125q1.0625 0 2.03125 -0.546875q0.96875 -0.5625 1.53125 -1.5625q0.5625 -1.0 0.875 -2.84375z" fill-rule="nonzero"/></g></svg>