<svg version="1.1" viewBox="0.0 0.0 960.0 540.0" fill="none" stroke="none" stroke-linecap="square" stroke-miterlimit="10" xmlns:xlink="http://www.w3.org/1999/xlink" xmlns="http://www.w3.org/2000/svg"><clipPath id="g6f4aa969e5_1_23.0"><path d="m0 0l960.0 0l0 540.0l-960.0 0l0 -540.0z" clip-rule="nonzero"/></clipPath><g clip-path="url(#g6f4aa969e5_1_23.0)"><path fill="#ffffff" d="m0 0l960.0 0l0 540.0l-960.0 0z" fill-rule="evenodd"/><path fill="#000000" fill-opacity="0.0" d="m32.72441 46.721786l894.55115 0l0 60.125984l-894.55115 0z" fill-rule="evenodd"/><path fill="#000000" d="m44.59941 91.56178l0 -26.71875l10.078125 0q2.671875 0 4.078125 0.25q1.953125 0.328125 3.28125 1.25q1.34375 0.921875 2.15625 2.578125q0.8125 1.65625 0.8125 3.65625q0 3.40625 -2.171875 5.765625q-2.171875 2.359375 -7.84375 2.359375l-6.84375 0l0 10.859375l-3.546875 0zm3.546875 -14.015625l6.90625 0q3.421875 0 4.859375 -1.265625q1.4375 -1.28125 1.4375 -3.59375q0 -1.6875 -0.84375 -2.875q-0.84375 -1.203125 -2.234375 -1.578125q-0.890625 -0.234375 -3.296875 -0.234375l-6.828125 0l0 9.546875zm20.866318 14.015625l0 -26.71875l3.28125 0l0 26.71875l-3.28125 0zm7.1368713 -9.671875q0 -5.390625 3.0 -7.96875q2.484375 -2.15625 6.078125 -2.15625q4.0 0 6.53125 2.625q2.53125 2.609375 2.53125 7.21875q0 3.734375 -1.125 5.875q-1.109375 2.140625 -3.265625 3.328125q-2.140625 1.1875 -4.671875 1.1875q-4.0625 0 -6.578125 -2.609375q-2.5 -2.609375 -2.5 -7.5zm3.375 0q0 3.71875 1.625 5.5625q1.625 1.84375 4.078125 1.84375q2.453125 0 4.0625 -1.859375q1.625 -1.859375 1.625 -5.65625q0 -3.59375 -1.640625 -5.4375q-1.625 -1.859375 -4.046875 -1.859375q-2.453125 0 -4.078125 1.84375q-1.625 1.84375 -1.625 5.5625zm25.775757 6.734375l0.46875 2.90625q-1.375 0.28125 -2.46875 0.28125q-1.796875 0 -2.78125 -0.5625q-0.984375 -0.5625 -1.390625 -1.484375q-0.390625 -0.921875 -0.390625 -3.875l0 -11.140625l-2.40625 0l0 -2.546875l2.40625 0l0 -4.796875l3.265625 -1.96875l0 6.765625l3.296875 0l0 2.546875l-3.296875 0l0 11.328125q0 1.40625 0.171875 1.8125q0.171875 0.390625 0.5625 0.625q0.390625 0.234375 1.125 0.234375q0.546875 0 1.4375 -0.125zm13.538788 2.9375l0 -19.359375l2.953125 0l0 2.9375q1.125 -2.0625 2.078125 -2.71875q0.96875 -0.65625 2.109375 -0.65625q1.671875 0 3.375 1.0625l-1.125 3.046875q-1.203125 -0.71875 -2.40625 -0.71875q-1.078125 0 -1.9375 0.65625q-0.859375 0.640625 -1.21875 1.78125q-0.546875 1.75 -0.546875 3.828125l0 10.140625l-3.28125 0zm25.727432 -6.234375l3.375 0.421875q-0.796875 2.96875 -2.96875 4.609375q-2.15625 1.640625 -5.53125 1.640625q-4.25 0 -6.75 -2.609375q-2.484375 -2.625 -2.484375 -7.34375q0 -4.890625 2.515625 -7.578125q2.515625 -2.703125 6.53125 -2.703125q3.890625 0 6.34375 2.640625q2.453125 2.640625 2.453125 7.4375q0 0.296875 -0.015625 0.875l-14.4375 0q0.1875 3.1875 1.8125 4.890625q1.625 1.6875 4.046875 1.6875q1.796875 0 3.078125 -0.9375q1.28125 -0.953125 2.03125 -3.03125zm-10.78125 -5.296875l10.8125 0q-0.21875 -2.453125 -1.234375 -3.671875q-1.578125 -1.890625 -4.078125 -1.890625q-2.25 0 -3.796875 1.515625q-1.53125 1.5 -1.703125 4.046875zm30.916382 4.4375l3.21875 0.421875q-0.515625 3.34375 -2.703125 5.234375q-2.171875 1.875 -5.34375 1.875q-3.984375 0 -6.40625 -2.59375q-2.40625 -2.59375 -2.40625 -7.453125q0 -3.125 1.03125 -5.46875q1.046875 -2.359375 3.171875 -3.53125q2.125 -1.1875 4.625 -1.1875q3.15625 0 5.15625 1.59375q2.0 1.59375 2.578125 4.53125l-3.203125 0.5q-0.453125 -1.953125 -1.609375 -2.9375q-1.15625 -0.984375 -2.796875 -0.984375q-2.484375 0 -4.03125 1.78125q-1.546875 1.765625 -1.546875 5.609375q0 3.90625 1.484375 5.671875q1.5 1.765625 3.90625 1.765625q1.9375 0 3.234375 -1.171875q1.296875 -1.1875 1.640625 -3.65625zm19.289062 0.859375l3.375 0.421875q-0.796875 2.96875 -2.96875 4.609375q-2.15625 1.640625 -5.53125 1.640625q-4.25 0 -6.75 -2.609375q-2.484375 -2.625 -2.484375 -7.34375q0 -4.890625 2.515625 -7.578125q2.515625 -2.703125 6.53125 -2.703125q3.890625 0 6.34375 2.640625q2.453125 2.640625 2.453125 7.4375q0 0.296875 -0.015625 0.875l-14.4375 0q0.1875 3.1875 1.8125 4.890625q1.625 1.6875 4.046875 1.6875q1.796875 0 3.078125 -0.9375q1.28125 -0.953125 2.03125 -3.03125zm-10.78125 -5.296875l10.8125 0q-0.21875 -2.453125 -1.234375 -3.671875q-1.578125 -1.890625 -4.078125 -1.890625q-2.25 0 -3.796875 1.515625q-1.53125 1.5 -1.703125 4.046875zm18.275757 11.53125l0 -19.359375l2.953125 0l0 2.75q2.140625 -3.1875 6.171875 -3.1875q1.75 0 3.21875 0.640625q1.46875 0.625 2.1875 1.640625q0.734375 1.015625 1.03125 2.421875q0.171875 0.90625 0.171875 3.1875l0 11.90625l-3.28125 0l0 -11.78125q0 -2.0 -0.390625 -2.984375q-0.375 -1.0 -1.359375 -1.59375q-0.96875 -0.59375 -2.28125 -0.59375q-2.09375 0 -3.625 1.328125q-1.515625 1.328125 -1.515625 5.046875l0 10.578125l-3.28125 0zm27.932007 -2.9375l0.46875 2.90625q-1.375 0.28125 -2.46875 0.28125q-1.796875 0 -2.78125 -0.5625q-0.984375 -0.5625 -1.390625 -1.484375q-0.390625 -0.921875 -0.390625 -3.875l0 -11.140625l-2.40625 0l0 -2.546875l2.40625 0l0 -4.796875l3.265625 -1.96875l0 6.765625l3.296875 0l0 2.546875l-3.296875 0l0 11.328125q0 1.40625 0.171875 1.8125q0.171875 0.390625 0.5625 0.625q0.390625 0.234375 1.125 0.234375q0.546875 0 1.4375 -0.125zm13.570038 2.9375l0 -26.71875l3.28125 0l0 9.578125q2.296875 -2.65625 5.796875 -2.65625q2.15625 0 3.734375 0.859375q1.59375 0.84375 2.28125 2.34375q0.6875 1.484375 0.6875 4.328125l0 12.265625l-3.28125 0l0 -12.265625q0 -2.46875 -1.078125 -3.578125q-1.0625 -1.125 -3.015625 -1.125q-1.453125 0 -2.75 0.765625q-1.28125 0.75 -1.828125 2.046875q-0.546875 1.28125 -0.546875 3.5625l0 10.59375l-3.28125 0zm19.541382 -9.671875q0 -5.390625 3.0 -7.96875q2.4843597 -2.15625 6.0781097 -2.15625q4.0 0 6.53125 2.625q2.53125 2.609375 2.53125 7.21875q0 3.734375 -1.125 5.875q-1.109375 2.140625 -3.265625 3.328125q-2.140625 1.1875 -4.671875 1.1875q-4.0625 0 -6.5781097 -2.609375q-2.5 -2.609375 -2.5 -7.5zm3.375 0q0 3.71875 1.6249847 5.5625q1.625 1.84375 4.078125 1.84375q2.453125 0 4.0625 -1.859375q1.625 -1.859375 1.625 -5.65625q0 -3.59375 -1.640625 -5.4375q-1.625 -1.859375 -4.046875 -1.859375q-2.453125 0 -4.078125 1.84375q-1.6249847 1.84375 -1.6249847 5.5625zm31.291367 9.671875l0 -2.84375q-2.25 3.28125 -6.140625 3.28125q-1.703125 0 -3.203125 -0.65625q-1.484375 -0.65625 -2.203125 -1.640625q-0.71875 -1.0 -1.0 -2.4375q-0.203125 -0.96875 -0.203125 -3.0625l0 -12.0l3.28125 0l0 10.734375q0 2.578125 0.203125 3.46875q0.296875 1.296875 1.296875 2.03125q1.015625 0.734375 2.484375 0.734375q1.484375 0 2.765625 -0.75q1.296875 -0.765625 1.828125 -2.0625q0.546875 -1.296875 0.546875 -3.78125l0 -10.375l3.28125 0l0 19.359375l-2.9375 0zm6.760132 -5.78125l3.25 -0.5q0.28125 1.9375 1.515625 2.984375q1.25 1.03125 3.5 1.03125q2.265625 0 3.359375 -0.90625q1.09375 -0.921875 1.09375 -2.171875q0 -1.109375 -0.96875 -1.75q-0.671875 -0.4375 -3.359375 -1.109375q-3.609375 -0.90625 -5.0 -1.5625q-1.390625 -0.671875 -2.125 -1.84375q-0.71875 -1.1875 -0.71875 -2.609375q0 -1.296875 0.59375 -2.390625q0.59375 -1.109375 1.625 -1.84375q0.765625 -0.5625 2.078125 -0.953125q1.328125 -0.390625 2.84375 -0.390625q2.265625 0 3.984375 0.65625q1.734375 0.65625 2.546875 1.78125q0.828125 1.125 1.140625 3.0l-3.21875 0.4375q-0.21875 -1.5 -1.265625 -2.328125q-1.046875 -0.84375 -2.953125 -0.84375q-2.265625 0 -3.234375 0.75q-0.96875 0.734375 -0.96875 1.75q0 0.625 0.40625 1.140625q0.40625 0.53125 1.265625 0.875q0.484375 0.1875 2.890625 0.84375q3.484375 0.921875 4.859375 1.515625q1.375 0.59375 2.15625 1.734375q0.78125 1.125 0.78125 2.796875q0 1.640625 -0.953125 3.09375q-0.953125 1.453125 -2.765625 2.25q-1.796875 0.78125 -4.078125 0.78125q-3.765625 0 -5.75 -1.5625q-1.984375 -1.578125 -2.53125 -4.65625zm33.242188 -0.453125l3.375 0.421875q-0.796875 2.96875 -2.96875 4.609375q-2.15625 1.640625 -5.53125 1.640625q-4.25 0 -6.75 -2.609375q-2.484375 -2.625 -2.484375 -7.34375q0 -4.890625 2.515625 -7.578125q2.515625 -2.703125 6.53125 -2.703125q3.890625 0 6.34375 2.640625q2.453125 2.640625 2.453125 7.4375q0 0.296875 -0.015625 0.875l-14.4375 0q0.1875 3.1875 1.8125 4.890625q1.625 1.6875 4.046875 1.6875q1.796875 0 3.078125 -0.9375q1.28125 -0.953125 2.03125 -3.03125zm-10.78125 -5.296875l10.8125 0q-0.21875 -2.453125 -1.234375 -3.671875q-1.578125 -1.890625 -4.078125 -1.890625q-2.25 0 -3.796875 1.515625q-1.53125 1.5 -1.703125 4.046875zm27.334198 5.75l3.25 -0.5q0.28125 1.9375 1.515625 2.984375q1.25 1.03125 3.5 1.03125q2.265625 0 3.359375 -0.90625q1.09375 -0.921875 1.09375 -2.171875q0 -1.109375 -0.96875 -1.75q-0.671875 -0.4375 -3.359375 -1.109375q-3.609375 -0.90625 -5.0 -1.5625q-1.390625 -0.671875 -2.125 -1.84375q-0.71875 -1.1875 -0.71875 -2.609375q0 -1.296875 0.59375 -2.390625q0.59375 -1.109375 1.625 -1.84375q0.765625 -0.5625 2.078125 -0.953125q1.328125 -0.390625 2.84375 -0.390625q2.265625 0 3.984375 0.65625q1.734375 0.65625 2.546875 1.78125q0.828125 1.125 1.140625 3.0l-3.21875 0.4375q-0.21875 -1.5 -1.265625 -2.328125q-1.046875 -0.84375 -2.953125 -0.84375q-2.265625 0 -3.234375 0.75q-0.96875 0.734375 -0.96875 1.75q0 0.625 0.40625 1.140625q0.40625 0.53125 1.265625 0.875q0.484375 0.1875 2.890625 0.84375q3.484375 0.921875 4.859375 1.515625q1.375 0.59375 2.15625 1.734375q0.78125 1.125 0.78125 2.796875q0 1.640625 -0.953125 3.09375q-0.953125 1.453125 -2.765625 2.25q-1.796875 0.78125 -4.078125 0.78125q-3.765625 0 -5.75 -1.5625q-1.984375 -1.578125 -2.53125 -4.65625zm32.617188 3.390625q-1.828125 1.546875 -3.515625 2.1875q-1.6875 0.640625 -3.609375 0.640625q-3.1875 0 -4.90625 -1.546875q-1.71875 -1.5625 -1.71875 -4.0q0 -1.421875 0.640625 -2.59375q0.65625 -1.171875 1.703125 -1.875q1.046875 -0.71875 2.359375 -1.078125q0.96875 -0.265625 2.921875 -0.5q3.96875 -0.46875 5.84375 -1.125q0.03125 -0.671875 0.03125 -0.859375q0 -2.0 -0.9375 -2.828125q-1.25 -1.109375 -3.734375 -1.109375q-2.3125 0 -3.421875 0.8125q-1.09375 0.8125 -1.625 2.875l-3.21875 -0.4375q0.4375 -2.0625 1.4375 -3.328125q1.015625 -1.265625 2.90625 -1.953125q1.890625 -0.6875 4.390625 -0.6875q2.484375 0 4.03125 0.59375q1.546875 0.578125 2.28125 1.46875q0.734375 0.875 1.015625 2.21875q0.171875 0.84375 0.171875 3.03125l0 4.375q0 4.578125 0.203125 5.796875q0.21875 1.203125 0.828125 2.3125l-3.421875 0q-0.515625 -1.015625 -0.65625 -2.390625zm-0.28125 -7.328125q-1.78125 0.734375 -5.359375 1.25q-2.015625 0.28125 -2.859375 0.65625q-0.828125 0.359375 -1.296875 1.0625q-0.453125 0.703125 -0.453125 1.5625q0 1.3125 0.984375 2.1875q1.0 0.875 2.921875 0.875q1.890625 0 3.359375 -0.828125q1.484375 -0.84375 2.1875 -2.28125q0.515625 -1.109375 0.515625 -3.28125l0 -1.203125zm8.338257 9.71875l0 -26.71875l3.28125 0l0 26.71875l-3.28125 0zm21.621246 -6.234375l3.375 0.421875q-0.796875 2.96875 -2.96875 4.609375q-2.15625 1.640625 -5.53125 1.640625q-4.25 0 -6.75 -2.609375q-2.484375 -2.625 -2.484375 -7.34375q0 -4.890625 2.515625 -7.578125q2.515625 -2.703125 6.53125 -2.703125q3.890625 0 6.34375 2.640625q2.453125 2.640625 2.453125 7.4375q0 0.296875 -0.015625 0.875l-14.4375 0q0.1875 3.1875 1.8125 4.890625q1.625 1.6875 4.046875 1.6875q1.796875 0 3.078125 -0.9375q1.28125 -0.953125 2.03125 -3.03125zm-10.78125 -5.296875l10.8125 0q-0.21875 -2.453125 -1.234375 -3.671875q-1.578125 -1.890625 -4.078125 -1.890625q-2.25 0 -3.796875 1.515625q-1.53125 1.5 -1.703125 4.046875zm16.963257 5.75l3.25 -0.5q0.28125 1.9375 1.515625 2.984375q1.25 1.03125 3.5 1.03125q2.265625 0 3.359375 -0.90625q1.09375 -0.921875 1.09375 -2.171875q0 -1.109375 -0.96875 -1.75q-0.671875 -0.4375 -3.359375 -1.109375q-3.609375 -0.90625 -5.0 -1.5625q-1.390625 -0.671875 -2.125 -1.84375q-0.71875 -1.1875 -0.71875 -2.609375q0 -1.296875 0.59375 -2.390625q0.59375 -1.109375 1.625 -1.84375q0.765625 -0.5625 2.078125 -0.953125q1.328125 -0.390625 2.84375 -0.390625q2.265625 0 3.984375 0.65625q1.734375 0.65625 2.546875 1.78125q0.828125 1.125 1.140625 3.0l-3.21875 0.4375q-0.21875 -1.5 -1.265625 -2.328125q-1.046875 -0.84375 -2.953125 -0.84375q-2.265625 0 -3.234375 0.75q-0.96875 0.734375 -0.96875 1.75q0 0.625 0.40625 1.140625q0.40625 0.53125 1.265625 0.875q0.484375 0.1875 2.890625 0.84375q3.484375 0.921875 4.859375 1.515625q1.375 0.59375 2.15625 1.734375q0.78125 1.125 0.78125 2.796875q0 1.640625 -0.953125 3.09375q-0.953125 1.453125 -2.765625 2.25q-1.796875 0.78125 -4.078125 0.78125q-3.765625 0 -5.75 -1.5625q-1.984375 -1.578125 -2.53125 -4.65625z" fill-rule="nonzero"/><path fill="#000000" fill-opacity="0.0" d="m78.272964 463.9134l664.0945 -0.8189087" fill-rule="evenodd"/><path stroke="#595959" stroke-width="3.0" stroke-linejoin="round" stroke-linecap="butt" d="m78.272964 463.9134l646.0945 -0.7967224" fill-rule="evenodd"/><path fill="#595959" stroke="#595959" stroke-width="3.0" stroke-linecap="butt" d="m724.3736 468.07187l13.608154 -4.971985l-13.620422 -4.938385z" fill-rule="evenodd"/><path fill="#000000" fill-opacity="0.0" d="m79.21785 464.85828l-0.09449005 -307.5276" fill-rule="evenodd"/><path stroke="#595959" stroke-width="3.0" stroke-linejoin="round" stroke-linecap="butt" d="m79.21785 464.85828l-0.08895874 -289.5276" fill-rule="evenodd"/><path fill="#595959" stroke="#595959" stroke-width="3.0" stroke-linecap="butt" d="m84.08408 175.32918l-4.9593735 -13.612762l-4.9510193 13.615814z" fill-rule="evenodd"/><path fill="#000000" fill-opacity="0.0" d="m240.23622 469.16534l261.88977 0l0 35.40158l-261.88977 0z" fill-rule="evenodd"/><path fill="#000000" d="m250.31435 489.8905l2.140625 -0.1875q0.15625 1.28125 0.703125 2.109375q0.5625 0.828125 1.734375 1.34375q1.1718597 0.5 2.6406097 0.5q1.296875 0 2.296875 -0.375q1.0 -0.390625 1.484375 -1.0625q0.484375 -0.6875 0.484375 -1.484375q0 -0.796875 -0.46875 -1.40625q-0.46875 -0.609375 -1.546875 -1.015625q-0.6875 -0.265625 -3.0625 -0.828125q-2.3593597 -0.578125 -3.3124847 -1.078125q-1.234375 -0.640625 -1.84375 -1.59375q-0.59375 -0.96875 -0.59375 -2.140625q0 -1.3125 0.734375 -2.4375q0.75 -1.125 2.15625 -1.703125q1.421875 -0.59375 3.1562347 -0.59375q1.90625 0 3.359375 0.609375q1.46875 0.609375 2.25 1.8125q0.796875 1.1875 0.84375 2.703125l-2.171875 0.171875q-0.171875 -1.640625 -1.1875 -2.46875q-1.015625 -0.828125 -3.0 -0.828125q-2.0624847 0 -3.0156097 0.765625q-0.9375 0.75 -0.9375 1.8125q0 0.921875 0.671875 1.515625q0.65625 0.609375 3.4218597 1.234375q2.78125 0.625 3.8125 1.09375q1.5 0.6875 2.203125 1.75q0.71875 1.0625 0.71875 2.4375q0 1.375 -0.78125 2.59375q-0.78125 1.203125 -2.25 1.890625q-1.46875 0.671875 -3.3125 0.671875q-2.3281097 0 -3.9062347 -0.671875q-1.578125 -0.6875 -2.484375 -2.046875q-0.890625 -1.375 -0.9375 -3.09375zm24.445297 10.28125l0 -6.09375q-0.484375 0.6875 -1.375 1.15625q-0.890625 0.453125 -1.875 0.453125q-2.21875 0 -3.828125 -1.765625q-1.59375 -1.78125 -1.59375 -4.859375q0 -1.875 0.640625 -3.359375q0.65625 -1.484375 1.890625 -2.25q1.25 -0.78125 2.71875 -0.78125q2.3125 0 3.640625 1.953125l0 -1.671875l1.890625 0l0 17.21875l-2.109375 0zm-6.5 -11.03125q0 2.40625 1.0 3.609375q1.015625 1.203125 2.421875 1.203125q1.34375 0 2.3125 -1.140625q0.984375 -1.140625 0.984375 -3.484375q0 -2.484375 -1.03125 -3.734375q-1.03125 -1.25 -2.40625 -1.25q-1.375 0 -2.328125 1.171875q-0.953125 1.15625 -0.953125 3.625zm20.066406 6.265625l0 -1.828125q-1.453125 2.109375 -3.9375 2.109375q-1.109375 0 -2.0625 -0.421875q-0.953125 -0.421875 -1.421875 -1.0625q-0.453125 -0.640625 -0.640625 -1.5625q-0.140625 -0.625 -0.140625 -1.96875l0 -7.71875l2.109375 0l0 6.90625q0 1.65625 0.140625 2.234375q0.1875 0.828125 0.828125 1.3125q0.65625 0.46875 1.609375 0.46875q0.9375 0 1.765625 -0.484375q0.84375 -0.5 1.1875 -1.328125q0.34375 -0.84375 0.34375 -2.4375l0 -6.671875l2.109375 0l0 12.453125l-1.890625 0zm13.316406 -1.53125q-1.171875 0.984375 -2.265625 1.40625q-1.078125 0.40625 -2.3125 0.40625q-2.046875 0 -3.15625 -1.0q-1.09375 -1.0 -1.09375 -2.5625q0 -0.921875 0.40625 -1.671875q0.421875 -0.75 1.09375 -1.203125q0.671875 -0.46875 1.515625 -0.703125q0.625 -0.15625 1.875 -0.3125q2.5625 -0.3125 3.765625 -0.734375q0.015625 -0.421875 0.015625 -0.546875q0 -1.28125 -0.609375 -1.8125q-0.796875 -0.71875 -2.390625 -0.71875q-1.5 0 -2.203125 0.53125q-0.703125 0.515625 -1.046875 1.84375l-2.0625 -0.28125q0.28125 -1.328125 0.921875 -2.140625q0.640625 -0.8125 1.859375 -1.25q1.21875 -0.453125 2.828125 -0.453125q1.59375 0 2.59375 0.375q1.0 0.375 1.46875 0.953125q0.46875 0.5625 0.65625 1.4375q0.09375 0.53125 0.09375 1.9375l0 2.8125q0 2.9375 0.140625 3.71875q0.140625 0.78125 0.53125 1.5l-2.203125 0q-0.328125 -0.65625 -0.421875 -1.53125zm-0.171875 -4.71875q-1.15625 0.46875 -3.453125 0.796875q-1.296875 0.1875 -1.84375 0.421875q-0.53125 0.234375 -0.828125 0.6875q-0.28125 0.453125 -0.28125 1.0q0 0.84375 0.625 1.40625q0.640625 0.5625 1.875 0.5625q1.21875 0 2.171875 -0.53125q0.953125 -0.53125 1.390625 -1.453125q0.34375 -0.71875 0.34375 -2.109375l0 -0.78125zm5.3789062 6.25l0 -12.453125l1.890625 0l0 1.890625q0.734375 -1.328125 1.34375 -1.75q0.625 -0.421875 1.359375 -0.421875q1.0625 0 2.171875 0.6875l-0.734375 1.953125q-0.765625 -0.453125 -1.546875 -0.453125q-0.6875 0 -1.25 0.421875q-0.546875 0.40625 -0.78125 1.140625q-0.34375 1.125 -0.34375 2.46875l0 6.515625l-2.109375 0zm16.539062 -4.015625l2.171875 0.28125q-0.515625 1.90625 -1.90625 2.96875q-1.390625 1.046875 -3.5625 1.046875q-2.734375 0 -4.34375 -1.671875q-1.59375 -1.6875 -1.59375 -4.734375q0 -3.140625 1.609375 -4.875q1.625 -1.734375 4.203125 -1.734375q2.5 0 4.078125 1.703125q1.59375 1.703125 1.59375 4.78125q0 0.1875 -0.015625 0.5625l-9.28125 0q0.109375 2.046875 1.15625 3.140625q1.046875 1.09375 2.609375 1.09375q1.15625 0 1.96875 -0.609375q0.828125 -0.609375 1.3125 -1.953125zm-6.9375 -3.40625l6.953125 0q-0.140625 -1.5625 -0.796875 -2.359375q-1.0 -1.21875 -2.609375 -1.21875q-1.453125 0 -2.453125 0.984375q-0.984375 0.96875 -1.09375 2.59375zm18.9375 7.421875l0 -10.8125l-1.875 0l0 -1.640625l1.875 0l0 -1.3125q0 -1.265625 0.21875 -1.875q0.296875 -0.8125 1.0625 -1.3125q0.78125 -0.515625 2.15625 -0.515625q0.890625 0 1.96875 0.203125l-0.3125 1.84375q-0.65625 -0.125 -1.25 -0.125q-0.953125 0 -1.359375 0.421875q-0.390625 0.40625 -0.390625 1.53125l0 1.140625l2.421875 0l0 1.640625l-2.421875 0l0 10.8125l-2.09375 0zm14.683594 -4.015625l2.171875 0.28125q-0.515625 1.90625 -1.90625 2.96875q-1.390625 1.046875 -3.5625 1.046875q-2.734375 0 -4.34375 -1.671875q-1.59375 -1.6875 -1.59375 -4.734375q0 -3.140625 1.609375 -4.875q1.625 -1.734375 4.203125 -1.734375q2.5 0 4.078125 1.703125q1.59375 1.703125 1.59375 4.78125q0 0.1875 -0.015625 0.5625l-9.28125 0q0.109375 2.046875 1.15625 3.140625q1.046875 1.09375 2.609375 1.09375q1.15625 0 1.96875 -0.609375q0.828125 -0.609375 1.3125 -1.953125zm-6.9375 -3.40625l6.953125 0q-0.140625 -1.5625 -0.796875 -2.359375q-1.0 -1.21875 -2.609375 -1.21875q-1.453125 0 -2.453125 0.984375q-0.984375 0.96875 -1.09375 2.59375zm20.285156 3.40625l2.171875 0.28125q-0.515625 1.90625 -1.90625 2.96875q-1.390625 1.046875 -3.5625 1.046875q-2.734375 0 -4.34375 -1.671875q-1.59375 -1.6875 -1.59375 -4.734375q0 -3.140625 1.609375 -4.875q1.625 -1.734375 4.203125 -1.734375q2.5 0 4.078125 1.703125q1.59375 1.703125 1.59375 4.78125q0 0.1875 -0.015625 0.5625l-9.28125 0q0.109375 2.046875 1.15625 3.140625q1.046875 1.09375 2.609375 1.09375q1.15625 0 1.96875 -0.609375q0.828125 -0.609375 1.3125 -1.953125zm-6.9375 -3.40625l6.953125 0q-0.140625 -1.5625 -0.796875 -2.359375q-1.0 -1.21875 -2.609375 -1.21875q-1.453125 0 -2.453125 0.984375q-0.984375 0.96875 -1.09375 2.59375zm16.363281 5.53125l0.3125 1.859375q-0.890625 0.203125 -1.59375 0.203125q-1.15625 0 -1.796875 -0.359375q-0.625 -0.375 -0.890625 -0.96875q-0.25 -0.59375 -0.25 -2.484375l0 -7.171875l-1.546875 0l0 -1.640625l1.546875 0l0 -3.078125l2.09375 -1.265625l0 4.34375l2.125 0l0 1.640625l-2.125 0l0 7.28125q0 0.90625 0.109375 1.171875q0.125 0.25 0.375 0.40625q0.25 0.140625 0.71875 0.140625q0.34375 0 0.921875 -0.078125zm12.7578125 6.9375q-1.734375 -2.203125 -2.953125 -5.15625q-1.203125 -2.953125 -1.203125 -6.109375q0 -2.796875 0.90625 -5.34375q1.046875 -2.96875 3.25 -5.90625l1.515625 0q-1.421875 2.4375 -1.875 3.46875q-0.71875 1.625 -1.125 3.375q-0.5 2.203125 -0.5 4.40625q0 5.640625 3.5 11.265625l-1.515625 0zm3.1171875 -8.765625l2.09375 -0.328125q0.171875 1.25 0.96875 1.921875q0.8125 0.671875 2.25 0.671875q1.453125 0 2.15625 -0.59375q0.703125 -0.59375 0.703125 -1.390625q0 -0.71875 -0.625 -1.125q-0.421875 -0.28125 -2.15625 -0.71875q-2.3125 -0.578125 -3.21875 -1.0q-0.890625 -0.4375 -1.359375 -1.1875q-0.453125 -0.765625 -0.453125 -1.671875q0 -0.828125 0.375 -1.53125q0.390625 -0.71875 1.046875 -1.1875q0.484375 -0.359375 1.328125 -0.609375q0.859375 -0.265625 1.828125 -0.265625q1.46875 0 2.578125 0.421875q1.109375 0.421875 1.625 1.15625q0.53125 0.71875 0.734375 1.921875l-2.0625 0.28125q-0.140625 -0.96875 -0.8125 -1.5q-0.671875 -0.546875 -1.90625 -0.546875q-1.453125 0 -2.078125 0.484375q-0.625 0.484375 -0.625 1.125q0 0.40625 0.265625 0.734375q0.25 0.34375 0.8125 0.5625q0.3125 0.125 1.859375 0.546875q2.234375 0.59375 3.109375 0.984375q0.890625 0.375 1.390625 1.109375q0.515625 0.71875 0.515625 1.796875q0 1.046875 -0.625 1.984375q-0.609375 0.9375 -1.765625 1.453125q-1.15625 0.5 -2.625 0.5q-2.421875 0 -3.703125 -1.0q-1.265625 -1.015625 -1.625 -3.0zm20.78125 8.484375l0 -6.09375q-0.484375 0.6875 -1.375 1.15625q-0.890625 0.453125 -1.875 0.453125q-2.21875 0 -3.828125 -1.765625q-1.59375 -1.78125 -1.59375 -4.859375q0 -1.875 0.640625 -3.359375q0.65625 -1.484375 1.890625 -2.25q1.25 -0.78125 2.71875 -0.78125q2.3125 0 3.640625 1.953125l0 -1.671875l1.890625 0l0 17.21875l-2.109375 0zm-6.5 -11.03125q0 2.40625 1.0 3.609375q1.015625 1.203125 2.421875 1.203125q1.34375 0 2.3125 -1.140625q0.984375 -1.140625 0.984375 -3.484375q0 -2.484375 -1.03125 -3.734375q-1.03125 -1.25 -2.40625 -1.25q-1.375 0 -2.328125 1.171875q-0.953125 1.15625 -0.953125 3.625zm12.519531 6.265625l0 -2.40625l2.390625 0l0 2.40625l-2.390625 0zm6.5742188 0l0 -10.8125l-1.875 0l0 -1.640625l1.875 0l0 -1.3125q0 -1.265625 0.21875 -1.875q0.296875 -0.8125 1.0625 -1.3125q0.78125 -0.515625 2.15625 -0.515625q0.890625 0 1.96875 0.203125l-0.3125 1.84375q-0.65625 -0.125 -1.25 -0.125q-0.953125 0 -1.359375 0.421875q-0.390625 0.40625 -0.390625 1.53125l0 1.140625l2.421875 0l0 1.640625l-2.421875 0l0 10.8125l-2.09375 0zm10.761719 -1.890625l0.3125 1.859375q-0.890625 0.203125 -1.59375 0.203125q-1.15625 0 -1.796875 -0.359375q-0.625 -0.375 -0.890625 -0.96875q-0.25 -0.59375 -0.25 -2.484375l0 -7.171875l-1.546875 0l0 -1.640625l1.546875 0l0 -3.078125l2.09375 -1.265625l0 4.34375l2.125 0l0 1.640625l-2.125 0l0 7.28125q0 0.90625 0.109375 1.171875q0.125 0.25 0.375 0.40625q0.25 0.140625 0.71875 0.140625q0.34375 0 0.921875 -0.078125zm2.6679688 1.890625l0 -2.40625l2.390625 0l0 2.40625l-2.390625 0zm7.4492188 5.046875l-1.515625 0q3.5 -5.625 3.5 -11.265625q0 -2.203125 -0.5 -4.359375q-0.390625 -1.765625 -1.109375 -3.375q-0.453125 -1.0625 -1.890625 -3.515625l1.515625 0q2.203125 2.9375 3.25 5.90625q0.90625 2.546875 0.90625 5.34375q0 3.15625 -1.21875 6.109375q-1.203125 2.953125 -2.9375 5.15625z" fill-rule="nonzero"/><path fill="#000000" fill-opacity="0.0" d="m32.72441 336.58005l0 -127.43306l35.401573 0l0 127.43306z" fill-rule="evenodd"/><path fill="#000000" d="m63.73082 326.00192l-17.21875 0l0 -1.921875l1.625 0q-0.953125 -0.6875 -1.421875 -1.53125q-0.484375 -0.859375 -0.484375 -2.078125q0 -1.59375 0.828125 -2.8125q0.8125 -1.21875 2.3125 -1.84375q1.5 -0.625 3.28125 -0.625q1.90625 0 3.4375 0.6875q1.53125 0.6875 2.34375 2.0q0.8125 1.296875 0.8125 2.734375q0 1.0625 -0.4375 1.90625q-0.453125 0.828125 -1.140625 1.375l6.0625 0l0 2.109375zm-10.921875 -1.921875q2.40625 0 3.5625 -0.96875q1.140625 -0.96875 1.140625 -2.359375q0 -1.40625 -1.1875 -2.40625q-1.1875 -1.0 -3.6875 -1.0q-2.375 0 -3.5625 0.984375q-1.1875 0.96875 -1.1875 2.328125q0 1.359375 1.265625 2.390625q1.25 1.03125 3.65625 1.03125zm6.15625 -11.410156l-12.453125 0l0 -1.890625l1.890625 0q-1.328125 -0.734375 -1.75 -1.34375q-0.421875 -0.625 -0.421875 -1.359375q0 -1.0625 0.6875 -2.171875l1.953125 0.734375q-0.453125 0.765625 -0.453125 1.546875q0 0.6875 0.421875 1.25q0.40625 0.546875 1.140625 0.78125q1.125 0.34375 2.46875 0.34375l6.515625 0l0 2.109375zm-14.75 -8.0234375l-2.4375 0l0 -2.109375l2.4375 0l0 2.109375zm14.75 0l-12.453125 0l0 -2.109375l12.453125 0l0 2.109375zm-4.5625 -13.441406l0.265625 -2.078125q2.15625 0.34375 3.375 1.75q1.203125 1.390625 1.203125 3.4375q0 2.546875 -1.671875 4.109375q-1.671875 1.546875 -4.78125 1.546875q-2.015625 0 -3.53125 -0.671875q-1.515625 -0.671875 -2.265625 -2.03125q-0.765625 -1.359375 -0.765625 -2.96875q0 -2.03125 1.03125 -3.3125q1.03125 -1.296875 2.90625 -1.65625l0.328125 2.046875q-1.265625 0.296875 -1.890625 1.046875q-0.640625 0.734375 -0.640625 1.796875q0 1.59375 1.15625 2.59375q1.140625 0.984375 3.609375 0.984375q2.5 0 3.640625 -0.953125q1.140625 -0.96875 1.140625 -2.515625q0 -1.234375 -0.765625 -2.0625q-0.765625 -0.84375 -2.34375 -1.0625zm0.546875 -12.40625l0.28125 -2.171875q1.90625 0.515625 2.96875 1.90625q1.046875 1.390625 1.046875 3.5625q0 2.734375 -1.671875 4.34375q-1.6875 1.59375 -4.734375 1.59375q-3.140625 0 -4.875 -1.609375q-1.734375 -1.625 -1.734375 -4.203125q0 -2.5 1.703125 -4.078125q1.703125 -1.59375 4.78125 -1.59375q0.1875 0 0.5625 0.015625l0 9.28125q2.046875 -0.109375 3.140625 -1.15625q1.09375 -1.046875 1.09375 -2.609375q0 -1.15625 -0.609375 -1.96875q-0.609375 -0.828125 -1.953125 -1.3125zm-3.40625 6.9375l0 -6.953125q-1.5625 0.140625 -2.359375 0.796875q-1.21875 1.0 -1.21875 2.609375q0 1.453125 0.984375 2.453125q0.96875 0.984375 2.59375 1.09375zm12.46875 -22.453125q-2.203125 1.734375 -5.15625 2.953125q-2.953125 1.203125 -6.109375 1.203125q-2.796875 0 -5.34375 -0.90625q-2.96875 -1.046875 -5.90625 -3.25l0 -1.515625q2.4375 1.421875 3.46875 1.875q1.625 0.71875 3.375 1.125q2.203125 0.5 4.40625 0.5q5.640625 0 11.265625 -3.5l0 1.515625zm-2.578125 -8.3671875l-2.109375 0q-0.1875 1.59375 -0.703125 2.578125q-0.515625 0.984375 -1.640625 1.71875q-1.140625 0.71875 -2.78125 0.828125l-0.40625 -2.125q1.703125 -0.234375 2.5 -0.859375q1.125 -0.890625 1.25 -2.140625l-6.71875 0q-0.234375 1.3125 -1.0 2.671875q-0.5625 1.0 -1.5625 1.546875q-1.0 0.546875 -2.265625 0.546875q-2.25 0 -3.640625 -1.59375q-0.9375 -1.0625 -1.140625 -3.171875l-1.015625 0l0 -1.234375l1.015625 0q0.171875 -1.84375 1.078125 -2.921875q1.140625 -1.375 3.140625 -1.65625l0.328125 2.171875q-1.234375 0.1875 -1.890625 0.78125q-0.671875 0.59375 -0.875 1.625l6.078125 0q0.390625 -1.59375 0.625 -2.109375q0.421875 -0.984375 1.046875 -1.609375q0.625 -0.625 1.484375 -0.953125q0.84375 -0.328125 1.84375 -0.328125q2.1875 0 3.65625 1.390625q1.46875 1.390625 1.578125 3.609375l2.125 0l0 1.234375zm-18.46875 0q0.1875 1.234375 0.984375 1.953125q0.796875 0.703125 1.890625 0.703125q1.078125 0 1.8125 -0.59375q0.71875 -0.609375 1.15625 -2.0625l-5.84375 0zm14.578125 -1.234375q-0.15625 -1.234375 -1.0625 -2.03125q-0.921875 -0.8125 -2.265625 -0.8125q-1.140625 0 -1.84375 0.578125q-0.703125 0.5625 -1.25 2.265625l6.421875 0zm6.46875 -9.097656l0 1.515625q-5.625 -3.5 -11.265625 -3.5q-2.203125 0 -4.359375 0.5q-1.765625 0.390625 -3.375 1.109375q-1.0625 0.453125 -3.515625 1.890625l0 -1.515625q2.9375 -2.203125 5.90625 -3.25q2.546875 -0.90625 5.34375 -0.90625q3.15625 0 6.109375 1.21875q2.953125 1.203125 5.15625 2.9375z" fill-rule="nonzero"/><path fill="#38761d" d="m151.67717 393.84778l0 0c0 -4.418274 3.5817108 -8.0 8.0 -8.0l0 0c2.1217346 0 4.156555 0.8428345 5.656845 2.3431396c1.5002899 1.5002747 2.343155 3.5351257 2.343155 5.6568604l0 0c0 4.418274 -3.581726 8.0 -8.0 8.0l0 0c-4.418289 0 -8.0 -3.581726 -8.0 -8.0z" fill-rule="evenodd"/><path stroke="#38761d" stroke-width="2.0" stroke-linejoin="round" stroke-linecap="butt" d="m151.67717 393.84778l0 0c0 -4.418274 3.5817108 -8.0 8.0 -8.0l0 0c2.1217346 0 4.156555 0.8428345 5.656845 2.3431396c1.5002899 1.5002747 2.343155 3.5351257 2.343155 5.6568604l0 0c0 4.418274 -3.581726 8.0 -8.0 8.0l0 0c-4.418289 0 -8.0 -3.581726 -8.0 -8.0z" fill-rule="evenodd"/><path fill="#38761d" d="m121.514435 373.10498l0 0c0 -4.418274 3.581726 -8.0 8.0 -8.0l0 0c2.1217346 0 4.1565704 0.842865 5.6568604 2.3431396c1.5002899 1.5003052 2.3431396 3.5351257 2.3431396 5.6568604l0 0c0 4.418274 -3.581726 8.0 -8.0 8.0l0 0c-4.418274 0 -8.0 -3.581726 -8.0 -8.0z" fill-rule="evenodd"/><path stroke="#38761d" stroke-width="2.0" stroke-linejoin="round" stroke-linecap="butt" d="m121.514435 373.10498l0 0c0 -4.418274 3.581726 -8.0 8.0 -8.0l0 0c2.1217346 0 4.1565704 0.842865 5.6568604 2.3431396c1.5002899 1.5003052 2.3431396 3.5351257 2.3431396 5.6568604l0 0c0 4.418274 -3.581726 8.0 -8.0 8.0l0 0c-4.418274 0 -8.0 -3.581726 -8.0 -8.0z" fill-rule="evenodd"/><path fill="#38761d" d="m208.17061 357.10498l0 0c0 -4.418274 3.5817108 -8.0 8.0 -8.0l0 0c2.1217346 0 4.156555 0.842865 5.656845 2.3431396c1.5002899 1.5003052 2.343155 3.5351257 2.343155 5.6568604l0 0c0 4.418274 -3.581726 8.0 -8.0 8.0l0 0c-4.418289 0 -8.0 -3.581726 -8.0 -8.0z" fill-rule="evenodd"/><path stroke="#38761d" stroke-width="2.0" stroke-linejoin="round" stroke-linecap="butt" d="m208.17061 357.10498l0 0c0 -4.418274 3.5817108 -8.0 8.0 -8.0l0 0c2.1217346 0 4.156555 0.842865 5.656845 2.3431396c1.5002899 1.5003052 2.343155 3.5351257 2.343155 5.6568604l0 0c0 4.418274 -3.581726 8.0 -8.0 8.0l0 0c-4.418289 0 -8.0 -3.581726 -8.0 -8.0z" fill-rule="evenodd"/><path fill="#38761d" d="m506.9344 149.3307l0 0c0 -4.418274 3.581726 -8.0 8.0 -8.0l0 0c2.121704 0 4.156555 0.842865 5.6568604 2.343155c1.5003052 1.5002899 2.3431396 3.5351105 2.3431396 5.656845l0 0c0 4.418289 -3.581726 8.0 -8.0 8.0l0 0c-4.418274 0 -8.0 -3.5817108 -8.0 -8.0z" fill-rule="evenodd"/><path stroke="#38761d" stroke-width="2.0" stroke-linejoin="round" stroke-linecap="butt" d="m506.9344 149.3307l0 0c0 -4.418274 3.581726 -8.0 8.0 -8.0l0 0c2.121704 0 4.156555 0.842865 5.6568604 2.343155c1.5003052 1.5002899 2.3431396 3.5351105 2.3431396 5.656845l0 0c0 4.418289 -3.581726 8.0 -8.0 8.0l0 0c-4.418274 0 -8.0 -3.5817108 -8.0 -8.0z" fill-rule="evenodd"/><path fill="#38761d" d="m464.0 240.29659l0 0c0 -4.418274 3.581726 -8.0 8.0 -8.0l0 0c2.1217346 0 4.156555 0.842865 5.6568604 2.343155c1.5002747 1.5002899 2.3431396 3.5351105 2.3431396 5.656845l0 0c0 4.418274 -3.581726 8.0 -8.0 8.0l0 0c-4.418274 0 -8.0 -3.581726 -8.0 -8.0z" fill-rule="evenodd"/><path stroke="#38761d" stroke-width="2.0" stroke-linejoin="round" stroke-linecap="butt" d="m464.0 240.29659l0 0c0 -4.418274 3.581726 -8.0 8.0 -8.0l0 0c2.1217346 0 4.156555 0.842865 5.6568604 2.343155c1.5002747 1.5002899 2.3431396 3.5351105 2.3431396 5.656845l0 0c0 4.418274 -3.581726 8.0 -8.0 8.0l0 0c-4.418274 0 -8.0 -3.581726 -8.0 -8.0z" fill-rule="evenodd"/><path fill="#38761d" d="m373.9344 202.52231l0 0c0 -4.418274 3.581726 -8.0 8.0 -8.0l0 0c2.1217346 0 4.156555 0.84284973 5.6568604 2.3431396c1.5002747 1.5003052 2.3431396 3.5351257 2.3431396 5.6568604l0 0c0 4.418274 -3.581726 8.0 -8.0 8.0l0 0c-4.418274 0 -8.0 -3.581726 -8.0 -8.0z" fill-rule="evenodd"/><path stroke="#38761d" stroke-width="2.0" stroke-linejoin="round" stroke-linecap="butt" d="m373.9344 202.52231l0 0c0 -4.418274 3.581726 -8.0 8.0 -8.0l0 0c2.1217346 0 4.156555 0.84284973 5.6568604 2.3431396c1.5002747 1.5003052 2.3431396 3.5351257 2.3431396 5.6568604l0 0c0 4.418274 -3.581726 8.0 -8.0 8.0l0 0c-4.418274 0 -8.0 -3.581726 -8.0 -8.0z" fill-rule="evenodd"/><path fill="#38761d" d="m325.9685 295.7743l0 0c0 -4.4183044 3.581726 -8.0 8.0 -8.0l0 0c2.1217346 0 4.156555 0.8428345 5.6568604 2.3431396c1.5002747 1.5002747 2.3431396 3.5351257 2.3431396 5.6568604l0 0c0 4.418274 -3.581726 8.0 -8.0 8.0l0 0c-4.418274 0 -8.0 -3.581726 -8.0 -8.0z" fill-rule="evenodd"/><path stroke="#38761d" stroke-width="2.0" stroke-linejoin="round" stroke-linecap="butt" d="m325.9685 295.7743l0 0c0 -4.4183044 3.581726 -8.0 8.0 -8.0l0 0c2.1217346 0 4.156555 0.8428345 5.6568604 2.3431396c1.5002747 1.5002747 2.3431396 3.5351257 2.3431396 5.6568604l0 0c0 4.418274 -3.581726 8.0 -8.0 8.0l0 0c-4.418274 0 -8.0 -3.581726 -8.0 -8.0z" fill-rule="evenodd"/><path fill="#38761d" d="m266.50394 332.5013l0 0c0 -4.418274 3.581726 -8.0 8.0 -8.0l0 0c2.1217346 0 4.156555 0.842865 5.6568604 2.3431396c1.5002747 1.5003052 2.3431396 3.5351257 2.3431396 5.6568604l0 0c0 4.418274 -3.581726 8.0 -8.0 8.0l0 0c-4.418274 0 -8.0 -3.581726 -8.0 -8.0z" fill-rule="evenodd"/><path stroke="#38761d" stroke-width="2.0" stroke-linejoin="round" stroke-linecap="butt" d="m266.50394 332.5013l0 0c0 -4.418274 3.581726 -8.0 8.0 -8.0l0 0c2.1217346 0 4.156555 0.842865 5.6568604 2.3431396c1.5002747 1.5003052 2.3431396 3.5351257 2.3431396 5.6568604l0 0c0 4.418274 -3.581726 8.0 -8.0 8.0l0 0c-4.418274 0 -8.0 -3.581726 -8.0 -8.0z" fill-rule="evenodd"/><path fill="#38761d" d="m366.3491 291.97375l0 0c0 -4.418274 3.581726 -8.0 8.0 -8.0l0 0c2.1217346 0 4.156555 0.842865 5.65683 2.3431396c1.5003052 1.5003052 2.3431702 3.5351257 2.3431702 5.6568604l0 0c0 4.418274 -3.581726 8.0 -8.0 8.0l0 0c-4.418274 0 -8.0 -3.581726 -8.0 -8.0z" fill-rule="evenodd"/><path stroke="#38761d" stroke-width="2.0" stroke-linejoin="round" stroke-linecap="butt" d="m366.3491 291.97375l0 0c0 -4.418274 3.581726 -8.0 8.0 -8.0l0 0c2.1217346 0 4.156555 0.842865 5.65683 2.3431396c1.5003052 1.5003052 2.3431702 3.5351257 2.3431702 5.6568604l0 0c0 4.418274 -3.581726 8.0 -8.0 8.0l0 0c-4.418274 0 -8.0 -3.581726 -8.0 -8.0z" fill-rule="evenodd"/><path fill="#38761d" d="m535.9134 224.29659l0 0c0 -4.418274 3.581726 -8.0 8.0 -8.0l0 0c2.121704 0 4.156555 0.842865 5.6568604 2.343155c1.5003052 1.5002899 2.3431396 3.5351105 2.3431396 5.656845l0 0c0 4.418274 -3.581726 8.0 -8.0 8.0l0 0c-4.418274 0 -8.0 -3.581726 -8.0 -8.0z" fill-rule="evenodd"/><path stroke="#38761d" stroke-width="2.0" stroke-linejoin="round" stroke-linecap="butt" d="m535.9134 224.29659l0 0c0 -4.418274 3.581726 -8.0 8.0 -8.0l0 0c2.121704 0 4.156555 0.842865 5.6568604 2.343155c1.5003052 1.5002899 2.3431396 3.5351105 2.3431396 5.656845l0 0c0 4.418274 -3.581726 8.0 -8.0 8.0l0 0c-4.418274 0 -8.0 -3.581726 -8.0 -8.0z" fill-rule="evenodd"/><path fill="#38761d" d="m229.71391 404.99475l0 0c0 -4.418274 3.581726 -8.0 8.0 -8.0l0 0c2.1217346 0 4.156555 0.842865 5.656845 2.3431396c1.5003052 1.5003052 2.343155 3.5351257 2.343155 5.6568604l0 0c0 4.418274 -3.581726 8.0 -8.0 8.0l0 0c-4.418274 0 -8.0 -3.581726 -8.0 -8.0z" fill-rule="evenodd"/><path stroke="#38761d" stroke-width="2.0" stroke-linejoin="round" stroke-linecap="butt" d="m229.71391 404.99475l0 0c0 -4.418274 3.581726 -8.0 8.0 -8.0l0 0c2.1217346 0 4.156555 0.842865 5.656845 2.3431396c1.5003052 1.5003052 2.343155 3.5351257 2.343155 5.6568604l0 0c0 4.418274 -3.581726 8.0 -8.0 8.0l0 0c-4.418274 0 -8.0 -3.581726 -8.0 -8.0z" fill-rule="evenodd"/><path fill="#38761d" d="m634.80316 303.23096l0 0c0 -4.418274 3.581726 -8.0 8.0 -8.0l0 0c2.121704 0 4.156555 0.842865 5.6568604 2.3431702c1.5002441 1.5002747 2.3431396 3.5351257 2.3431396 5.65683l0 0c0 4.4183044 -3.581726 8.0 -8.0 8.0l0 0c-4.418274 0 -8.0 -3.5816956 -8.0 -8.0z" fill-rule="evenodd"/><path stroke="#38761d" stroke-width="2.0" stroke-linejoin="round" stroke-linecap="butt" d="m634.80316 303.23096l0 0c0 -4.418274 3.581726 -8.0 8.0 -8.0l0 0c2.121704 0 4.156555 0.842865 5.6568604 2.3431702c1.5002441 1.5002747 2.3431396 3.5351257 2.3431396 5.65683l0 0c0 4.4183044 -3.581726 8.0 -8.0 8.0l0 0c-4.418274 0 -8.0 -3.5816956 -8.0 -8.0z" fill-rule="evenodd"/><path fill="#000000" fill-opacity="0.0" d="m742.36743 431.8504l58.425232 0l0 63.307068l-58.425232 0z" fill-rule="evenodd"/><path fill="#000000" d="m751.6643 479.2504l7.578125 -10.78125l-7.015625 -9.96875l4.390625 0l3.1875 4.875q0.90625 1.375 1.453125 2.3125q0.859375 -1.28125 1.578125 -2.28125l3.5 -4.90625l4.1875 0l-7.15625 9.765625l7.703125 10.984375l-4.3125 0l-4.25 -6.453125l-1.140625 -1.734375l-5.453125 8.1875l-4.25 0z" fill-rule="nonzero"/><path fill="#000000" fill-opacity="0.0" d="m36.719162 106.84777l58.425194 0l0 63.30709l-58.425194 0z" fill-rule="evenodd"/><path fill="#000000" d="m48.203537 162.23215l-0.390625 -3.296875q1.15625 0.3125 2.015625 0.3125q1.171875 0 1.875 -0.390625q0.703125 -0.390625 1.140625 -1.09375q0.34375 -0.53125 1.078125 -2.609375q0.09375 -0.296875 0.3125 -0.859375l-7.875 -20.796875l3.796875 0l4.3125 12.015625q0.84375 2.28125 1.5 4.8125q0.609375 -2.421875 1.453125 -4.734375l4.4375 -12.09375l3.515625 0l-7.890625 21.109375q-1.28125 3.40625 -1.984375 4.703125q-0.9375 1.734375 -2.15625 2.546875q-1.203125 0.8125 -2.875 0.8125q-1.015625 0 -2.265625 -0.4375z" fill-rule="nonzero"/></g></svg>