<svg version="1.1" viewBox="0.0 0.0 960.0 540.0" fill="none" stroke="none" stroke-linecap="square" stroke-miterlimit="10" xmlns:xlink="http://www.w3.org/1999/xlink" xmlns="http://www.w3.org/2000/svg"><clipPath id="g6f4aa969e5_0_179.0"><path d="m0 0l960.0 0l0 540.0l-960.0 0l0 -540.0z" clip-rule="nonzero"/></clipPath><g clip-path="url(#g6f4aa969e5_0_179.0)"><path fill="#ffffff" d="m0 0l960.0 0l0 540.0l-960.0 0z" fill-rule="evenodd"/><path fill="#000000" fill-opacity="0.0" d="m68.125984 22.217848l709.6378 0l0 60.125984l-709.6378 0z" fill-rule="evenodd"/><path fill="#000000" d="m83.438484 67.057846l-1.640625 -26.718754l3.625 0l0.609375 13.21875q0.0625 0.9375 0.1875 5.140625q0.03125 1.15625 0.03125 1.640625q0 0.296875 -0.015625 1.796875q2.234375 -4.5625 3.21875 -6.421875l8.125 -15.375l3.671875 0l0.90625 15.625q0.140625 2.671875 0.1875 6.453125q0.328125 -0.9375 1.171875 -2.78125q1.328125 -2.96875 1.96875 -4.25l7.625 -15.046875l3.640625 0l-13.59375 26.718754l-3.828125 0l-0.890625 -16.187504q-0.140625 -2.078125 -0.203125 -5.09375q-1.109375 2.53125 -1.859375 3.921875l-9.265625 17.359379l-3.671875 0zm30.153946 0l5.578125 -26.718754l3.296875 0l-2.125 10.265625q1.84375 -1.796875 3.421875 -2.5625q1.59375 -0.78125 3.265625 -0.78125q2.4062576 0 3.7343826 1.265625q1.328125 1.265625 1.328125 3.34375q0 1.03125 -0.578125 3.765625l-2.390625 11.421879l-3.2968826 0l2.4687576 -11.718754q0.515625 -2.546875 0.515625 -3.203125q0 -0.953125 -0.65625 -1.546875q-0.6562576 -0.609375 -1.8906326 -0.609375q-1.78125 0 -3.40625 0.9375q-1.625 0.9375 -2.546875 2.578125q-0.921875 1.625 -1.6875 5.25l-1.734375 8.312504l-3.296875 0zm25.44764 -22.984379l0.78125 -3.734375l3.28125 0l-0.78125 3.734375l-3.28125 0zm-4.8125 22.984379l4.046875 -19.359379l3.296875 0l-4.046875 19.359379l-3.296875 0zm21.777496 -7.046879l3.3125 0.34375q-1.25 3.625 -3.546875 5.390629q-2.28125 1.75 -5.1875 1.75q-3.15625 0 -5.125 -2.03125q-1.953125 -2.0468788 -1.953125 -5.718754q0 -3.171875 1.25 -6.234375q1.265625 -3.0625 3.609375 -4.65625q2.34375 -1.59375 5.34375 -1.59375q3.125 0 4.9375 1.765625q1.828125 1.75 1.828125 4.65625l-3.234375 0.21875q-0.03125 -1.84375 -1.078125 -2.875q-1.046875 -1.046875 -2.75 -1.046875q-2.0 0 -3.453125 1.265625q-1.453125 1.25 -2.28125 3.8125q-0.828125 2.5625 -0.828125 4.921875q0 2.484375 1.09375 3.734375q1.09375 1.2343788 2.6875 1.2343788q1.609375 0 3.078125 -1.2187538q1.46875 -1.234375 2.296875 -3.71875zm5.3046875 7.046879l5.578125 -26.718754l3.296875 0l-2.125 10.265625q1.84375 -1.796875 3.421875 -2.5625q1.59375 -0.78125 3.265625 -0.78125q2.40625 0 3.734375 1.265625q1.328125 1.265625 1.328125 3.34375q0 1.03125 -0.578125 3.765625l-2.390625 11.421879l-3.296875 0l2.46875 -11.718754q0.515625 -2.546875 0.515625 -3.203125q0 -0.953125 -0.65625 -1.546875q-0.65625 -0.609375 -1.890625 -0.609375q-1.78125 0 -3.40625 0.9375q-1.625 0.9375 -2.546875 2.578125q-0.921875 1.625 -1.6875 5.25l-1.734375 8.312504l-3.296875 0zm30.881088 0l5.578125 -26.718754l3.296875 0l-5.578125 26.718754l-3.296875 0zm13.230621 -22.984379l0.78125 -3.734375l3.28125 0l-0.78125 3.734375l-3.28125 0zm-4.8125 22.984379l4.046875 -19.359379l3.296875 0l-4.046875 19.359379l-3.296875 0zm8.418121 0l4.046875 -19.359379l3.0 0l-0.71875 3.375q1.953125 -1.984375 3.640625 -2.890625q1.703125 -0.921875 3.46875 -0.921875q2.359375 0 3.6875 1.28125q1.34375 1.265625 1.34375 3.40625q0 1.078125 -0.46875 3.390625l-2.46875 11.718754l-3.296875 0l2.578125 -12.265629q0.375 -1.78125 0.375 -2.640625q0 -0.96875 -0.671875 -1.5625q-0.65625 -0.609375 -1.921875 -0.609375q-2.53125 0 -4.515625 1.828125q-1.96875 1.8125 -2.890625 6.25l-1.890625 9.000004l-3.296875 0zm34.97888 -6.578129l3.21875 0.328125q-0.703125 2.390625 -3.1875 4.546879q-2.484375 2.140625 -5.9375 2.140625q-2.140625 0 -3.9375 -0.984375q-1.796875 -1.0 -2.734375 -2.8906288q-0.9375 -1.90625 -0.9375 -4.328125q0 -3.171875 1.453125 -6.140625q1.46875 -2.984375 3.796875 -4.4375q2.34375 -1.453125 5.0625 -1.453125q3.46875 0 5.53125 2.15625q2.0625 2.140625 2.0625 5.859375q0 1.421875 -0.25 2.921875l-14.25 0q-0.078125 0.5625 -0.078125 1.015625q0 2.71875 1.25 4.15625q1.25 1.4218788 3.046875 1.4218788q1.703125 0 3.34375 -1.1093788q1.640625 -1.109375 2.546875 -3.203125zm-9.578125 -4.796875l10.859375 0q0.015625 -0.515625 0.015625 -0.734375q0 -2.46875 -1.25 -3.78125q-1.234375 -1.328125 -3.171875 -1.328125q-2.125 0 -3.875 1.453125q-1.734375 1.453125 -2.578125 4.390625zm22.697617 4.6875q0.1875 -1.65625 0.75 -2.9375q0.5625 -1.296875 1.75 -2.640625q0.703125 -0.765625 3.265625 -2.84375q2.578125 -2.09375 3.328125 -3.375q0.75 -1.296875 0.75 -2.390625q0 -1.453125 -1.21875 -2.546875q-1.203125 -1.109375 -3.109375 -1.109375q-2.078125 0 -3.453125 1.3125q-1.375 1.296875 -1.84375 4.359375l-3.2968597 -0.546875q0.78125 -3.90625 3.0312347 -5.828125q2.265625 -1.9375 5.46875 -1.9375q2.203125 0 4.015625 0.890625q1.8125 0.890625 2.734375 2.4375q0.9375 1.546875 0.9375 3.21875q0 2.015625 -1.34375 3.859375q-1.0 1.375 -4.5 4.171875q-2.390625 1.9375 -3.125 3.03125q-0.71875 1.09375 -1.015625 2.875l-3.125 0zm-1.6093597 6.687504l0.78123474 -3.7343788l3.734375 0l-0.78125 3.7343788l-3.7343597 0z" fill-rule="nonzero"/><path fill="#000000" fill-opacity="0.0" d="m71.32863 469.60812l562.83466 -0.6929016" fill-rule="evenodd"/><path stroke="#595959" stroke-width="3.0" stroke-linejoin="round" stroke-linecap="butt" d="m71.32863 469.60815l544.83466 -0.67077637" fill-rule="evenodd"/><path fill="#595959" stroke="#595959" stroke-width="3.0" stroke-linecap="butt" d="m616.1694 473.89258l13.608215 -4.9719543l-13.620422 -4.9384155z" fill-rule="evenodd"/><path fill="#000000" fill-opacity="0.0" d="m72.129456 470.42065l-0.09449005 -264.44095" fill-rule="evenodd"/><path stroke="#595959" stroke-width="3.0" stroke-linejoin="round" stroke-linecap="butt" d="m72.129456 470.42065l-0.08805847 -246.44093" fill-rule="evenodd"/><path fill="#595959" stroke="#595959" stroke-width="3.0" stroke-linecap="butt" d="m76.9966 223.97795l-4.96006 -13.612518l-4.9503326 13.616058z" fill-rule="evenodd"/><path fill="#000000" fill-opacity="0.0" d="m208.59895 474.12442l158.89763 0l0 30.456665l-158.89763 0z" fill-rule="evenodd"/><path fill="#000000" d="m218.67708 492.37714l2.140625 -0.1875q0.15625 1.28125 0.703125 2.109375q0.5625 0.828125 1.734375 1.34375q1.171875 0.5 2.640625 0.5q1.296875 0 2.296875 -0.375q1.0 -0.390625 1.484375 -1.0625q0.484375 -0.6875 0.484375 -1.484375q0 -0.796875 -0.46875 -1.40625q-0.46875 -0.609375 -1.546875 -1.015625q-0.6875 -0.265625 -3.0625 -0.828125q-2.359375 -0.578125 -3.3125 -1.078125q-1.234375 -0.640625 -1.84375 -1.59375q-0.59375 -0.96875 -0.59375 -2.140625q0 -1.3125 0.734375 -2.4375q0.75 -1.125 2.15625 -1.703125q1.421875 -0.59375 3.15625 -0.59375q1.90625 0 3.359375 0.609375q1.46875 0.609375 2.25 1.8125q0.796875 1.1875 0.84375 2.703125l-2.171875 0.171875q-0.171875 -1.640625 -1.1875 -2.46875q-1.015625 -0.828125 -3.0 -0.828125q-2.0625 0 -3.015625 0.765625q-0.9375 0.75 -0.9375 1.8125q0 0.921875 0.671875 1.515625q0.65625 0.609375 3.421875 1.234375q2.78125 0.625 3.8125 1.09375q1.5 0.6875 2.203125 1.75q0.71875 1.0625 0.71875 2.4375q0 1.375 -0.78125 2.59375q-0.78125 1.203125 -2.25 1.890625q-1.46875 0.671875 -3.3125 0.671875q-2.328125 0 -3.90625 -0.671875q-1.578125 -0.6875 -2.484375 -2.046875q-0.890625 -1.375 -0.9375 -3.09375zm24.445312 10.28125l0 -6.09375q-0.484375 0.6875 -1.375 1.15625q-0.890625 0.453125 -1.875 0.453125q-2.21875 0 -3.828125 -1.765625q-1.59375 -1.78125 -1.59375 -4.859375q0 -1.875 0.640625 -3.359375q0.65625 -1.484375 1.890625 -2.25q1.25 -0.78125 2.71875 -0.78125q2.3125 0 3.640625 1.953125l0 -1.671875l1.890625 0l0 17.21875l-2.109375 0zm-6.5 -11.03125q0 2.40625 1.0 3.609375q1.015625 1.203125 2.421875 1.203125q1.34375 0 2.3125 -1.140625q0.984375 -1.140625 0.984375 -3.484375q0 -2.484375 -1.03125 -3.734375q-1.03125 -1.25 -2.40625 -1.25q-1.375 0 -2.328125 1.171875q-0.953125 1.15625 -0.953125 3.625zm20.066422 6.265625l0 -1.828125q-1.4531403 2.109375 -3.9375153 2.109375q-1.109375 0 -2.0625 -0.421875q-0.953125 -0.421875 -1.421875 -1.0625q-0.453125 -0.640625 -0.640625 -1.5625q-0.140625 -0.625 -0.140625 -1.96875l0 -7.71875l2.109375 0l0 6.90625q0 1.65625 0.140625 2.234375q0.1875 0.828125 0.828125 1.3125q0.65625 0.46875 1.609375 0.46875q0.9375 0 1.765625 -0.484375q0.84375 -0.5 1.1875153 -1.328125q0.34375 -0.84375 0.34375 -2.4375l0 -6.671875l2.109375 0l0 12.453125l-1.890625 0zm13.316406 -1.53125q-1.171875 0.984375 -2.265625 1.40625q-1.078125 0.40625 -2.3125 0.40625q-2.046875 0 -3.15625 -1.0q-1.09375 -1.0 -1.09375 -2.5625q0 -0.921875 0.40625 -1.671875q0.421875 -0.75 1.09375 -1.203125q0.671875 -0.46875 1.515625 -0.703125q0.625 -0.15625 1.875 -0.3125q2.5625 -0.3125 3.765625 -0.734375q0.015625 -0.421875 0.015625 -0.546875q0 -1.28125 -0.609375 -1.8125q-0.796875 -0.71875 -2.390625 -0.71875q-1.5 0 -2.203125 0.53125q-0.703125 0.515625 -1.046875 1.84375l-2.0625 -0.28125q0.28125 -1.328125 0.921875 -2.140625q0.640625 -0.8125 1.859375 -1.25q1.21875 -0.453125 2.828125 -0.453125q1.59375 0 2.59375 0.375q1.0 0.375 1.46875 0.953125q0.46875 0.5625 0.65625 1.4375q0.09375 0.53125 0.09375 1.9375l0 2.8125q0 2.9375 0.140625 3.71875q0.140625 0.78125 0.53125 1.5l-2.203125 0q-0.328125 -0.65625 -0.421875 -1.53125zm-0.171875 -4.71875q-1.15625 0.46875 -3.453125 0.796875q-1.296875 0.1875 -1.84375 0.421875q-0.53125 0.234375 -0.828125 0.6875q-0.28125 0.453125 -0.28125 1.0q0 0.84375 0.625 1.40625q0.640625 0.5625 1.875 0.5625q1.21875 0 2.171875 -0.53125q0.953125 -0.53125 1.390625 -1.453125q0.34375 -0.71875 0.34375 -2.109375l0 -0.78125zm5.3789062 6.25l0 -12.453125l1.890625 0l0 1.890625q0.734375 -1.328125 1.34375 -1.75q0.625 -0.421875 1.359375 -0.421875q1.0625 0 2.171875 0.6875l-0.734375 1.953125q-0.765625 -0.453125 -1.546875 -0.453125q-0.6875 0 -1.25 0.421875q-0.546875 0.40625 -0.78125 1.140625q-0.34375 1.125 -0.34375 2.46875l0 6.515625l-2.109375 0zm16.539062 -4.015625l2.171875 0.28125q-0.515625 1.90625 -1.90625 2.96875q-1.390625 1.046875 -3.5625 1.046875q-2.734375 0 -4.34375 -1.671875q-1.59375 -1.6875 -1.59375 -4.734375q0 -3.140625 1.609375 -4.875q1.625 -1.734375 4.203125 -1.734375q2.5 0 4.078125 1.703125q1.59375 1.703125 1.59375 4.78125q0 0.1875 -0.015625 0.5625l-9.28125 0q0.109375 2.046875 1.15625 3.140625q1.046875 1.09375 2.609375 1.09375q1.15625 0 1.96875 -0.609375q0.828125 -0.609375 1.3125 -1.953125zm-6.9375 -3.40625l6.953125 0q-0.140625 -1.5625 -0.796875 -2.359375q-1.0 -1.21875 -2.609375 -1.21875q-1.453125 0 -2.453125 0.984375q-0.984375 0.96875 -1.09375 2.59375zm18.9375 7.421875l0 -10.8125l-1.875 0l0 -1.640625l1.875 0l0 -1.3125q0 -1.265625 0.21875 -1.875q0.296875 -0.8125 1.0625 -1.3125q0.78125 -0.515625 2.15625 -0.515625q0.890625 0 1.96875 0.203125l-0.3125 1.84375q-0.65625 -0.125 -1.25 -0.125q-0.953125 0 -1.359375 0.421875q-0.390625 0.40625 -0.390625 1.53125l0 1.140625l2.421875 0l0 1.640625l-2.421875 0l0 10.8125l-2.09375 0zm14.683594 -4.015625l2.171875 0.28125q-0.515625 1.90625 -1.90625 2.96875q-1.390625 1.046875 -3.5625 1.046875q-2.734375 0 -4.34375 -1.671875q-1.59375 -1.6875 -1.59375 -4.734375q0 -3.140625 1.609375 -4.875q1.625 -1.734375 4.203125 -1.734375q2.5 0 4.078125 1.703125q1.59375 1.703125 1.59375 4.78125q0 0.1875 -0.015625 0.5625l-9.28125 0q0.109375 2.046875 1.15625 3.140625q1.046875 1.09375 2.609375 1.09375q1.15625 0 1.96875 -0.609375q0.828125 -0.609375 1.3125 -1.953125zm-6.9375 -3.40625l6.953125 0q-0.140625 -1.5625 -0.796875 -2.359375q-1.0 -1.21875 -2.609375 -1.21875q-1.453125 0 -2.453125 0.984375q-0.984375 0.96875 -1.09375 2.59375zm20.285156 3.40625l2.171875 0.28125q-0.515625 1.90625 -1.90625 2.96875q-1.390625 1.046875 -3.5625 1.046875q-2.734375 0 -4.34375 -1.671875q-1.59375 -1.6875 -1.59375 -4.734375q0 -3.140625 1.609375 -4.875q1.625 -1.734375 4.203125 -1.734375q2.5 0 4.078125 1.703125q1.59375 1.703125 1.59375 4.78125q0 0.1875 -0.015625 0.5625l-9.28125 0q0.109375 2.046875 1.15625 3.140625q1.046875 1.09375 2.609375 1.09375q1.15625 0 1.96875 -0.609375q0.828125 -0.609375 1.3125 -1.953125zm-6.9375 -3.40625l6.953125 0q-0.140625 -1.5625 -0.796875 -2.359375q-1.0 -1.21875 -2.609375 -1.21875q-1.453125 0 -2.453125 0.984375q-0.984375 0.96875 -1.09375 2.59375zm16.363281 5.53125l0.3125 1.859375q-0.890625 0.203125 -1.59375 0.203125q-1.15625 0 -1.796875 -0.359375q-0.625 -0.375 -0.890625 -0.96875q-0.25 -0.59375 -0.25 -2.484375l0 -7.171875l-1.546875 0l0 -1.640625l1.546875 0l0 -3.078125l2.09375 -1.265625l0 4.34375l2.125 0l0 1.640625l-2.125 0l0 7.28125q0 0.90625 0.109375 1.171875q0.125 0.25 0.375 0.40625q0.25 0.140625 0.71875 0.140625q0.34375 0 0.921875 -0.078125z" fill-rule="nonzero"/><path fill="#000000" fill-opacity="0.0" d="m32.72441 360.11166l0 -89.66931l30.015747 0l0 89.66931z" fill-rule="evenodd"/><path fill="#000000" d="m61.037907 349.53354l-17.21875 0l0 -1.921875l1.625 0q-0.953125 -0.6875 -1.421875 -1.53125q-0.484375 -0.859375 -0.484375 -2.078125q0 -1.59375 0.828125 -2.8125q0.8125 -1.21875 2.3125 -1.84375q1.5 -0.625 3.28125 -0.625q1.90625 0 3.4375 0.6875q1.53125 0.6875 2.34375 2.0q0.8125 1.296875 0.8125 2.734375q0 1.0625 -0.4375 1.90625q-0.453125 0.828125 -1.140625 1.375l6.0625 0l0 2.109375zm-10.921875 -1.921875q2.40625 0 3.5625 -0.96875q1.140625 -0.96875 1.140625 -2.359375q0 -1.40625 -1.1875 -2.40625q-1.1875 -1.0 -3.6875 -1.0q-2.375 0 -3.5625 0.984375q-1.1875 0.96875 -1.1875 2.328125q0 1.359375 1.265625 2.390625q1.25 1.03125 3.65625 1.03125zm6.15625 -11.410156l-12.453125 0l0 -1.890625l1.890625 0q-1.328125 -0.734375 -1.75 -1.34375q-0.421875 -0.625 -0.421875 -1.359375q0 -1.0625 0.6875 -2.171875l1.953125 0.734375q-0.453125 0.765625 -0.453125 1.546875q0 0.6875 0.421875 1.25q0.40625 0.546875 1.140625 0.78125q1.125 0.34375 2.46875 0.34375l6.515625 0l0 2.109375zm-14.75 -8.0234375l-2.4375 0l0 -2.109375l2.4375 0l0 2.109375zm14.75 0l-12.453125 0l0 -2.109375l12.453125 0l0 2.109375zm-4.5625 -13.441406l0.265625 -2.078125q2.15625 0.34375 3.375 1.75q1.203125 1.390625 1.203125 3.4375q0 2.546875 -1.671875 4.109375q-1.671875 1.546875 -4.78125 1.546875q-2.015625 0 -3.53125 -0.671875q-1.515625 -0.671875 -2.265625 -2.03125q-0.765625 -1.359375 -0.765625 -2.96875q0 -2.03125 1.03125 -3.3125q1.03125 -1.296875 2.90625 -1.65625l0.328125 2.046875q-1.265625 0.296875 -1.890625 1.046875q-0.640625 0.734375 -0.640625 1.796875q0 1.59375 1.15625 2.59375q1.140625 0.984375 3.609375 0.984375q2.5 0 3.640625 -0.953125q1.140625 -0.96875 1.140625 -2.515625q0 -1.234375 -0.765625 -2.0625q-0.765625 -0.84375 -2.34375 -1.0625zm0.546875 -12.40625l0.28125 -2.171875q1.90625 0.515625 2.96875 1.90625q1.046875 1.390625 1.046875 3.5625q0 2.734375 -1.671875 4.34375q-1.6875 1.59375 -4.734375 1.59375q-3.140625 0 -4.875 -1.609375q-1.734375 -1.625 -1.734375 -4.203125q0 -2.5 1.703125 -4.078125q1.703125 -1.59375 4.78125 -1.59375q0.1875 0 0.5625 0.015625l0 9.28125q2.046875 -0.109375 3.140625 -1.15625q1.09375 -1.046875 1.09375 -2.609375q0 -1.15625 -0.609375 -1.96875q-0.609375 -0.828125 -1.953125 -1.3125zm-3.40625 6.9375l0 -6.953125q-1.5625 0.140625 -2.359375 0.796875q-1.21875 1.0 -1.21875 2.609375q0 1.453125 0.984375 2.453125q0.96875 0.984375 2.59375 1.09375z" fill-rule="nonzero"/><path fill="#38761d" d="m133.54163 409.35983l0 0c0 -3.8007507 3.0388184 -6.881897 6.7873993 -6.881897l0 0c1.8001251 0 3.526535 0.72506714 4.799408 2.015686c1.2728882 1.2905884 1.9879913 3.0410156 1.9879913 4.866211l0 0c0 3.8007812 -3.0388184 6.881897 -6.7873993 6.881897l0 0c-3.748581 0 -6.7873993 -3.0811157 -6.7873993 -6.881897z" fill-rule="evenodd"/><path stroke="#38761d" stroke-width="2.0" stroke-linejoin="round" stroke-linecap="butt" d="m133.54163 409.35983l0 0c0 -3.8007507 3.0388184 -6.881897 6.7873993 -6.881897l0 0c1.8001251 0 3.526535 0.72506714 4.799408 2.015686c1.2728882 1.2905884 1.9879913 3.0410156 1.9879913 4.866211l0 0c0 3.8007812 -3.0388184 6.881897 -6.7873993 6.881897l0 0c-3.748581 0 -6.7873993 -3.0811157 -6.7873993 -6.881897z" fill-rule="evenodd"/><path fill="#38761d" d="m107.9775 391.5227l0 0c0 -3.8007507 3.038826 -6.881897 6.7873993 -6.881897l0 0c1.8001328 0 3.526535 0.72506714 4.799423 2.0156555c1.2728806 1.2906189 1.9879837 3.0410461 1.9879837 4.8662415l0 0c0 3.8007507 -3.038826 6.881897 -6.787407 6.881897l0 0c-3.7485733 0 -6.7873993 -3.0811462 -6.7873993 -6.881897z" fill-rule="evenodd"/><path stroke="#38761d" stroke-width="2.0" stroke-linejoin="round" stroke-linecap="butt" d="m107.9775 391.5227l0 0c0 -3.8007507 3.038826 -6.881897 6.7873993 -6.881897l0 0c1.8001328 0 3.526535 0.72506714 4.799423 2.0156555c1.2728806 1.2906189 1.9879837 3.0410461 1.9879837 4.8662415l0 0c0 3.8007507 -3.038826 6.881897 -6.787407 6.881897l0 0c-3.7485733 0 -6.7873993 -3.0811462 -6.7873993 -6.881897z" fill-rule="evenodd"/><path fill="#38761d" d="m181.42206 377.76398l0 0c0 -3.8007507 3.0388336 -6.881897 6.7874146 -6.881897l0 0c1.8001251 0 3.5265198 0.72506714 4.799408 2.015686c1.2728882 1.2905884 1.9879913 3.0410156 1.9879913 4.866211l0 0c0 3.8007812 -3.0388336 6.881897 -6.7873993 6.881897l0 0c-3.748581 0 -6.7874146 -3.0811157 -6.7874146 -6.881897z" fill-rule="evenodd"/><path stroke="#38761d" stroke-width="2.0" stroke-linejoin="round" stroke-linecap="butt" d="m181.42206 377.76398l0 0c0 -3.8007507 3.0388336 -6.881897 6.7874146 -6.881897l0 0c1.8001251 0 3.5265198 0.72506714 4.799408 2.015686c1.2728882 1.2905884 1.9879913 3.0410156 1.9879913 4.866211l0 0c0 3.8007812 -3.0388336 6.881897 -6.7873993 6.881897l0 0c-3.748581 0 -6.7874146 -3.0811157 -6.7874146 -6.881897z" fill-rule="evenodd"/><path fill="#38761d" d="m434.6363 199.09473l0 0c0 -3.800766 3.0388184 -6.881897 6.7874146 -6.881897l0 0c1.8001099 0 3.5265198 0.7250519 4.799408 2.0156708c1.2728882 1.2906036 1.9879761 3.041031 1.9879761 4.866226l0 0c0 3.800766 -3.0388184 6.8818817 -6.787384 6.8818817l0 0c-3.7485962 0 -6.7874146 -3.0811157 -6.7874146 -6.8818817z" fill-rule="evenodd"/><path stroke="#38761d" stroke-width="2.0" stroke-linejoin="round" stroke-linecap="butt" d="m434.6363 199.09473l0 0c0 -3.800766 3.0388184 -6.881897 6.7874146 -6.881897l0 0c1.8001099 0 3.5265198 0.7250519 4.799408 2.0156708c1.2728882 1.2906036 1.9879761 3.041031 1.9879761 4.866226l0 0c0 3.800766 -3.0388184 6.8818817 -6.787384 6.8818817l0 0c-3.7485962 0 -6.7874146 -3.0811157 -6.7874146 -6.8818817z" fill-rule="evenodd"/><path fill="#38761d" d="m398.24768 277.3181l0 0c0 -3.8007812 3.0388489 -6.881897 6.7874146 -6.881897l0 0c1.8001404 0 3.5265198 0.7250366 4.799408 2.0156555c1.2728882 1.2906189 1.9880066 3.0410461 1.9880066 4.8662415l0 0c0 3.8007507 -3.0388489 6.8818665 -6.7874146 6.8818665l0 0c-3.7485657 0 -6.7874146 -3.0811157 -6.7874146 -6.8818665z" fill-rule="evenodd"/><path stroke="#38761d" stroke-width="2.0" stroke-linejoin="round" stroke-linecap="butt" d="m398.24768 277.3181l0 0c0 -3.8007812 3.0388489 -6.881897 6.7874146 -6.881897l0 0c1.8001404 0 3.5265198 0.7250366 4.799408 2.0156555c1.2728882 1.2906189 1.9880066 3.0410461 1.9880066 4.8662415l0 0c0 3.8007507 -3.0388489 6.8818665 -6.7874146 6.8818665l0 0c-3.7485657 0 -6.7874146 -3.0811157 -6.7874146 -6.8818665z" fill-rule="evenodd"/><path fill="#38761d" d="m321.91348 244.83525l0 0c0 -3.800766 3.0388184 -6.881897 6.7874146 -6.881897l0 0c1.8001099 0 3.5265198 0.7250519 4.799408 2.0156555c1.2728882 1.2906036 1.9879761 3.0410461 1.9879761 4.8662415l0 0c0 3.8007507 -3.0388184 6.8818817 -6.787384 6.8818817l0 0c-3.7485962 0 -6.7874146 -3.081131 -6.7874146 -6.8818817z" fill-rule="evenodd"/><path stroke="#38761d" stroke-width="2.0" stroke-linejoin="round" stroke-linecap="butt" d="m321.91348 244.83525l0 0c0 -3.800766 3.0388184 -6.881897 6.7874146 -6.881897l0 0c1.8001099 0 3.5265198 0.7250519 4.799408 2.0156555c1.2728882 1.2906036 1.9879761 3.0410461 1.9879761 4.8662415l0 0c0 3.8007507 -3.0388184 6.8818817 -6.787384 6.8818817l0 0c-3.7485962 0 -6.7874146 -3.081131 -6.7874146 -6.8818817z" fill-rule="evenodd"/><path fill="#38761d" d="m281.2605 325.02448l0 0c0 -3.8007507 3.0388184 -6.881897 6.787384 -6.881897l0 0c1.8001404 0 3.5265503 0.72506714 4.7994385 2.015686c1.2728577 1.2905884 1.9879761 3.0410156 1.9879761 4.866211l0 0c0 3.8007812 -3.0388184 6.881897 -6.7874146 6.881897l0 0c-3.7485657 0 -6.787384 -3.0811157 -6.787384 -6.881897z" fill-rule="evenodd"/><path stroke="#38761d" stroke-width="2.0" stroke-linejoin="round" stroke-linecap="butt" d="m281.2605 325.02448l0 0c0 -3.8007507 3.0388184 -6.881897 6.787384 -6.881897l0 0c1.8001404 0 3.5265503 0.72506714 4.7994385 2.015686c1.2728577 1.2905884 1.9879761 3.0410156 1.9879761 4.866211l0 0c0 3.8007812 -3.0388184 6.881897 -6.7874146 6.881897l0 0c-3.7485657 0 -6.787384 -3.0811157 -6.787384 -6.881897z" fill-rule="evenodd"/><path fill="#38761d" d="m230.8619 356.60678l0 0c0 -3.8007507 3.0388184 -6.8818665 6.7873993 -6.8818665l0 0c1.8001404 0 3.526535 0.7250366 4.799423 2.0156555c1.2728882 1.2905884 1.9879761 3.0410461 1.9879761 4.866211l0 0c0 3.8007812 -3.0388184 6.881897 -6.7873993 6.881897l0 0c-3.748581 0 -6.7873993 -3.0811157 -6.7873993 -6.881897z" fill-rule="evenodd"/><path stroke="#38761d" stroke-width="2.0" stroke-linejoin="round" stroke-linecap="butt" d="m230.8619 356.60678l0 0c0 -3.8007507 3.0388184 -6.8818665 6.7873993 -6.8818665l0 0c1.8001404 0 3.526535 0.7250366 4.799423 2.0156555c1.2728882 1.2905884 1.9879761 3.0410461 1.9879761 4.866211l0 0c0 3.8007812 -3.0388184 6.881897 -6.7873993 6.881897l0 0c-3.748581 0 -6.7873993 -3.0811157 -6.7873993 -6.881897z" fill-rule="evenodd"/><path fill="#38761d" d="m315.48465 321.75635l0 0c0 -3.8007812 3.0388184 -6.881897 6.787384 -6.881897l0 0c1.8001404 0 3.5265503 0.7250366 4.7994385 2.0156555c1.2728577 1.2905884 1.9879761 3.0410461 1.9879761 4.8662415l0 0c0 3.8007507 -3.0388184 6.8818665 -6.7874146 6.8818665l0 0c-3.7485657 0 -6.787384 -3.0811157 -6.787384 -6.8818665z" fill-rule="evenodd"/><path stroke="#38761d" stroke-width="2.0" stroke-linejoin="round" stroke-linecap="butt" d="m315.48465 321.75635l0 0c0 -3.8007812 3.0388184 -6.881897 6.787384 -6.881897l0 0c1.8001404 0 3.5265503 0.7250366 4.7994385 2.0156555c1.2728577 1.2905884 1.9879761 3.0410461 1.9879761 4.8662415l0 0c0 3.8007507 -3.0388184 6.8818665 -6.7874146 6.8818665l0 0c-3.7485657 0 -6.787384 -3.0811157 -6.787384 -6.8818665z" fill-rule="evenodd"/><path fill="#38761d" d="m459.19717 263.5594l0 0c0 -3.8007812 3.0388184 -6.881897 6.787384 -6.881897l0 0c1.8001404 0 3.5265503 0.72506714 4.799408 2.0156555c1.2728882 1.2906189 1.9880066 3.0410461 1.9880066 4.8662415l0 0c0 3.8007507 -3.0388184 6.881897 -6.7874146 6.881897l0 0c-3.7485657 0 -6.787384 -3.0811462 -6.787384 -6.881897z" fill-rule="evenodd"/><path stroke="#38761d" stroke-width="2.0" stroke-linejoin="round" stroke-linecap="butt" d="m459.19717 263.5594l0 0c0 -3.8007812 3.0388184 -6.881897 6.787384 -6.881897l0 0c1.8001404 0 3.5265503 0.72506714 4.799408 2.0156555c1.2728882 1.2906189 1.9880066 3.0410461 1.9880066 4.8662415l0 0c0 3.8007507 -3.0388184 6.881897 -6.7874146 6.881897l0 0c-3.7485657 0 -6.787384 -3.0811462 -6.787384 -6.881897z" fill-rule="evenodd"/><path fill="#38761d" d="m199.68088 418.94534l0 0c0 -3.8007507 3.0388184 -6.881897 6.7873993 -6.881897l0 0c1.8001404 0 3.526535 0.72506714 4.799423 2.015686c1.2728882 1.2905884 1.9879761 3.0410156 1.9879761 4.866211l0 0c0 3.8007812 -3.0388184 6.881897 -6.7873993 6.881897l0 0c-3.748581 0 -6.7873993 -3.0811157 -6.7873993 -6.881897z" fill-rule="evenodd"/><path stroke="#38761d" stroke-width="2.0" stroke-linejoin="round" stroke-linecap="butt" d="m199.68088 418.94534l0 0c0 -3.8007507 3.0388184 -6.881897 6.7873993 -6.881897l0 0c1.8001404 0 3.526535 0.72506714 4.799423 2.015686c1.2728882 1.2905884 1.9879761 3.0410156 1.9879761 4.866211l0 0c0 3.8007812 -3.0388184 6.881897 -6.7873993 6.881897l0 0c-3.748581 0 -6.7873993 -3.0811157 -6.7873993 -6.881897z" fill-rule="evenodd"/><path fill="#38761d" d="m543.0102 331.43665l0 0c0 -3.8007812 3.0388184 -6.881897 6.7874146 -6.881897l0 0c1.8001099 0 3.5264893 0.72506714 4.7993774 2.0156555c1.2728882 1.2906189 1.9879761 3.0410461 1.9879761 4.8662415l0 0c0 3.8007507 -3.0388184 6.881897 -6.7873535 6.881897l0 0c-3.7485962 0 -6.7874146 -3.0811462 -6.7874146 -6.881897z" fill-rule="evenodd"/><path stroke="#38761d" stroke-width="2.0" stroke-linejoin="round" stroke-linecap="butt" d="m543.0102 331.43665l0 0c0 -3.8007812 3.0388184 -6.881897 6.7874146 -6.881897l0 0c1.8001099 0 3.5264893 0.72506714 4.7993774 2.0156555c1.2728882 1.2906189 1.9879761 3.0410461 1.9879761 4.8662415l0 0c0 3.8007507 -3.0388184 6.881897 -6.7873535 6.881897l0 0c-3.7485962 0 -6.7874146 -3.0811462 -6.7874146 -6.881897z" fill-rule="evenodd"/><path fill="#000000" fill-opacity="0.0" d="m634.17523 442.03653l49.51178 0l0 54.4252l-49.51178 0z" fill-rule="evenodd"/><path fill="#000000" d="m643.4721 489.43652l7.578125 -10.78125l-7.015625 -9.96875l4.390625 0l3.1875 4.875q0.90625 1.375 1.453125 2.3125q0.859375 -1.28125 1.578125 -2.28125l3.5 -4.90625l4.1875 0l-7.15625 9.765625l7.703125 10.984375l-4.3125 0l-4.25 -6.453125l-1.140625 -1.734375l-5.453125 8.1875l-4.25 0z" fill-rule="nonzero"/><path fill="#000000" fill-opacity="0.0" d="m36.11012 162.56026l49.511814 0l0 54.4252l-49.511814 0z" fill-rule="evenodd"/><path fill="#000000" d="m47.594494 217.94464l-0.390625 -3.296875q1.15625 0.3125 2.015625 0.3125q1.171875 0 1.875 -0.390625q0.703125 -0.390625 1.140625 -1.09375q0.34375 -0.53125 1.078125 -2.609375q0.09375 -0.296875 0.3125 -0.859375l-7.875 -20.796875l3.796875 0l4.3125 12.015625q0.84375 2.28125 1.5 4.8125q0.609375 -2.421875 1.453125 -4.734375l4.4375 -12.09375l3.5156288 0l-7.890629 21.109375q-1.28125 3.40625 -1.984375 4.703125q-0.9375 1.734375 -2.15625 2.546875q-1.203125 0.8125 -2.875 0.8125q-1.015625 0 -2.265625 -0.4375z" fill-rule="nonzero"/><path fill="#000000" fill-opacity="0.0" d="m72.12723 422.62173l524.31494 -260.31494" fill-rule="evenodd"/><path stroke="#0000ff" stroke-width="3.0" stroke-linejoin="round" stroke-linecap="butt" d="m72.12723 422.62173l524.31494 -260.31494" fill-rule="evenodd"/><path fill="#000000" fill-opacity="0.0" d="m641.7034 314.87402l202.74011 0l0 63.370056l-202.74011 0z" fill-rule="evenodd"/><path fill="#000000" d="m652.7972 346.914l0 -10.8125l-1.875 0l0 -1.640625l1.875 0l0 -1.3125q0 -1.265625 0.21875 -1.875q0.296875 -0.8125 1.0625 -1.3125q0.78125 -0.515625 2.15625 -0.515625q0.890625 0 1.96875 0.203125l-0.3125 1.84375q-0.65625 -0.125 -1.25 -0.125q-0.953125 0 -1.359375 0.421875q-0.390625 0.40625 -0.390625 1.53125l0 1.140625l2.421875 0l0 1.640625l-2.421875 0l0 10.8125l-2.09375 0z" fill-rule="nonzero"/><path fill="#000000" d="m659.96515 355.914l-2.546875 -8.296875l1.453125 0l1.328125 4.78125l0.484375 1.78125q0.03125 -0.125 0.4375 -1.703125l1.3125 -4.859375l1.453125 0l1.234375 4.8125l0.421875 1.578125l0.46875 -1.59375l1.421875 -4.796875l1.375 0l-2.59375 8.296875l-1.46875 0l-1.3125 -4.96875l-0.328125 -1.421875l-1.671875 6.390625l-1.46875 0z" fill-rule="nonzero"/><path fill="#000000" d="m674.53546 351.96088q-1.734375 -2.203125 -2.953125 -5.15625q-1.203125 -2.953125 -1.203125 -6.109375q0 -2.796875 0.90625 -5.34375q1.046875 -2.96875 3.25 -5.90625l1.515625 0q-1.421875 2.4375 -1.875 3.46875q-0.71875 1.625 -1.125 3.375q-0.5 2.203125 -0.5 4.40625q0 5.640625 3.5 11.265625l-1.515625 0zm2.5546875 -5.046875l4.546875 -6.46875l-4.203125 -5.984375l2.640625 0l1.90625 2.921875q0.546875 0.828125 0.875 1.390625q0.515625 -0.765625 0.9375 -1.359375l2.109375 -2.953125l2.515625 0l-4.296875 5.859375l4.625 6.59375l-2.59375 0l-2.546875 -3.875l-0.6875 -1.03125l-3.265625 4.90625l-2.5625 0zm14.796875 5.046875l-1.515625 0q3.5 -5.625 3.5 -11.265625q0 -2.203125 -0.5 -4.359375q-0.390625 -1.765625 -1.109375 -3.375q-0.453125 -1.0625 -1.890625 -3.515625l1.515625 0q2.203125 2.9375 3.25 5.90625q0.90625 2.546875 0.90625 5.34375q0 3.15625 -1.21875 6.109375q-1.203125 2.953125 -2.9375 5.15625zm24.378906 -15.15625l-11.34375 0l0 -1.96875l11.34375 0l0 1.96875zm0 5.21875l-11.34375 0l0 -1.96875l11.34375 0l0 1.96875zm11.871094 4.890625l-3.796875 -12.453125l2.171875 0l1.984375 7.1875l0.734375 2.671875q0.046875 -0.203125 0.640625 -2.5625l1.984375 -7.296875l2.171875 0l1.859375 7.21875l0.625 2.390625l0.71875 -2.40625l2.125 -7.203125l2.046875 0l-3.890625 12.453125l-2.1875 0l-1.984375 -7.453125l-0.46875 -2.125l-2.53125 9.578125l-2.203125 0z" fill-rule="nonzero"/><path fill="#000000" d="m742.2659 350.25775q0 -2.03125 0.40625 -3.265625q0.421875 -1.234375 1.25 -1.90625q0.828125 -0.671875 2.078125 -0.671875q0.921875 0 1.609375 0.375q0.703125 0.359375 1.15625 1.0625q0.453125 0.703125 0.703125 1.703125q0.265625 1.0 0.265625 2.703125q0 2.015625 -0.421875 3.265625q-0.40625 1.234375 -1.234375 1.921875q-0.828125 0.671875 -2.078125 0.671875q-1.65625 0 -2.609375 -1.203125q-1.125 -1.421875 -1.125 -4.65625zm1.4375 0q0 2.828125 0.65625 3.765625q0.671875 0.921875 1.640625 0.921875q0.96875 0 1.625 -0.9375q0.65625 -0.9375 0.65625 -3.75q0 -2.828125 -0.65625 -3.75q-0.65625 -0.9375 -1.640625 -0.9375q-0.96875 0 -1.546875 0.828125q-0.734375 1.046875 -0.734375 3.859375z" fill-rule="nonzero"/><path fill="#000000" d="m756.5081 344.13275l0 -4.703125l-4.671875 0l0 -1.96875l4.671875 0l0 -4.6875l1.984375 0l0 4.6875l4.6875 0l0 1.96875l-4.6875 0l0 4.703125l-1.984375 0zm11.875 2.78125l-3.796875 -12.453125l2.171875 0l1.984375 7.1875l0.734375 2.671875q0.046875 -0.203125 0.640625 -2.5625l1.984375 -7.296875l2.171875 0l1.859375 7.21875l0.625 2.390625l0.71875 -2.40625l2.125 -7.203125l2.046875 0l-3.890625 12.453125l-2.1875 0l-1.984375 -7.453125l-0.46875 -2.125l-2.53125 9.578125l-2.203125 0z" fill-rule="nonzero"/><path fill="#000000" d="m787.8089 355.914l-1.40625 0l0 -8.96875q-0.515625 0.484375 -1.34375 0.96875q-0.8125 0.484375 -1.46875 0.734375l0 -1.359375q1.171875 -0.5625 2.046875 -1.34375q0.890625 -0.796875 1.265625 -1.53125l0.90625 0l0 11.5z" fill-rule="nonzero"/><path fill="#000000" d="m790.91046 346.914l4.546875 -6.46875l-4.203125 -5.984375l2.640625 0l1.90625 2.921875q0.546875 0.828125 0.875 1.390625q0.515625 -0.765625 0.9375 -1.359375l2.109375 -2.953125l2.515625 0l-4.296875 5.859375l4.625 6.59375l-2.59375 0l-2.546875 -3.875l-0.6875 -1.03125l-3.265625 4.90625l-2.5625 0z" fill-rule="nonzero"/><path fill="#000000" fill-opacity="0.0" d="m673.1627 318.14172l-98.86615 -84.6929" fill-rule="evenodd"/><path stroke="#595959" stroke-width="2.0" stroke-linejoin="round" stroke-linecap="butt" d="m673.1627 318.14172l-89.75281 -76.88605" fill-rule="evenodd"/><path fill="#595959" stroke="#595959" stroke-width="2.0" stroke-linecap="butt" d="m585.5591 238.74689l-9.042053 -3.3959198l4.7437744 8.413513z" fill-rule="evenodd"/><path fill="#000000" fill-opacity="0.0" d="m101.301735 437.95923l477.79526 -295.9685" fill-rule="evenodd"/><path stroke="#0000ff" stroke-width="3.0" stroke-linejoin="round" stroke-linecap="butt" d="m101.301735 437.95923l477.79526 -295.9685" fill-rule="evenodd"/><path fill="#000000" fill-opacity="0.0" d="m102.76991 418.31537l521.3544 -206.07874" fill-rule="evenodd"/><path stroke="#0000ff" stroke-width="3.0" stroke-linejoin="round" stroke-linecap="butt" d="m102.76991 418.31537l521.3544 -206.07874" fill-rule="evenodd"/><path fill="#000000" fill-opacity="0.0" d="m81.45017 393.70947l550.92914 -194.07874" fill-rule="evenodd"/><path stroke="#0000ff" stroke-width="3.0" stroke-linejoin="round" stroke-linecap="butt" d="m81.45017 393.70947l550.92914 -194.07874" fill-rule="evenodd"/><path fill="#000000" fill-opacity="0.0" d="m672.3779 318.33072l-172.5669 -71.68504" fill-rule="evenodd"/><path stroke="#595959" stroke-width="2.0" stroke-linejoin="round" stroke-linecap="butt" d="m672.3779 318.33072l-161.48502 -67.08157" fill-rule="evenodd"/><path fill="#595959" stroke="#595959" stroke-width="2.0" stroke-linecap="butt" d="m512.1602 248.19841l-9.649078 -0.43110657l7.1144714 6.532547z" fill-rule="evenodd"/><path fill="#000000" fill-opacity="0.0" d="m670.4908 317.38583l-258.39368 -62.23622" fill-rule="evenodd"/><path stroke="#595959" stroke-width="2.0" stroke-linejoin="round" stroke-linecap="butt" d="m670.4908 317.38583l-246.7273 -59.4263" fill-rule="evenodd"/><path fill="#595959" stroke="#595959" stroke-width="2.0" stroke-linecap="butt" d="m424.53702 254.74792l-9.597382 1.086319l8.050293 5.3369293z" fill-rule="evenodd"/><path fill="#000000" fill-opacity="0.0" d="m671.43304 317.38583l-112.22046 -164.0945" fill-rule="evenodd"/><path stroke="#595959" stroke-width="2.0" stroke-linejoin="round" stroke-linecap="butt" d="m671.43304 317.38583l-105.44647 -154.18927" fill-rule="evenodd"/><path fill="#595959" stroke="#595959" stroke-width="2.0" stroke-linecap="butt" d="m568.7134 161.33177l-7.850281 -5.627014l2.3966675 9.356598z" fill-rule="evenodd"/><path fill="#000000" fill-opacity="0.0" d="m556.5853 381.04987l364.9449 0l0 45.13385l-364.9449 0z" fill-rule="evenodd"/><path fill="#000000" d="m567.22595 410.52988l0 -15.265625l5.265625 0q1.78125 0 2.71875 0.21875q1.3125 0.296875 2.234375 1.09375q1.203125 1.015625 1.796875 2.609375q0.609375 1.578125 0.609375 3.625q0 1.734375 -0.40625 3.078125q-0.40625 1.34375 -1.046875 2.234375q-0.625 0.875 -1.390625 1.390625q-0.75 0.5 -1.8125 0.765625q-1.0625 0.25 -2.453125 0.25l-5.515625 0zm2.03125 -1.796875l3.25 0q1.515625 0 2.375 -0.28125q0.859375 -0.28125 1.375 -0.796875q0.703125 -0.71875 1.109375 -1.921875q0.40625 -1.21875 0.40625 -2.953125q0 -2.390625 -0.796875 -3.671875q-0.78125 -1.296875 -1.90625 -1.734375q-0.8125 -0.3125 -2.609375 -0.3125l-3.203125 0l0 11.671875zm13.152466 -11.3125l0 -2.15625l1.875 0l0 2.15625l-1.875 0zm0 13.109375l0 -11.0625l1.875 0l0 11.0625l-1.875 0zm5.1759644 0l0 -9.609375l-1.65625 0l0 -1.453125l1.65625 0l0 -1.171875q0 -1.109375 0.1875 -1.65625q0.28125 -0.734375 0.953125 -1.1875q0.6875 -0.453125 1.921875 -0.453125q0.78125 0 1.75 0.1875l-0.28125 1.640625q-0.59375 -0.109375 -1.109375 -0.109375q-0.859375 0 -1.21875 0.375q-0.34375 0.359375 -0.34375 1.359375l0 1.015625l2.15625 0l0 1.453125l-2.15625 0l0 9.609375l-1.859375 0zm5.540222 0l0 -9.609375l-1.65625 0l0 -1.453125l1.65625 0l0 -1.171875q0 -1.109375 0.1875 -1.65625q0.28125 -0.734375 0.953125 -1.1875q0.6875 -0.453125 1.921875 -0.453125q0.78125 0 1.75 0.1875l-0.28125 1.640625q-0.59375 -0.109375 -1.109375 -0.109375q-0.859375 0 -1.21875 0.375q-0.34375 0.359375 -0.34375 1.359375l0 1.015625l2.15625 0l0 1.453125l-2.15625 0l0 9.609375l-1.859375 0zm13.050598 -3.5625l1.921875 0.234375q-0.453125 1.703125 -1.6875 2.640625q-1.234375 0.9375 -3.171875 0.9375q-2.421875 0 -3.84375 -1.484375q-1.421875 -1.5 -1.421875 -4.203125q0 -2.796875 1.4375 -4.328125q1.4375 -1.546875 3.734375 -1.546875q2.21875 0 3.609375 1.515625q1.40625 1.5 1.40625 4.25q0 0.15625 0 0.5l-8.25 0q0.109375 1.8125 1.03125 2.78125q0.921875 0.96875 2.3125 0.96875q1.03125 0 1.75 -0.53125q0.734375 -0.546875 1.171875 -1.734375zm-6.15625 -3.03125l6.171875 0q-0.125 -1.390625 -0.703125 -2.09375q-0.90625 -1.078125 -2.328125 -1.078125q-1.296875 0 -2.171875 0.859375q-0.875 0.859375 -0.96875 2.3125zm10.424194 6.59375l0 -11.0625l1.6875 0l0 1.671875q0.640625 -1.171875 1.1875 -1.546875q0.546875 -0.375 1.203125 -0.375q0.953125 0 1.921875 0.609375l-0.640625 1.734375q-0.6875 -0.40625 -1.375 -0.40625q-0.609375 0 -1.109375 0.375q-0.484375 0.359375 -0.6875 1.015625q-0.3125 1.0 -0.3125 2.1875l0 5.796875l-1.875 0zm14.696228 -3.5625l1.921875 0.234375q-0.453125 1.703125 -1.6875 2.640625q-1.234375 0.9375 -3.171875 0.9375q-2.421875 0 -3.84375 -1.484375q-1.421875 -1.5 -1.421875 -4.203125q0 -2.796875 1.4375 -4.328125q1.4375 -1.546875 3.734375 -1.546875q2.21875 0 3.609375 1.515625q1.40625 1.5 1.40625 4.25q0 0.15625 0 0.5l-8.25 0q0.109375 1.8125 1.03125 2.78125q0.921875 0.96875 2.3125 0.96875q1.03125 0 1.75 -0.53125q0.734375 -0.546875 1.171875 -1.734375zm-6.15625 -3.03125l6.171875 0q-0.125 -1.390625 -0.703125 -2.09375q-0.90625 -1.078125 -2.328125 -1.078125q-1.296875 0 -2.171875 0.859375q-0.875 0.859375 -0.96875 2.3125zm10.439819 6.59375l0 -11.0625l1.6875 0l0 1.578125q1.21875 -1.828125 3.515625 -1.828125q1.0 0 1.84375 0.359375q0.84375 0.359375 1.25 0.953125q0.421875 0.578125 0.59375 1.375q0.09375 0.515625 0.09375 1.828125l0 6.796875l-1.875 0l0 -6.734375q0 -1.140625 -0.21875 -1.703125q-0.21875 -0.578125 -0.78125 -0.90625q-0.546875 -0.34375 -1.296875 -0.34375q-1.203125 0 -2.078125 0.765625q-0.859375 0.75 -0.859375 2.875l0 6.046875l-1.875 0zm15.955444 -1.671875l0.265625 1.65625q-0.78125 0.15625 -1.40625 0.15625q-1.03125 0 -1.59375 -0.3125q-0.5625 -0.328125 -0.796875 -0.84375q-0.21875 -0.53125 -0.21875 -2.21875l0 -6.375l-1.375 0l0 -1.453125l1.375 0l0 -2.734375l1.859375 -1.125l0 3.859375l1.890625 0l0 1.453125l-1.890625 0l0 6.46875q0 0.8125 0.09375 1.046875q0.109375 0.21875 0.328125 0.359375q0.234375 0.125 0.640625 0.125q0.3125 0 0.828125 -0.0625zm7.7575073 5.90625l0 -15.296875l1.703125 0l0 1.4375q0.609375 -0.84375 1.359375 -1.265625q0.765625 -0.421875 1.859375 -0.421875q1.40625 0 2.484375 0.734375q1.09375 0.71875 1.640625 2.046875q0.546875 1.328125 0.546875 2.921875q0 1.6875 -0.609375 3.046875q-0.59375 1.359375 -1.765625 2.09375q-1.15625 0.71875 -2.4375 0.71875q-0.9375 0 -1.6875 -0.390625q-0.734375 -0.40625 -1.21875 -1.0l0 5.375l-1.875 0zm1.703125 -9.703125q0 2.140625 0.859375 3.15625q0.859375 1.015625 2.09375 1.015625q1.25 0 2.140625 -1.046875q0.890625 -1.0625 0.890625 -3.28125q0 -2.109375 -0.875 -3.15625q-0.859375 -1.0625 -2.078125 -1.0625q-1.1875 0 -2.109375 1.125q-0.921875 1.109375 -0.921875 3.25zm17.37732 4.109375q-1.046875 0.875 -2.015625 1.25q-0.953125 0.359375 -2.0625 0.359375q-1.8125 0 -2.796875 -0.890625q-0.984375 -0.890625 -0.984375 -2.28125q0 -0.8125 0.375 -1.484375q0.375 -0.671875 0.96875 -1.078125q0.59375 -0.40625 1.34375 -0.609375q0.5625 -0.140625 1.671875 -0.28125q2.265625 -0.265625 3.34375 -0.640625q0.015625 -0.390625 0.015625 -0.5q0 -1.140625 -0.53125 -1.609375q-0.71875 -0.640625 -2.140625 -0.640625q-1.328125 0 -1.953125 0.46875q-0.625 0.46875 -0.9375 1.640625l-1.828125 -0.25q0.25 -1.171875 0.8125 -1.890625q0.578125 -0.734375 1.65625 -1.125q1.09375 -0.390625 2.515625 -0.390625q1.421875 0 2.296875 0.34375q0.890625 0.328125 1.3125 0.828125q0.421875 0.5 0.578125 1.28125q0.09375 0.46875 0.09375 1.71875l0 2.5q0 2.625 0.125 3.3125q0.125 0.6875 0.46875 1.328125l-1.953125 0q-0.296875 -0.578125 -0.375 -1.359375zm-0.15625 -4.1875q-1.015625 0.40625 -3.0625 0.703125q-1.15625 0.171875 -1.640625 0.375q-0.46875 0.203125 -0.734375 0.609375q-0.265625 0.40625 -0.265625 0.890625q0 0.75 0.5625 1.25q0.578125 0.5 1.671875 0.5q1.078125 0 1.921875 -0.46875q0.84375 -0.484375 1.25 -1.296875q0.296875 -0.640625 0.296875 -1.875l0 -0.6875zm4.7835693 5.546875l0 -11.0625l1.6875 0l0 1.671875q0.640625 -1.171875 1.1875 -1.546875q0.546875 -0.375 1.203125 -0.375q0.953125 0 1.921875 0.609375l-0.640625 1.734375q-0.6875 -0.40625 -1.375 -0.40625q-0.609375 0 -1.109375 0.375q-0.484375 0.359375 -0.6875 1.015625q-0.3125 1.0 -0.3125 2.1875l0 5.796875l-1.875 0zm14.336792 -1.359375q-1.046875 0.875 -2.015625 1.25q-0.953125 0.359375 -2.0625 0.359375q-1.8125 0 -2.796875 -0.890625q-0.984375 -0.890625 -0.984375 -2.28125q0 -0.8125 0.375 -1.484375q0.375 -0.671875 0.96875 -1.078125q0.59375 -0.40625 1.34375 -0.609375q0.5625 -0.140625 1.671875 -0.28125q2.265625 -0.265625 3.34375 -0.640625q0.015625 -0.390625 0.015625 -0.5q0 -1.140625 -0.53125 -1.609375q-0.71875 -0.640625 -2.140625 -0.640625q-1.328125 0 -1.953125 0.46875q-0.625 0.46875 -0.9375 1.640625l-1.828125 -0.25q0.25 -1.171875 0.8125 -1.890625q0.578125 -0.734375 1.65625 -1.125q1.09375 -0.390625 2.515625 -0.390625q1.421875 0 2.296875 0.34375q0.890625 0.328125 1.3125 0.828125q0.421875 0.5 0.578125 1.28125q0.09375 0.46875 0.09375 1.71875l0 2.5q0 2.625 0.125 3.3125q0.125 0.6875 0.46875 1.328125l-1.953125 0q-0.296875 -0.578125 -0.375 -1.359375zm-0.15625 -4.1875q-1.015625 0.40625 -3.0625 0.703125q-1.15625 0.171875 -1.640625 0.375q-0.46875 0.203125 -0.734375 0.609375q-0.265625 0.40625 -0.265625 0.890625q0 0.75 0.5625 1.25q0.578125 0.5 1.671875 0.5q1.078125 0 1.921875 -0.46875q0.84375 -0.484375 1.25 -1.296875q0.296875 -0.640625 0.296875 -1.875l0 -0.6875zm4.7991943 5.546875l0 -11.0625l1.671875 0l0 1.546875q0.53125 -0.8125 1.390625 -1.296875q0.859375 -0.5 1.96875 -0.5q1.234375 0 2.015625 0.515625q0.78125 0.5 1.109375 1.421875q1.3125 -1.9375 3.40625 -1.9375q1.65625 0 2.53125 0.921875q0.890625 0.90625 0.890625 2.796875l0 7.59375l-1.859375 0l0 -6.96875q0 -1.125 -0.1875 -1.609375q-0.1875 -0.5 -0.671875 -0.796875q-0.46875 -0.3125 -1.109375 -0.3125q-1.171875 0 -1.9375 0.78125q-0.765625 0.765625 -0.765625 2.484375l0 6.421875l-1.875 0l0 -7.1875q0 -1.25 -0.46875 -1.875q-0.453125 -0.625 -1.5 -0.625q-0.78125 0 -1.453125 0.421875q-0.671875 0.40625 -0.984375 1.21875q-0.296875 0.796875 -0.296875 2.3125l0 5.734375l-1.875 0zm25.344666 -3.5625l1.921875 0.234375q-0.453125 1.703125 -1.6875 2.640625q-1.234375 0.9375 -3.171875 0.9375q-2.421875 0 -3.84375 -1.484375q-1.421875 -1.5 -1.421875 -4.203125q0 -2.796875 1.4375 -4.328125q1.4375 -1.546875 3.734375 -1.546875q2.21875 0 3.609375 1.515625q1.40625 1.5 1.40625 4.25q0 0.15625 0 0.5l-8.25 0q0.109375 1.8125 1.03125 2.78125q0.921875 0.96875 2.3125 0.96875q1.03125 0 1.75 -0.53125q0.734375 -0.546875 1.171875 -1.734375zm-6.15625 -3.03125l6.171875 0q-0.125 -1.390625 -0.703125 -2.09375q-0.90625 -1.078125 -2.328125 -1.078125q-1.296875 0 -2.171875 0.859375q-0.875 0.859375 -0.96875 2.3125zm14.533569 4.921875l0.265625 1.65625q-0.78125 0.15625 -1.40625 0.15625q-1.03125 0 -1.59375 -0.3125q-0.5625 -0.328125 -0.796875 -0.84375q-0.21875 -0.53125 -0.21875 -2.21875l0 -6.375l-1.375 0l0 -1.453125l1.375 0l0 -2.734375l1.859375 -1.125l0 3.859375l1.890625 0l0 1.453125l-1.890625 0l0 6.46875q0 0.8125 0.09375 1.046875q0.109375 0.21875 0.328125 0.359375q0.234375 0.125 0.640625 0.125q0.3125 0 0.828125 -0.0625zm9.409973 -1.890625l1.921875 0.234375q-0.453125 1.703125 -1.6875 2.640625q-1.234375 0.9375 -3.171875 0.9375q-2.421875 0 -3.84375 -1.484375q-1.421875 -1.5 -1.421875 -4.203125q0 -2.796875 1.4375 -4.328125q1.4375 -1.546875 3.734375 -1.546875q2.21875 0 3.609375 1.515625q1.40625 1.5 1.40625 4.25q0 0.15625 0 0.5l-8.25 0q0.109375 1.8125 1.03125 2.78125q0.921875 0.96875 2.3125 0.96875q1.03125 0 1.75 -0.53125q0.734375 -0.546875 1.171875 -1.734375zm-6.15625 -3.03125l6.171875 0q-0.125 -1.390625 -0.703125 -2.09375q-0.90625 -1.078125 -2.328125 -1.078125q-1.296875 0 -2.171875 0.859375q-0.875 0.859375 -0.96875 2.3125zm10.424194 6.59375l0 -11.0625l1.6875 0l0 1.671875q0.640625 -1.171875 1.1875 -1.546875q0.546875 -0.375 1.203125 -0.375q0.953125 0 1.921875 0.609375l-0.640625 1.734375q-0.6875 -0.40625 -1.375 -0.40625q-0.609375 0 -1.109375 0.375q-0.484375 0.359375 -0.6875 1.015625q-0.3125 1.0 -0.3125 2.1875l0 5.796875l-1.875 0zm6.368103 -3.296875l1.859375 -0.296875q0.15625 1.109375 0.859375 1.703125q0.71875 0.59375 2.0 0.59375q1.296875 0 1.921875 -0.515625q0.625 -0.53125 0.625 -1.234375q0 -0.640625 -0.5625 -1.0q-0.375 -0.25 -1.90625 -0.640625q-2.0625 -0.515625 -2.859375 -0.890625q-0.796875 -0.390625 -1.21875 -1.0625q-0.40625 -0.671875 -0.40625 -1.484375q0 -0.734375 0.328125 -1.359375q0.34375 -0.640625 0.9375 -1.0625q0.4375 -0.3125 1.1875 -0.53125q0.75 -0.234375 1.625 -0.234375q1.296875 0 2.28125 0.375q0.984375 0.375 1.453125 1.015625q0.46875 0.640625 0.640625 1.71875l-1.828125 0.25q-0.125 -0.859375 -0.734375 -1.328125q-0.59375 -0.484375 -1.6875 -0.484375q-1.28125 0 -1.84375 0.421875q-0.546875 0.421875 -0.546875 1.0q0 0.359375 0.234375 0.65625q0.21875 0.296875 0.71875 0.5q0.28125 0.109375 1.65625 0.484375q1.984375 0.53125 2.765625 0.875q0.796875 0.328125 1.234375 0.984375q0.453125 0.640625 0.453125 1.59375q0 0.9375 -0.546875 1.765625q-0.546875 0.828125 -1.578125 1.28125q-1.03125 0.453125 -2.328125 0.453125q-2.15625 0 -3.296875 -0.890625q-1.125 -0.90625 -1.4375 -2.65625zm16.636536 -2.234375q0 -3.078125 1.71875 -4.546875q1.421875 -1.234375 3.46875 -1.234375q2.28125 0 3.71875 1.5q1.453125 1.484375 1.453125 4.125q0 2.140625 -0.640625 3.359375q-0.625 1.21875 -1.859375 1.90625q-1.21875 0.671875 -2.671875 0.671875q-2.3125 0 -3.75 -1.484375q-1.4375 -1.5 -1.4375 -4.296875zm1.9375 0q0 2.125 0.921875 3.1875q0.921875 1.046875 2.328125 1.046875q1.40625 0 2.328125 -1.0625q0.921875 -1.0625 0.921875 -3.234375q0 -2.046875 -0.9375 -3.109375q-0.921875 -1.0625 -2.3125 -1.0625q-1.40625 0 -2.328125 1.0625q-0.921875 1.046875 -0.921875 3.171875zm11.080444 5.53125l0 -9.609375l-1.65625 0l0 -1.453125l1.65625 0l0 -1.171875q0 -1.109375 0.1875 -1.65625q0.28125 -0.734375 0.953125 -1.1875q0.6875 -0.453125 1.921875 -0.453125q0.78125 0 1.75 0.1875l-0.28125 1.640625q-0.59375 -0.109375 -1.109375 -0.109375q-0.859375 0 -1.21875 0.375q-0.34375 0.359375 -0.34375 1.359375l0 1.015625l2.15625 0l0 1.453125l-2.15625 0l0 9.609375l-1.859375 0z" fill-rule="nonzero"/><path fill="#000000" d="m792.0516 410.52988l-1.15625 -11.0625l1.8125 0l0.5 4.96875l0.203125 2.796875q0.015625 0.3125 0.0625 1.25q0.3125 -1.0625 0.53125 -1.625q0.21875 -0.5625 0.6875 -1.625l2.640625 -5.765625l2.046875 0l0.375 5.53125q0.078125 1.265625 0.09375 3.359375q0.515625 -1.390625 1.703125 -3.875l2.375 -5.015625l1.875 0l-5.40625 11.0625l-1.953125 0l-0.40625 -6.484375q-0.046875 -0.609375 -0.0625 -2.359375q-0.4375 1.109375 -1.015625 2.40625l-2.921875 6.4375l-1.984375 0z" fill-rule="nonzero"/><path fill="#000000" d="m811.6297 411.45175l1.828125 0.265625q0.109375 0.84375 0.625 1.234375q0.703125 0.515625 1.90625 0.515625q1.3125 0 2.015625 -0.53125q0.703125 -0.515625 0.953125 -1.453125q0.15625 -0.5625 0.140625 -2.40625q-1.234375 1.453125 -3.0625 1.453125q-2.28125 0 -3.53125 -1.640625q-1.25 -1.65625 -1.25 -3.953125q0 -1.578125 0.5625 -2.921875q0.578125 -1.34375 1.671875 -2.0625q1.09375 -0.734375 2.5625 -0.734375q1.953125 0 3.21875 1.578125l0 -1.328125l1.734375 0l0 9.5625q0 2.578125 -0.53125 3.65625q-0.515625 1.078125 -1.65625 1.703125q-1.140625 0.625 -2.8125 0.625q-1.984375 0 -3.203125 -0.890625q-1.21875 -0.890625 -1.171875 -2.671875zm1.546875 -6.65625q0 2.1875 0.859375 3.1875q0.875 1.0 2.171875 1.0q1.296875 0 2.171875 -1.0q0.875 -1.0 0.875 -3.125q0 -2.03125 -0.90625 -3.0625q-0.890625 -1.03125 -2.171875 -1.03125q-1.25 0 -2.125 1.015625q-0.875 1.015625 -0.875 3.015625zm10.674194 -7.375l0 -2.15625l1.875 0l0 2.15625l-1.875 0zm0 13.109375l0 -11.0625l1.875 0l0 11.0625l-1.875 0zm7.8009644 0l-4.21875 -11.0625l1.984375 0l2.375 6.625q0.390625 1.078125 0.703125 2.234375q0.25 -0.875 0.703125 -2.109375l2.453125 -6.75l1.9375 0l-4.1875 11.0625l-1.75 0zm15.1640625 -3.5625l1.921875 0.234375q-0.453125 1.703125 -1.6875 2.640625q-1.234375 0.9375 -3.171875 0.9375q-2.421875 0 -3.84375 -1.484375q-1.421875 -1.5 -1.421875 -4.203125q0 -2.796875 1.4375 -4.328125q1.4375 -1.546875 3.734375 -1.546875q2.21875 0 3.609375 1.515625q1.40625 1.5 1.40625 4.25q0 0.15625 0 0.5l-8.25 0q0.109375 1.8125 1.03125 2.78125q0.921875 0.96875 2.3125 0.96875q1.03125 0 1.75 -0.53125q0.734375 -0.546875 1.171875 -1.734375zm-6.15625 -3.03125l6.171875 0q-0.125 -1.390625 -0.703125 -2.09375q-0.90625 -1.078125 -2.328125 -1.078125q-1.296875 0 -2.171875 0.859375q-0.875 0.859375 -0.96875 2.3125zm9.689819 3.296875l1.859375 -0.296875q0.15625 1.109375 0.859375 1.703125q0.71875 0.59375 2.0 0.59375q1.296875 0 1.921875 -0.515625q0.625 -0.53125 0.625 -1.234375q0 -0.640625 -0.5625 -1.0q-0.375 -0.25 -1.90625 -0.640625q-2.0625 -0.515625 -2.859375 -0.890625q-0.796875 -0.390625 -1.21875 -1.0625q-0.40625 -0.671875 -0.40625 -1.484375q0 -0.734375 0.328125 -1.359375q0.34375 -0.640625 0.9375 -1.0625q0.4375 -0.3125 1.1875 -0.53125q0.75 -0.234375 1.625 -0.234375q1.296875 0 2.28125 0.375q0.984375 0.375 1.453125 1.015625q0.46875 0.640625 0.640625 1.71875l-1.828125 0.25q-0.125 -0.859375 -0.734375 -1.328125q-0.59375 -0.484375 -1.6875 -0.484375q-1.28125 0 -1.84375 0.421875q-0.546875 0.421875 -0.546875 1.0q0 0.359375 0.234375 0.65625q0.21875 0.296875 0.71875 0.5q0.28125 0.109375 1.65625 0.484375q1.984375 0.53125 2.765625 0.875q0.796875 0.328125 1.234375 0.984375q0.453125 0.640625 0.453125 1.59375q0 0.9375 -0.546875 1.765625q-0.546875 0.828125 -1.578125 1.28125q-1.03125 0.453125 -2.328125 0.453125q-2.15625 0 -3.296875 -0.890625q-1.125 -0.90625 -1.4375 -2.65625zm24.558472 1.9375q-1.046875 0.875 -2.015625 1.25q-0.953125 0.359375 -2.0625 0.359375q-1.8125 0 -2.796875 -0.890625q-0.984375 -0.890625 -0.984375 -2.28125q0 -0.8125 0.375 -1.484375q0.375 -0.671875 0.96875 -1.078125q0.59375 -0.40625 1.34375 -0.609375q0.5625 -0.140625 1.671875 -0.28125q2.265625 -0.265625 3.34375 -0.640625q0.015625 -0.390625 0.015625 -0.5q0 -1.140625 -0.53125 -1.609375q-0.71875 -0.640625 -2.140625 -0.640625q-1.328125 0 -1.953125 0.46875q-0.625 0.46875 -0.9375 1.640625l-1.828125 -0.25q0.25 -1.171875 0.8125 -1.890625q0.578125 -0.734375 1.65625 -1.125q1.09375 -0.390625 2.515625 -0.390625q1.421875 0 2.296875 0.34375q0.890625 0.328125 1.3125 0.828125q0.421875 0.5 0.578125 1.28125q0.09375 0.46875 0.09375 1.71875l0 2.5q0 2.625 0.125 3.3125q0.125 0.6875 0.46875 1.328125l-1.953125 0q-0.296875 -0.578125 -0.375 -1.359375zm-0.15625 -4.1875q-1.015625 0.40625 -3.0625 0.703125q-1.15625 0.171875 -1.640625 0.375q-0.46875 0.203125 -0.734375 0.609375q-0.265625 0.40625 -0.265625 0.890625q0 0.75 0.5625 1.25q0.578125 0.5 1.671875 0.5q1.078125 0 1.921875 -0.46875q0.84375 -0.484375 1.25 -1.296875q0.296875 -0.640625 0.296875 -1.875l0 -0.6875z" fill-rule="nonzero"/><path fill="#000000" d="m574.16345 436.52988l0 -1.390625q-1.046875 1.640625 -3.09375 1.640625q-1.3125 0 -2.421875 -0.71875q-1.109375 -0.734375 -1.71875 -2.046875q-0.609375 -1.3125 -0.609375 -3.0q0 -1.65625 0.546875 -3.0q0.546875 -1.359375 1.65625 -2.078125q1.109375 -0.71875 2.46875 -0.71875q1.0 0 1.78125 0.421875q0.78125 0.421875 1.265625 1.09375l0 -5.46875l1.875 0l0 15.265625l-1.75 0zm-5.921875 -5.515625q0 2.125 0.890625 3.171875q0.90625 1.046875 2.125 1.046875q1.21875 0 2.078125 -1.0q0.859375 -1.0 0.859375 -3.0625q0 -2.28125 -0.875 -3.34375q-0.875 -1.0625 -2.15625 -1.0625q-1.25 0 -2.09375 1.03125q-0.828125 1.015625 -0.828125 3.21875zm10.627319 -7.59375l0 -2.15625l1.875 0l0 2.15625l-1.875 0zm0 13.109375l0 -11.0625l1.875 0l0 11.0625l-1.875 0zm5.1759033 0l0 -9.609375l-1.65625 0l0 -1.453125l1.65625 0l0 -1.171875q0 -1.109375 0.1875 -1.65625q0.28125 -0.734375 0.953125 -1.1875q0.6875 -0.453125 1.921875 -0.453125q0.78125 0 1.75 0.1875l-0.28125 1.640625q-0.59375 -0.109375 -1.109375 -0.109375q-0.859375 0 -1.21875 0.375q-0.34375 0.359375 -0.34375 1.359375l0 1.015625l2.15625 0l0 1.453125l-2.15625 0l0 9.609375l-1.859375 0zm5.540222 0l0 -9.609375l-1.65625 0l0 -1.453125l1.65625 0l0 -1.171875q0 -1.109375 0.1875 -1.65625q0.28125 -0.734375 0.953125 -1.1875q0.6875 -0.453125 1.921875 -0.453125q0.78125 0 1.75 0.1875l-0.28125 1.640625q-0.59375 -0.109375 -1.109375 -0.109375q-0.859375 0 -1.21875 0.375q-0.34375 0.359375 -0.34375 1.359375l0 1.015625l2.15625 0l0 1.453125l-2.15625 0l0 9.609375l-1.859375 0zm13.050659 -3.5625l1.921875 0.234375q-0.453125 1.703125 -1.6875 2.640625q-1.234375 0.9375 -3.171875 0.9375q-2.421875 0 -3.84375 -1.484375q-1.421875 -1.5 -1.421875 -4.203125q0 -2.796875 1.4375 -4.328125q1.4375 -1.546875 3.734375 -1.546875q2.21875 0 3.609375 1.515625q1.40625 1.5 1.40625 4.25q0 0.15625 0 0.5l-8.25 0q0.109375 1.8125 1.03125 2.78125q0.921875 0.96875 2.3125 0.96875q1.03125 0 1.75 -0.53125q0.734375 -0.546875 1.171875 -1.734375zm-6.15625 -3.03125l6.171875 0q-0.125 -1.390625 -0.703125 -2.09375q-0.90625 -1.078125 -2.328125 -1.078125q-1.296875 0 -2.171875 0.859375q-0.875 0.859375 -0.96875 2.3125zm10.424194 6.59375l0 -11.0625l1.6875 0l0 1.671875q0.640625 -1.171875 1.1875 -1.546875q0.546875 -0.375 1.203125 -0.375q0.953125 0 1.921875 0.609375l-0.640625 1.734375q-0.6875 -0.40625 -1.375 -0.40625q-0.609375 0 -1.109375 0.375q-0.484375 0.359375 -0.6875 1.015625q-0.3125 1.0 -0.3125 2.1875l0 5.796875l-1.875 0zm14.696167 -3.5625l1.921875 0.234375q-0.453125 1.703125 -1.6875 2.640625q-1.234375 0.9375 -3.171875 0.9375q-2.421875 0 -3.84375 -1.484375q-1.421875 -1.5 -1.421875 -4.203125q0 -2.796875 1.4375 -4.328125q1.4375 -1.546875 3.734375 -1.546875q2.21875 0 3.609375 1.515625q1.40625 1.5 1.40625 4.25q0 0.15625 0 0.5l-8.25 0q0.109375 1.8125 1.03125 2.78125q0.921875 0.96875 2.3125 0.96875q1.03125 0 1.75 -0.53125q0.734375 -0.546875 1.171875 -1.734375zm-6.15625 -3.03125l6.171875 0q-0.125 -1.390625 -0.703125 -2.09375q-0.90625 -1.078125 -2.328125 -1.078125q-1.296875 0 -2.171875 0.859375q-0.875 0.859375 -0.96875 2.3125zm10.439819 6.59375l0 -11.0625l1.6875 0l0 1.578125q1.21875 -1.828125 3.515625 -1.828125q1.0 0 1.84375 0.359375q0.84375 0.359375 1.25 0.953125q0.421875 0.578125 0.59375 1.375q0.09375 0.515625 0.09375 1.828125l0 6.796875l-1.875 0l0 -6.734375q0 -1.140625 -0.21875 -1.703125q-0.21875 -0.578125 -0.78125 -0.90625q-0.546875 -0.34375 -1.296875 -0.34375q-1.203125 0 -2.078125 0.765625q-0.859375 0.75 -0.859375 2.875l0 6.046875l-1.875 0zm15.955444 -1.671875l0.265625 1.65625q-0.78125 0.15625 -1.40625 0.15625q-1.03125 0 -1.59375 -0.3125q-0.5625 -0.328125 -0.796875 -0.84375q-0.21875 -0.53125 -0.21875 -2.21875l0 -6.375l-1.375 0l0 -1.453125l1.375 0l0 -2.734375l1.859375 -1.125l0 3.859375l1.890625 0l0 1.453125l-1.890625 0l0 6.46875q0 0.8125 0.09375 1.046875q0.109375 0.21875 0.328125 0.359375q0.234375 0.125 0.640625 0.125q0.3125 0 0.828125 -0.0625zm7.7106934 1.671875l0 -15.265625l1.875 0l0 15.265625l-1.875 0zm4.8009033 -13.109375l0 -2.15625l1.875 0l0 2.15625l-1.875 0zm0 13.109375l0 -11.0625l1.875 0l0 11.0625l-1.875 0zm4.7228394 0l0 -11.0625l1.6875 0l0 1.578125q1.21875 -1.828125 3.515625 -1.828125q1.0 0 1.84375 0.359375q0.84375 0.359375 1.25 0.953125q0.421875 0.578125 0.59375 1.375q0.09375 0.515625 0.09375 1.828125l0 6.796875l-1.875 0l0 -6.734375q0 -1.140625 -0.21875 -1.703125q-0.21875 -0.578125 -0.78125 -0.90625q-0.546875 -0.34375 -1.296875 -0.34375q-1.203125 0 -2.078125 0.765625q-0.859375 0.75 -0.859375 2.875l0 6.046875l-1.875 0zm19.43982 -3.5625l1.921875 0.234375q-0.453125 1.703125 -1.6875 2.640625q-1.234375 0.9375 -3.171875 0.9375q-2.421875 0 -3.84375 -1.484375q-1.421875 -1.5 -1.421875 -4.203125q0 -2.796875 1.4375 -4.328125q1.4375 -1.546875 3.734375 -1.546875q2.21875 0 3.609375 1.515625q1.40625 1.5 1.40625 4.25q0 0.15625 0 0.5l-8.25 0q0.109375 1.8125 1.03125 2.78125q0.921875 0.96875 2.3125 0.96875q1.03125 0 1.75 -0.53125q0.734375 -0.546875 1.171875 -1.734375zm-6.15625 -3.03125l6.171875 0q-0.125 -1.390625 -0.703125 -2.09375q-0.90625 -1.078125 -2.328125 -1.078125q-1.296875 0 -2.171875 0.859375q-0.875 0.859375 -0.96875 2.3125z" fill-rule="nonzero"/></g></svg>