<svg class="marks" width="981" height="366" viewBox="0 0 981 366" version="1.1" xmlns="http://www.w3.org/2000/svg" xmlns:xlink="http://www.w3.org/1999/xlink"><rect width="981" height="366" style="fill: white;"></rect><defs><clipPath id="clip1"><rect x="0" y="0" width="400" height="300"></rect></clipPath></defs><g transform="translate(46,28)"><g class="mark-group role-frame root"><g transform="translate(0,0)"><path class="background" d="M0,0h0v300h0Z" style="fill: none;"></path><g><g class="mark-group role-scope concat_0_group"><g transform="translate(0,0)"><path class="background" d="M0.5,0.5h400v300h-400Z" style="fill: none; stroke: #ddd;"></path><g><g class="mark-group role-axis"><g transform="translate(0.5,300.5)"><path class="background" d="M0,0h0v0h0Z" style="pointer-events: none; fill: none;"></path><g><g class="mark-rule role-axis-grid" style="pointer-events: none;"><line transform="translate(0,-300)" x2="0" y2="300" style="fill: none; stroke: #ddd; stroke-width: 1; opacity: 1;"></line><line transform="translate(40,-300)" x2="0" y2="300" style="fill: none; stroke: #ddd; stroke-width: 1; opacity: 1;"></line><line transform="translate(80,-300)" x2="0" y2="300" style="fill: none; stroke: #ddd; stroke-width: 1; opacity: 1;"></line><line transform="translate(120,-300)" x2="0" y2="300" style="fill: none; stroke: #ddd; stroke-width: 1; opacity: 1;"></line><line transform="translate(160,-300)" x2="0" y2="300" style="fill: none; stroke: #ddd; stroke-width: 1; opacity: 1;"></line><line transform="translate(200,-300)" x2="0" y2="300" style="fill: none; stroke: #ddd; stroke-width: 1; opacity: 1;"></line><line transform="translate(240,-300)" x2="0" y2="300" style="fill: none; stroke: #ddd; stroke-width: 1; opacity: 1;"></line><line transform="translate(280,-300)" x2="0" y2="300" style="fill: none; stroke: #ddd; stroke-width: 1; opacity: 1;"></line><line transform="translate(320,-300)" x2="0" y2="300" style="fill: none; stroke: #ddd; stroke-width: 1; opacity: 1;"></line><line transform="translate(360,-300)" x2="0" y2="300" style="fill: none; stroke: #ddd; stroke-width: 1; opacity: 1;"></line><line transform="translate(400,-300)" x2="0" y2="300" style="fill: none; stroke: #ddd; stroke-width: 1; opacity: 1;"></line></g></g><path class="foreground" d="" style="pointer-events: none; display: none; fill: none;"></path></g></g><g class="mark-group role-axis"><g transform="translate(0.5,0.5)"><path class="background" d="M0,0h0v0h0Z" style="pointer-events: none; fill: none;"></path><g><g class="mark-rule role-axis-grid" style="pointer-events: none;"><line transform="translate(0,300)" x2="400" y2="0" style="fill: none; stroke: #ddd; stroke-width: 1; opacity: 1;"></line><line transform="translate(0,257)" x2="400" y2="0" style="fill: none; stroke: #ddd; stroke-width: 1; opacity: 1;"></line><line transform="translate(0,214)" x2="400" y2="0" style="fill: none; stroke: #ddd; stroke-width: 1; opacity: 1;"></line><line transform="translate(0,171)" x2="400" y2="0" style="fill: none; stroke: #ddd; stroke-width: 1; opacity: 1;"></line><line transform="translate(0,129)" x2="400" y2="0" style="fill: none; stroke: #ddd; stroke-width: 1; opacity: 1;"></line><line transform="translate(0,86)" x2="400" y2="0" style="fill: none; stroke: #ddd; stroke-width: 1; opacity: 1;"></line><line transform="translate(0,43)" x2="400" y2="0" style="fill: none; stroke: #ddd; stroke-width: 1; opacity: 1;"></line><line transform="translate(0,0)" x2="400" y2="0" style="fill: none; stroke: #ddd; stroke-width: 1; opacity: 1;"></line></g></g><path class="foreground" d="" style="pointer-events: none; display: none; fill: none;"></path></g></g><g class="mark-group role-axis"><g transform="translate(0.5,300.5)"><path class="background" d="M0,0h0v0h0Z" style="pointer-events: none; fill: none;"></path><g><g class="mark-rule role-axis-tick" style="pointer-events: none;"><line transform="translate(0,0)" x2="0" y2="5" style="fill: none; stroke: #888; stroke-width: 1; opacity: 1;"></line><line transform="translate(40,0)" x2="0" y2="5" style="fill: none; stroke: #888; stroke-width: 1; opacity: 1;"></line><line transform="translate(80,0)" x2="0" y2="5" style="fill: none; stroke: #888; stroke-width: 1; opacity: 1;"></line><line transform="translate(120,0)" x2="0" y2="5" style="fill: none; stroke: #888; stroke-width: 1; opacity: 1;"></line><line transform="translate(160,0)" x2="0" y2="5" style="fill: none; stroke: #888; stroke-width: 1; opacity: 1;"></line><line transform="translate(200,0)" x2="0" y2="5" style="fill: none; stroke: #888; stroke-width: 1; opacity: 1;"></line><line transform="translate(240,0)" x2="0" y2="5" style="fill: none; stroke: #888; stroke-width: 1; opacity: 1;"></line><line transform="translate(280,0)" x2="0" y2="5" style="fill: none; stroke: #888; stroke-width: 1; opacity: 1;"></line><line transform="translate(320,0)" x2="0" y2="5" style="fill: none; stroke: #888; stroke-width: 1; opacity: 1;"></line><line transform="translate(360,0)" x2="0" y2="5" style="fill: none; stroke: #888; stroke-width: 1; opacity: 1;"></line><line transform="translate(400,0)" x2="0" y2="5" style="fill: none; stroke: #888; stroke-width: 1; opacity: 1;"></line></g><g class="mark-text role-axis-label" style="pointer-events: none;"><text text-anchor="start" transform="translate(0,15)" style="font-family: sans-serif; font-size: 10px; fill: #000; opacity: 1;">0</text><text text-anchor="middle" transform="translate(40,15)" style="font-family: sans-serif; font-size: 10px; fill: #000; opacity: 1;">1</text><text text-anchor="middle" transform="translate(80,15)" style="font-family: sans-serif; font-size: 10px; fill: #000; opacity: 1;">2</text><text text-anchor="middle" transform="translate(120,15)" style="font-family: sans-serif; font-size: 10px; fill: #000; opacity: 1;">3</text><text text-anchor="middle" transform="translate(160,15)" style="font-family: sans-serif; font-size: 10px; fill: #000; opacity: 1;">4</text><text text-anchor="middle" transform="translate(200,15)" style="font-family: sans-serif; font-size: 10px; fill: #000; opacity: 1;">5</text><text text-anchor="middle" transform="translate(240,15)" style="font-family: sans-serif; font-size: 10px; fill: #000; opacity: 1;">6</text><text text-anchor="middle" transform="translate(280,15)" style="font-family: sans-serif; font-size: 10px; fill: #000; opacity: 1;">7</text><text text-anchor="middle" transform="translate(320,15)" style="font-family: sans-serif; font-size: 10px; fill: #000; opacity: 1;">8</text><text text-anchor="middle" transform="translate(360,15)" style="font-family: sans-serif; font-size: 10px; fill: #000; opacity: 1;">9</text><text text-anchor="end" transform="translate(400,15)" style="font-family: sans-serif; font-size: 10px; fill: #000; opacity: 1;">10</text></g><g class="mark-rule role-axis-domain" style="pointer-events: none;"><line transform="translate(0,0)" x2="400" y2="0" style="fill: none; stroke: #888; stroke-width: 1; opacity: 1;"></line></g><g class="mark-text role-axis-title" style="pointer-events: none;"><text text-anchor="middle" transform="translate(200,30)" style="font-family: sans-serif; font-size: 11px; font-weight: bold; fill: #000; opacity: 1;">studied</text></g></g><path class="foreground" d="" style="pointer-events: none; display: none; fill: none;"></path></g></g><g class="mark-group role-axis"><g transform="translate(0.5,0.5)"><path class="background" d="M0,0h0v0h0Z" style="pointer-events: none; fill: none;"></path><g><g class="mark-rule role-axis-tick" style="pointer-events: none;"><line transform="translate(0,300)" x2="-5" y2="0" style="fill: none; stroke: #888; stroke-width: 1; opacity: 1;"></line><line transform="translate(0,257)" x2="-5" y2="0" style="fill: none; stroke: #888; stroke-width: 1; opacity: 1;"></line><line transform="translate(0,214)" x2="-5" y2="0" style="fill: none; stroke: #888; stroke-width: 1; opacity: 1;"></line><line transform="translate(0,171)" x2="-5" y2="0" style="fill: none; stroke: #888; stroke-width: 1; opacity: 1;"></line><line transform="translate(0,129)" x2="-5" y2="0" style="fill: none; stroke: #888; stroke-width: 1; opacity: 1;"></line><line transform="translate(0,86)" x2="-5" y2="0" style="fill: none; stroke: #888; stroke-width: 1; opacity: 1;"></line><line transform="translate(0,43)" x2="-5" y2="0" style="fill: none; stroke: #888; stroke-width: 1; opacity: 1;"></line><line transform="translate(0,0)" x2="-5" y2="0" style="fill: none; stroke: #888; stroke-width: 1; opacity: 1;"></line></g><g class="mark-text role-axis-label" style="pointer-events: none;"><text text-anchor="end" transform="translate(-7,303)" style="font-family: sans-serif; font-size: 10px; fill: #000; opacity: 1;">-0.2</text><text text-anchor="end" transform="translate(-7,260.1428571428571)" style="font-family: sans-serif; font-size: 10px; fill: #000; opacity: 1;">0.0</text><text text-anchor="end" transform="translate(-7,217.28571428571425)" style="font-family: sans-serif; font-size: 10px; fill: #000; opacity: 1;">0.2</text><text text-anchor="end" transform="translate(-7,174.42857142857142)" style="font-family: sans-serif; font-size: 10px; fill: #000; opacity: 1;">0.4</text><text text-anchor="end" transform="translate(-7,131.57142857142856)" style="font-family: sans-serif; font-size: 10px; fill: #000; opacity: 1;">0.6</text><text text-anchor="end" transform="translate(-7,88.71428571428571)" style="font-family: sans-serif; font-size: 10px; fill: #000; opacity: 1;">0.8</text><text text-anchor="end" transform="translate(-7,45.85714285714284)" style="font-family: sans-serif; font-size: 10px; fill: #000; opacity: 1;">1.0</text><text text-anchor="end" transform="translate(-7,3)" style="font-family: sans-serif; font-size: 10px; fill: #000; opacity: 1;">1.2</text></g><g class="mark-rule role-axis-domain" style="pointer-events: none;"><line transform="translate(0,300)" x2="0" y2="-300" style="fill: none; stroke: #888; stroke-width: 1; opacity: 1;"></line></g><g class="mark-text role-axis-title" style="pointer-events: none;"><text text-anchor="middle" transform="translate(-28.2314453125,150) rotate(-90) translate(0,-2)" style="font-family: sans-serif; font-size: 11px; font-weight: bold; fill: #000; opacity: 1;">passed</text></g></g><path class="foreground" d="" style="pointer-events: none; display: none; fill: none;"></path></g></g><g class="mark-symbol role-mark concat_0_layer_0_marks"><path transform="translate(194.20256968587637,42.85714285714284)" d="M4.183300132670378,0A4.183300132670378,4.183300132670378,0,1,1,-4.183300132670378,0A4.183300132670378,4.183300132670378,0,1,1,4.183300132670378,0" style="fill: none; stroke: red; stroke-width: 2; opacity: 0.7;"></path><path transform="translate(345.0175903737545,257.1428571428571)" d="M4.183300132670378,0A4.183300132670378,4.183300132670378,0,1,1,-4.183300132670378,0A4.183300132670378,4.183300132670378,0,1,1,4.183300132670378,0" style="fill: none; stroke: blue; stroke-width: 2; opacity: 0.7;"></path><path transform="translate(153.12766153365376,257.1428571428571)" d="M4.183300132670378,0A4.183300132670378,4.183300132670378,0,1,1,-4.183300132670378,0A4.183300132670378,4.183300132670378,0,1,1,4.183300132670378,0" style="fill: none; stroke: blue; stroke-width: 2; opacity: 0.7;"></path><path transform="translate(286.03819347918034,42.85714285714284)" d="M4.183300132670378,0A4.183300132670378,4.183300132670378,0,1,1,-4.183300132670378,0A4.183300132670378,4.183300132670378,0,1,1,4.183300132670378,0" style="fill: none; stroke: red; stroke-width: 2; opacity: 0.7;"></path><path transform="translate(259.1160176321864,42.85714285714284)" d="M4.183300132670378,0A4.183300132670378,4.183300132670378,0,1,1,-4.183300132670378,0A4.183300132670378,4.183300132670378,0,1,1,4.183300132670378,0" style="fill: none; stroke: red; stroke-width: 2; opacity: 0.7;"></path><path transform="translate(76.89078003168105,257.1428571428571)" d="M4.183300132670378,0A4.183300132670378,4.183300132670378,0,1,1,-4.183300132670378,0A4.183300132670378,4.183300132670378,0,1,1,4.183300132670378,0" style="fill: none; stroke: blue; stroke-width: 2; opacity: 0.7;"></path><path transform="translate(359.1286355629562,42.85714285714284)" d="M4.183300132670378,0A4.183300132670378,4.183300132670378,0,1,1,-4.183300132670378,0A4.183300132670378,4.183300132670378,0,1,1,4.183300132670378,0" style="fill: none; stroke: red; stroke-width: 2; opacity: 0.7;"></path><path transform="translate(265.4241230338812,42.85714285714284)" d="M4.183300132670378,0A4.183300132670378,4.183300132670378,0,1,1,-4.183300132670378,0A4.183300132670378,4.183300132670378,0,1,1,4.183300132670378,0" style="fill: none; stroke: red; stroke-width: 2; opacity: 0.7;"></path><path transform="translate(306.894358061254,42.85714285714284)" d="M4.183300132670378,0A4.183300132670378,4.183300132670378,0,1,1,-4.183300132670378,0A4.183300132670378,4.183300132670378,0,1,1,4.183300132670378,0" style="fill: none; stroke: red; stroke-width: 2; opacity: 0.7;"></path><path transform="translate(194.64061334729195,257.1428571428571)" d="M4.183300132670378,0A4.183300132670378,4.183300132670378,0,1,1,-4.183300132670378,0A4.183300132670378,4.183300132670378,0,1,1,4.183300132670378,0" style="fill: none; stroke: blue; stroke-width: 2; opacity: 0.7;"></path><path transform="translate(274.45619869977236,42.85714285714284)" d="M4.183300132670378,0A4.183300132670378,4.183300132670378,0,1,1,-4.183300132670378,0A4.183300132670378,4.183300132670378,0,1,1,4.183300132670378,0" style="fill: none; stroke: red; stroke-width: 2; opacity: 0.7;"></path><path transform="translate(341.61685295403015,42.85714285714284)" d="M4.183300132670378,0A4.183300132670378,4.183300132670378,0,1,1,-4.183300132670378,0A4.183300132670378,4.183300132670378,0,1,1,4.183300132670378,0" style="fill: none; stroke: red; stroke-width: 2; opacity: 0.7;"></path><path transform="translate(148.7152261659503,257.1428571428571)" d="M4.183300132670378,0A4.183300132670378,4.183300132670378,0,1,1,-4.183300132670378,0A4.183300132670378,4.183300132670378,0,1,1,4.183300132670378,0" style="fill: none; stroke: blue; stroke-width: 2; opacity: 0.7;"></path><path transform="translate(367.2518849372864,42.85714285714284)" d="M4.183300132670378,0A4.183300132670378,4.183300132670378,0,1,1,-4.183300132670378,0A4.183300132670378,4.183300132670378,0,1,1,4.183300132670378,0" style="fill: none; stroke: red; stroke-width: 2; opacity: 0.7;"></path><path transform="translate(382.40560088306665,257.1428571428571)" d="M4.183300132670378,0A4.183300132670378,4.183300132670378,0,1,1,-4.183300132670378,0A4.183300132670378,4.183300132670378,0,1,1,4.183300132670378,0" style="fill: none; stroke: blue; stroke-width: 2; opacity: 0.7;"></path><path transform="translate(238.8547789305448,42.85714285714284)" d="M4.183300132670378,0A4.183300132670378,4.183300132670378,0,1,1,-4.183300132670378,0A4.183300132670378,4.183300132670378,0,1,1,4.183300132670378,0" style="fill: none; stroke: red; stroke-width: 2; opacity: 0.7;"></path><path transform="translate(377.5281077250838,42.85714285714284)" d="M4.183300132670378,0A4.183300132670378,4.183300132670378,0,1,1,-4.183300132670378,0A4.183300132670378,4.183300132670378,0,1,1,4.183300132670378,0" style="fill: none; stroke: red; stroke-width: 2; opacity: 0.7;"></path><path transform="translate(174.30204078555107,42.85714285714284)" d="M4.183300132670378,0A4.183300132670378,4.183300132670378,0,1,1,-4.183300132670378,0A4.183300132670378,4.183300132670378,0,1,1,4.183300132670378,0" style="fill: none; stroke: red; stroke-width: 2; opacity: 0.7;"></path><path transform="translate(181.61327857524157,42.85714285714284)" d="M4.183300132670378,0A4.183300132670378,4.183300132670378,0,1,1,-4.183300132670378,0A4.183300132670378,4.183300132670378,0,1,1,4.183300132670378,0" style="fill: none; stroke: red; stroke-width: 2; opacity: 0.7;"></path><path transform="translate(61.964065209031105,257.1428571428571)" d="M4.183300132670378,0A4.183300132670378,4.183300132670378,0,1,1,-4.183300132670378,0A4.183300132670378,4.183300132670378,0,1,1,4.183300132670378,0" style="fill: none; stroke: blue; stroke-width: 2; opacity: 0.7;"></path><path transform="translate(323.2789484784007,42.85714285714284)" d="M4.183300132670378,0A4.183300132670378,4.183300132670378,0,1,1,-4.183300132670378,0A4.183300132670378,4.183300132670378,0,1,1,4.183300132670378,0" style="fill: none; stroke: red; stroke-width: 2; opacity: 0.7;"></path><path transform="translate(384.81860011816025,42.85714285714284)" d="M4.183300132670378,0A4.183300132670378,4.183300132670378,0,1,1,-4.183300132670378,0A4.183300132670378,4.183300132670378,0,1,1,4.183300132670378,0" style="fill: none; stroke: red; stroke-width: 2; opacity: 0.7;"></path><path transform="translate(353.3908391371368,42.85714285714284)" d="M4.183300132670378,0A4.183300132670378,4.183300132670378,0,1,1,-4.183300132670378,0A4.183300132670378,4.183300132670378,0,1,1,4.183300132670378,0" style="fill: none; stroke: red; stroke-width: 2; opacity: 0.7;"></path><path transform="translate(70.13794146478176,257.1428571428571)" d="M4.183300132670378,0A4.183300132670378,4.183300132670378,0,1,1,-4.183300132670378,0A4.183300132670378,4.183300132670378,0,1,1,4.183300132670378,0" style="fill: none; stroke: blue; stroke-width: 2; opacity: 0.7;"></path><path transform="translate(41.72851350158453,257.1428571428571)" d="M4.183300132670378,0A4.183300132670378,4.183300132670378,0,1,1,-4.183300132670378,0A4.183300132670378,4.183300132670378,0,1,1,4.183300132670378,0" style="fill: none; stroke: blue; stroke-width: 2; opacity: 0.7;"></path><path transform="translate(47.855327278375626,257.1428571428571)" d="M4.183300132670378,0A4.183300132670378,4.183300132670378,0,1,1,-4.183300132670378,0A4.183300132670378,4.183300132670378,0,1,1,4.183300132670378,0" style="fill: none; stroke: blue; stroke-width: 2; opacity: 0.7;"></path><path transform="translate(356.4027952030301,42.85714285714284)" d="M4.183300132670378,0A4.183300132670378,4.183300132670378,0,1,1,-4.183300132670378,0A4.183300132670378,4.183300132670378,0,1,1,4.183300132670378,0" style="fill: none; stroke: red; stroke-width: 2; opacity: 0.7;"></path><path transform="translate(181.1847496777773,42.85714285714284)" d="M4.183300132670378,0A4.183300132670378,4.183300132670378,0,1,1,-4.183300132670378,0A4.183300132670378,4.183300132670378,0,1,1,4.183300132670378,0" style="fill: none; stroke: red; stroke-width: 2; opacity: 0.7;"></path><path transform="translate(74.36449658125638,257.1428571428571)" d="M4.183300132670378,0A4.183300132670378,4.183300132670378,0,1,1,-4.183300132670378,0A4.183300132670378,4.183300132670378,0,1,1,4.183300132670378,0" style="fill: none; stroke: blue; stroke-width: 2; opacity: 0.7;"></path><path transform="translate(382.2871536016464,42.85714285714284)" d="M4.183300132670378,0A4.183300132670378,4.183300132670378,0,1,1,-4.183300132670378,0A4.183300132670378,4.183300132670378,0,1,1,4.183300132670378,0" style="fill: none; stroke: red; stroke-width: 2; opacity: 0.7;"></path><path transform="translate(286.1880490556359,42.85714285714284)" d="M4.183300132670378,0A4.183300132670378,4.183300132670378,0,1,1,-4.183300132670378,0A4.183300132670378,4.183300132670378,0,1,1,4.183300132670378,0" style="fill: none; stroke: red; stroke-width: 2; opacity: 0.7;"></path><path transform="translate(93.74474100768563,257.1428571428571)" d="M4.183300132670378,0A4.183300132670378,4.183300132670378,0,1,1,-4.183300132670378,0A4.183300132670378,4.183300132670378,0,1,1,4.183300132670378,0" style="fill: none; stroke: blue; stroke-width: 2; opacity: 0.7;"></path><path transform="translate(116.90737958997488,42.85714285714284)" d="M4.183300132670378,0A4.183300132670378,4.183300132670378,0,1,1,-4.183300132670378,0A4.183300132670378,4.183300132670378,0,1,1,4.183300132670378,0" style="fill: none; stroke: red; stroke-width: 2; opacity: 0.7;"></path><path transform="translate(253.32384929060936,42.85714285714284)" d="M4.183300132670378,0A4.183300132670378,4.183300132670378,0,1,1,-4.183300132670378,0A4.183300132670378,4.183300132670378,0,1,1,4.183300132670378,0" style="fill: none; stroke: red; stroke-width: 2; opacity: 0.7;"></path><path transform="translate(37.02512700110673,257.1428571428571)" d="M4.183300132670378,0A4.183300132670378,4.183300132670378,0,1,1,-4.183300132670378,0A4.183300132670378,4.183300132670378,0,1,1,4.183300132670378,0" style="fill: none; stroke: blue; stroke-width: 2; opacity: 0.7;"></path><path transform="translate(314.97562266886234,42.85714285714284)" d="M4.183300132670378,0A4.183300132670378,4.183300132670378,0,1,1,-4.183300132670378,0A4.183300132670378,4.183300132670378,0,1,1,4.183300132670378,0" style="fill: none; stroke: red; stroke-width: 2; opacity: 0.7;"></path><path transform="translate(333.9100418612361,42.85714285714284)" d="M4.183300132670378,0A4.183300132670378,4.183300132670378,0,1,1,-4.183300132670378,0A4.183300132670378,4.183300132670378,0,1,1,4.183300132670378,0" style="fill: none; stroke: red; stroke-width: 2; opacity: 0.7;"></path><path transform="translate(223.24244529008865,257.1428571428571)" d="M4.183300132670378,0A4.183300132670378,4.183300132670378,0,1,1,-4.183300132670378,0A4.183300132670378,4.183300132670378,0,1,1,4.183300132670378,0" style="fill: none; stroke: blue; stroke-width: 2; opacity: 0.7;"></path><path transform="translate(203.64116374403238,42.85714285714284)" d="M4.183300132670378,0A4.183300132670378,4.183300132670378,0,1,1,-4.183300132670378,0A4.183300132670378,4.183300132670378,0,1,1,4.183300132670378,0" style="fill: none; stroke: red; stroke-width: 2; opacity: 0.7;"></path><path transform="translate(181.2068548053503,257.1428571428571)" d="M4.183300132670378,0A4.183300132670378,4.183300132670378,0,1,1,-4.183300132670378,0A4.183300132670378,4.183300132670378,0,1,1,4.183300132670378,0" style="fill: none; stroke: blue; stroke-width: 2; opacity: 0.7;"></path><path transform="translate(56.95111956447363,257.1428571428571)" d="M4.183300132670378,0A4.183300132670378,4.183300132670378,0,1,1,-4.183300132670378,0A4.183300132670378,4.183300132670378,0,1,1,4.183300132670378,0" style="fill: none; stroke: blue; stroke-width: 2; opacity: 0.7;"></path><path transform="translate(363.838405162096,42.85714285714284)" d="M4.183300132670378,0A4.183300132670378,4.183300132670378,0,1,1,-4.183300132670378,0A4.183300132670378,4.183300132670378,0,1,1,4.183300132670378,0" style="fill: none; stroke: red; stroke-width: 2; opacity: 0.7;"></path><path transform="translate(160.2646367624402,42.85714285714284)" d="M4.183300132670378,0A4.183300132670378,4.183300132670378,0,1,1,-4.183300132670378,0A4.183300132670378,4.183300132670378,0,1,1,4.183300132670378,0" style="fill: none; stroke: red; stroke-width: 2; opacity: 0.7;"></path><path transform="translate(359.06269736588,42.85714285714284)" d="M4.183300132670378,0A4.183300132670378,4.183300132670378,0,1,1,-4.183300132670378,0A4.183300132670378,4.183300132670378,0,1,1,4.183300132670378,0" style="fill: none; stroke: red; stroke-width: 2; opacity: 0.7;"></path><path transform="translate(3.922115080058574,257.1428571428571)" d="M4.183300132670378,0A4.183300132670378,4.183300132670378,0,1,1,-4.183300132670378,0A4.183300132670378,4.183300132670378,0,1,1,4.183300132670378,0" style="fill: none; stroke: blue; stroke-width: 2; opacity: 0.7;"></path><path transform="translate(18.09554696083069,257.1428571428571)" d="M4.183300132670378,0A4.183300132670378,4.183300132670378,0,1,1,-4.183300132670378,0A4.183300132670378,4.183300132670378,0,1,1,4.183300132670378,0" style="fill: none; stroke: blue; stroke-width: 2; opacity: 0.7;"></path><path transform="translate(154.52185068279505,257.1428571428571)" d="M4.183300132670378,0A4.183300132670378,4.183300132670378,0,1,1,-4.183300132670378,0A4.183300132670378,4.183300132670378,0,1,1,4.183300132670378,0" style="fill: none; stroke: blue; stroke-width: 2; opacity: 0.7;"></path><path transform="translate(314.55400697886944,42.85714285714284)" d="M4.183300132670378,0A4.183300132670378,4.183300132670378,0,1,1,-4.183300132670378,0A4.183300132670378,4.183300132670378,0,1,1,4.183300132670378,0" style="fill: none; stroke: red; stroke-width: 2; opacity: 0.7;"></path><path transform="translate(356.9082563742995,42.85714285714284)" d="M4.183300132670378,0A4.183300132670378,4.183300132670378,0,1,1,-4.183300132670378,0A4.183300132670378,4.183300132670378,0,1,1,4.183300132670378,0" style="fill: none; stroke: red; stroke-width: 2; opacity: 0.7;"></path><path transform="translate(298.57471510767937,42.85714285714284)" d="M4.183300132670378,0A4.183300132670378,4.183300132670378,0,1,1,-4.183300132670378,0A4.183300132670378,4.183300132670378,0,1,1,4.183300132670378,0" style="fill: none; stroke: red; stroke-width: 2; opacity: 0.7;"></path><path transform="translate(53.677171654999256,257.1428571428571)" d="M4.183300132670378,0A4.183300132670378,4.183300132670378,0,1,1,-4.183300132670378,0A4.183300132670378,4.183300132670378,0,1,1,4.183300132670378,0" style="fill: none; stroke: blue; stroke-width: 2; opacity: 0.7;"></path><path transform="translate(237.63878382742405,42.85714285714284)" d="M4.183300132670378,0A4.183300132670378,4.183300132670378,0,1,1,-4.183300132670378,0A4.183300132670378,4.183300132670378,0,1,1,4.183300132670378,0" style="fill: none; stroke: red; stroke-width: 2; opacity: 0.7;"></path><path transform="translate(36.16310637444258,257.1428571428571)" d="M4.183300132670378,0A4.183300132670378,4.183300132670378,0,1,1,-4.183300132670378,0A4.183300132670378,4.183300132670378,0,1,1,4.183300132670378,0" style="fill: none; stroke: blue; stroke-width: 2; opacity: 0.7;"></path><path transform="translate(310.0212022662163,42.85714285714284)" d="M4.183300132670378,0A4.183300132670378,4.183300132670378,0,1,1,-4.183300132670378,0A4.183300132670378,4.183300132670378,0,1,1,4.183300132670378,0" style="fill: none; stroke: red; stroke-width: 2; opacity: 0.7;"></path><path transform="translate(380.7170117273927,257.1428571428571)" d="M4.183300132670378,0A4.183300132670378,4.183300132670378,0,1,1,-4.183300132670378,0A4.183300132670378,4.183300132670378,0,1,1,4.183300132670378,0" style="fill: none; stroke: blue; stroke-width: 2; opacity: 0.7;"></path><path transform="translate(309.75146852433676,257.1428571428571)" d="M4.183300132670378,0A4.183300132670378,4.183300132670378,0,1,1,-4.183300132670378,0A4.183300132670378,4.183300132670378,0,1,1,4.183300132670378,0" style="fill: none; stroke: blue; stroke-width: 2; opacity: 0.7;"></path><path transform="translate(307.67692234367127,42.85714285714284)" d="M4.183300132670378,0A4.183300132670378,4.183300132670378,0,1,1,-4.183300132670378,0A4.183300132670378,4.183300132670378,0,1,1,4.183300132670378,0" style="fill: none; stroke: red; stroke-width: 2; opacity: 0.7;"></path><path transform="translate(283.6909212172032,257.1428571428571)" d="M4.183300132670378,0A4.183300132670378,4.183300132670378,0,1,1,-4.183300132670378,0A4.183300132670378,4.183300132670378,0,1,1,4.183300132670378,0" style="fill: none; stroke: blue; stroke-width: 2; opacity: 0.7;"></path><path transform="translate(277.77756322175264,42.85714285714284)" d="M4.183300132670378,0A4.183300132670378,4.183300132670378,0,1,1,-4.183300132670378,0A4.183300132670378,4.183300132670378,0,1,1,4.183300132670378,0" style="fill: none; stroke: red; stroke-width: 2; opacity: 0.7;"></path><path transform="translate(1.8009889870882034,257.1428571428571)" d="M4.183300132670378,0A4.183300132670378,4.183300132670378,0,1,1,-4.183300132670378,0A4.183300132670378,4.183300132670378,0,1,1,4.183300132670378,0" style="fill: none; stroke: blue; stroke-width: 2; opacity: 0.7;"></path><path transform="translate(61.83876525610684,42.85714285714284)" d="M4.183300132670378,0A4.183300132670378,4.183300132670378,0,1,1,-4.183300132670378,0A4.183300132670378,4.183300132670378,0,1,1,4.183300132670378,0" style="fill: none; stroke: red; stroke-width: 2; opacity: 0.7;"></path><path transform="translate(210.89532673358912,42.85714285714284)" d="M4.183300132670378,0A4.183300132670378,4.183300132670378,0,1,1,-4.183300132670378,0A4.183300132670378,4.183300132670378,0,1,1,4.183300132670378,0" style="fill: none; stroke: red; stroke-width: 2; opacity: 0.7;"></path><path transform="translate(34.41628310829401,257.1428571428571)" d="M4.183300132670378,0A4.183300132670378,4.183300132670378,0,1,1,-4.183300132670378,0A4.183300132670378,4.183300132670378,0,1,1,4.183300132670378,0" style="fill: none; stroke: blue; stroke-width: 2; opacity: 0.7;"></path><path transform="translate(290.1375573128461,42.85714285714284)" d="M4.183300132670378,0A4.183300132670378,4.183300132670378,0,1,1,-4.183300132670378,0A4.183300132670378,4.183300132670378,0,1,1,4.183300132670378,0" style="fill: none; stroke: red; stroke-width: 2; opacity: 0.7;"></path><path transform="translate(300.6923591718077,257.1428571428571)" d="M4.183300132670378,0A4.183300132670378,4.183300132670378,0,1,1,-4.183300132670378,0A4.183300132670378,4.183300132670378,0,1,1,4.183300132670378,0" style="fill: none; stroke: blue; stroke-width: 2; opacity: 0.7;"></path><path transform="translate(363.265087455511,42.85714285714284)" d="M4.183300132670378,0A4.183300132670378,4.183300132670378,0,1,1,-4.183300132670378,0A4.183300132670378,4.183300132670378,0,1,1,4.183300132670378,0" style="fill: none; stroke: red; stroke-width: 2; opacity: 0.7;"></path><path transform="translate(18.227127380669117,257.1428571428571)" d="M4.183300132670378,0A4.183300132670378,4.183300132670378,0,1,1,-4.183300132670378,0A4.183300132670378,4.183300132670378,0,1,1,4.183300132670378,0" style="fill: none; stroke: blue; stroke-width: 2; opacity: 0.7;"></path><path transform="translate(277.9882166534662,257.1428571428571)" d="M4.183300132670378,0A4.183300132670378,4.183300132670378,0,1,1,-4.183300132670378,0A4.183300132670378,4.183300132670378,0,1,1,4.183300132670378,0" style="fill: none; stroke: blue; stroke-width: 2; opacity: 0.7;"></path><path transform="translate(371.28570061177004,42.85714285714284)" d="M4.183300132670378,0A4.183300132670378,4.183300132670378,0,1,1,-4.183300132670378,0A4.183300132670378,4.183300132670378,0,1,1,4.183300132670378,0" style="fill: none; stroke: red; stroke-width: 2; opacity: 0.7;"></path><path transform="translate(287.23250776529306,42.85714285714284)" d="M4.183300132670378,0A4.183300132670378,4.183300132670378,0,1,1,-4.183300132670378,0A4.183300132670378,4.183300132670378,0,1,1,4.183300132670378,0" style="fill: none; stroke: red; stroke-width: 2; opacity: 0.7;"></path><path transform="translate(45.29953543096781,257.1428571428571)" d="M4.183300132670378,0A4.183300132670378,4.183300132670378,0,1,1,-4.183300132670378,0A4.183300132670378,4.183300132670378,0,1,1,4.183300132670378,0" style="fill: none; stroke: blue; stroke-width: 2; opacity: 0.7;"></path><path transform="translate(309.86113809049124,42.85714285714284)" d="M4.183300132670378,0A4.183300132670378,4.183300132670378,0,1,1,-4.183300132670378,0A4.183300132670378,4.183300132670378,0,1,1,4.183300132670378,0" style="fill: none; stroke: red; stroke-width: 2; opacity: 0.7;"></path><path transform="translate(282.6144179329276,257.1428571428571)" d="M4.183300132670378,0A4.183300132670378,4.183300132670378,0,1,1,-4.183300132670378,0A4.183300132670378,4.183300132670378,0,1,1,4.183300132670378,0" style="fill: none; stroke: blue; stroke-width: 2; opacity: 0.7;"></path><path transform="translate(260.232699662447,257.1428571428571)" d="M4.183300132670378,0A4.183300132670378,4.183300132670378,0,1,1,-4.183300132670378,0A4.183300132670378,4.183300132670378,0,1,1,4.183300132670378,0" style="fill: none; stroke: blue; stroke-width: 2; opacity: 0.7;"></path><path transform="translate(228.02116442471743,42.85714285714284)" d="M4.183300132670378,0A4.183300132670378,4.183300132670378,0,1,1,-4.183300132670378,0A4.183300132670378,4.183300132670378,0,1,1,4.183300132670378,0" style="fill: none; stroke: red; stroke-width: 2; opacity: 0.7;"></path><path transform="translate(266.41866751015186,257.1428571428571)" d="M4.183300132670378,0A4.183300132670378,4.183300132670378,0,1,1,-4.183300132670378,0A4.183300132670378,4.183300132670378,0,1,1,4.183300132670378,0" style="fill: none; stroke: blue; stroke-width: 2; opacity: 0.7;"></path><path transform="translate(43.65888070315124,257.1428571428571)" d="M4.183300132670378,0A4.183300132670378,4.183300132670378,0,1,1,-4.183300132670378,0A4.183300132670378,4.183300132670378,0,1,1,4.183300132670378,0" style="fill: none; stroke: blue; stroke-width: 2; opacity: 0.7;"></path><path transform="translate(196.12350463867188,257.1428571428571)" d="M4.183300132670378,0A4.183300132670378,4.183300132670378,0,1,1,-4.183300132670378,0A4.183300132670378,4.183300132670378,0,1,1,4.183300132670378,0" style="fill: none; stroke: blue; stroke-width: 2; opacity: 0.7;"></path><path transform="translate(137.72437367588282,257.1428571428571)" d="M4.183300132670378,0A4.183300132670378,4.183300132670378,0,1,1,-4.183300132670378,0A4.183300132670378,4.183300132670378,0,1,1,4.183300132670378,0" style="fill: none; stroke: blue; stroke-width: 2; opacity: 0.7;"></path><path transform="translate(327.3191224783659,42.85714285714284)" d="M4.183300132670378,0A4.183300132670378,4.183300132670378,0,1,1,-4.183300132670378,0A4.183300132670378,4.183300132670378,0,1,1,4.183300132670378,0" style="fill: none; stroke: red; stroke-width: 2; opacity: 0.7;"></path><path transform="translate(360.0150590762496,42.85714285714284)" d="M4.183300132670378,0A4.183300132670378,4.183300132670378,0,1,1,-4.183300132670378,0A4.183300132670378,4.183300132670378,0,1,1,4.183300132670378,0" style="fill: none; stroke: red; stroke-width: 2; opacity: 0.7;"></path><path transform="translate(387.32416555285454,42.85714285714284)" d="M4.183300132670378,0A4.183300132670378,4.183300132670378,0,1,1,-4.183300132670378,0A4.183300132670378,4.183300132670378,0,1,1,4.183300132670378,0" style="fill: none; stroke: red; stroke-width: 2; opacity: 0.7;"></path><path transform="translate(119.67645902186632,257.1428571428571)" d="M4.183300132670378,0A4.183300132670378,4.183300132670378,0,1,1,-4.183300132670378,0A4.183300132670378,4.183300132670378,0,1,1,4.183300132670378,0" style="fill: none; stroke: blue; stroke-width: 2; opacity: 0.7;"></path><path transform="translate(89.5273391157389,257.1428571428571)" d="M4.183300132670378,0A4.183300132670378,4.183300132670378,0,1,1,-4.183300132670378,0A4.183300132670378,4.183300132670378,0,1,1,4.183300132670378,0" style="fill: none; stroke: blue; stroke-width: 2; opacity: 0.7;"></path><path transform="translate(26.619133166968822,42.85714285714284)" d="M4.183300132670378,0A4.183300132670378,4.183300132670378,0,1,1,-4.183300132670378,0A4.183300132670378,4.183300132670378,0,1,1,4.183300132670378,0" style="fill: none; stroke: red; stroke-width: 2; opacity: 0.7;"></path><path transform="translate(271.1727485060692,257.1428571428571)" d="M4.183300132670378,0A4.183300132670378,4.183300132670378,0,1,1,-4.183300132670378,0A4.183300132670378,4.183300132670378,0,1,1,4.183300132670378,0" style="fill: none; stroke: blue; stroke-width: 2; opacity: 0.7;"></path><path transform="translate(397.9136371985078,42.85714285714284)" d="M4.183300132670378,0A4.183300132670378,4.183300132670378,0,1,1,-4.183300132670378,0A4.183300132670378,4.183300132670378,0,1,1,4.183300132670378,0" style="fill: none; stroke: red; stroke-width: 2; opacity: 0.7;"></path><path transform="translate(128.59396897256374,257.1428571428571)" d="M4.183300132670378,0A4.183300132670378,4.183300132670378,0,1,1,-4.183300132670378,0A4.183300132670378,4.183300132670378,0,1,1,4.183300132670378,0" style="fill: none; stroke: blue; stroke-width: 2; opacity: 0.7;"></path><path transform="translate(354.0658524259924,42.85714285714284)" d="M4.183300132670378,0A4.183300132670378,4.183300132670378,0,1,1,-4.183300132670378,0A4.183300132670378,4.183300132670378,0,1,1,4.183300132670378,0" style="fill: none; stroke: red; stroke-width: 2; opacity: 0.7;"></path><path transform="translate(8.00231471657753,257.1428571428571)" d="M4.183300132670378,0A4.183300132670378,4.183300132670378,0,1,1,-4.183300132670378,0A4.183300132670378,4.183300132670378,0,1,1,4.183300132670378,0" style="fill: none; stroke: blue; stroke-width: 2; opacity: 0.7;"></path><path transform="translate(207.41878021508455,257.1428571428571)" d="M4.183300132670378,0A4.183300132670378,4.183300132670378,0,1,1,-4.183300132670378,0A4.183300132670378,4.183300132670378,0,1,1,4.183300132670378,0" style="fill: none; stroke: blue; stroke-width: 2; opacity: 0.7;"></path><path transform="translate(290.4035259038209,42.85714285714284)" d="M4.183300132670378,0A4.183300132670378,4.183300132670378,0,1,1,-4.183300132670378,0A4.183300132670378,4.183300132670378,0,1,1,4.183300132670378,0" style="fill: none; stroke: red; stroke-width: 2; opacity: 0.7;"></path><path transform="translate(366.0206450149417,42.85714285714284)" d="M4.183300132670378,0A4.183300132670378,4.183300132670378,0,1,1,-4.183300132670378,0A4.183300132670378,4.183300132670378,0,1,1,4.183300132670378,0" style="fill: none; stroke: red; stroke-width: 2; opacity: 0.7;"></path><path transform="translate(258.4358423948288,42.85714285714284)" d="M4.183300132670378,0A4.183300132670378,4.183300132670378,0,1,1,-4.183300132670378,0A4.183300132670378,4.183300132670378,0,1,1,4.183300132670378,0" style="fill: none; stroke: red; stroke-width: 2; opacity: 0.7;"></path><path transform="translate(191.14289972931147,42.85714285714284)" d="M4.183300132670378,0A4.183300132670378,4.183300132670378,0,1,1,-4.183300132670378,0A4.183300132670378,4.183300132670378,0,1,1,4.183300132670378,0" style="fill: none; stroke: red; stroke-width: 2; opacity: 0.7;"></path><path transform="translate(0.891182944178581,257.1428571428571)" d="M4.183300132670378,0A4.183300132670378,4.183300132670378,0,1,1,-4.183300132670378,0A4.183300132670378,4.183300132670378,0,1,1,4.183300132670378,0" style="fill: none; stroke: blue; stroke-width: 2; opacity: 0.7;"></path><path transform="translate(305.22547718137497,42.85714285714284)" d="M4.183300132670378,0A4.183300132670378,4.183300132670378,0,1,1,-4.183300132670378,0A4.183300132670378,4.183300132670378,0,1,1,4.183300132670378,0" style="fill: none; stroke: red; stroke-width: 2; opacity: 0.7;"></path><path transform="translate(147.39989861845973,257.1428571428571)" d="M4.183300132670378,0A4.183300132670378,4.183300132670378,0,1,1,-4.183300132670378,0A4.183300132670378,4.183300132670378,0,1,1,4.183300132670378,0" style="fill: none; stroke: blue; stroke-width: 2; opacity: 0.7;"></path><path transform="translate(299.37038142234087,42.85714285714284)" d="M4.183300132670378,0A4.183300132670378,4.183300132670378,0,1,1,-4.183300132670378,0A4.183300132670378,4.183300132670378,0,1,1,4.183300132670378,0" style="fill: none; stroke: red; stroke-width: 2; opacity: 0.7;"></path><path transform="translate(81.22831918299198,257.1428571428571)" d="M4.183300132670378,0A4.183300132670378,4.183300132670378,0,1,1,-4.183300132670378,0A4.183300132670378,4.183300132670378,0,1,1,4.183300132670378,0" style="fill: none; stroke: blue; stroke-width: 2; opacity: 0.7;"></path></g><g class="mark-line role-mark concat_0_layer_1_marks" clip-path="url(#clip1)"><path d="M0,471.4285714285715L8.16326530612245,460.4956268221575L16.3265306122449,449.56268221574345L24.489795918367346,438.6297376093295L32.6530612244898,427.6967930029155L40.816326530612244,416.7638483965015L48.97959183673469,405.83090379008746L57.14285714285714,394.8979591836735L65.3061224489796,383.9650145772595L73.46938775510205,373.0320699708455L81.63265306122449,362.0991253644315L89.79591836734696,351.1661807580175L97.95918367346938,340.23323615160353L106.12244897959182,329.3002915451895L114.28571428571428,318.36734693877554L122.44897959183673,307.4344023323615L130.6122448979592,296.5014577259475L138.77551020408163,285.5685131195335L146.9387755102041,274.63556851311955L155.10204081632654,263.7026239067055L163.26530612244898,252.76967930029156L171.42857142857142,241.83673469387756L179.5918367346939,230.90379008746353L187.75510204081633,219.97084548104954L195.91836734693877,209.03790087463557L204.08163265306123,198.10495626822157L212.24489795918365,187.1720116618076L220.40816326530614,176.23906705539358L228.57142857142856,165.30612244897958L236.73469387755102,154.3731778425656L244.89795918367346,143.44023323615158L253.06122448979593,132.5072886297376L261.2244897959184,121.57434402332362L269.3877551020408,110.64139941690962L277.55102040816325,99.70845481049562L285.7142857142857,88.7755102040816L293.8775510204082,77.84256559766763L302.0408163265306,66.90962099125363L310.2040816326531,55.97667638483961L318.3673469387755,45.043731778425645L326.53061224489795,34.11078717201165L334.6938775510204,23.17784256559765L342.85714285714283,12.244897959183687L351.0204081632653,1.3119533527696903L359.1836734693878,-9.620991253644373L367.34693877551024,-20.55393586005834L375.51020408163265,-31.486880466472368L383.6734693877551,-42.41982507288633L391.83673469387753,-53.352769679300295L400,-64.28571428571432" style="fill: none; stroke: purple; stroke-width: 3;"></path></g><g class="mark-group role-title"><g transform="translate(200,-22)"><path class="background" d="M0,0h0v0h0Z" style="pointer-events: none; fill: none;"></path><g><g class="mark-text role-title-text" style="pointer-events: none;"><text text-anchor="middle" transform="translate(0,10)" style="font-family: sans-serif; font-size: 13px; font-weight: bold; fill: #000; opacity: 1;">Linear Regression</text></g></g><path class="foreground" d="" style="pointer-events: none; display: none; fill: none;"></path></g></g></g><path class="foreground" d="" style="display: none; fill: none;"></path></g></g><g class="mark-group role-scope concat_1_group"><g transform="translate(467,0)"><path class="background" d="M0.5,0.5h400v300h-400Z" style="fill: none; stroke: #ddd;"></path><g><g class="mark-group role-axis"><g transform="translate(0.5,300.5)"><path class="background" d="M0,0h0v0h0Z" style="pointer-events: none; fill: none;"></path><g><g class="mark-rule role-axis-grid" style="pointer-events: none;"><line transform="translate(0,-300)" x2="0" y2="300" style="fill: none; stroke: #ddd; stroke-width: 1; opacity: 1;"></line><line transform="translate(40,-300)" x2="0" y2="300" style="fill: none; stroke: #ddd; stroke-width: 1; opacity: 1;"></line><line transform="translate(80,-300)" x2="0" y2="300" style="fill: none; stroke: #ddd; stroke-width: 1; opacity: 1;"></line><line transform="translate(120,-300)" x2="0" y2="300" style="fill: none; stroke: #ddd; stroke-width: 1; opacity: 1;"></line><line transform="translate(160,-300)" x2="0" y2="300" style="fill: none; stroke: #ddd; stroke-width: 1; opacity: 1;"></line><line transform="translate(200,-300)" x2="0" y2="300" style="fill: none; stroke: #ddd; stroke-width: 1; opacity: 1;"></line><line transform="translate(240,-300)" x2="0" y2="300" style="fill: none; stroke: #ddd; stroke-width: 1; opacity: 1;"></line><line transform="translate(280,-300)" x2="0" y2="300" style="fill: none; stroke: #ddd; stroke-width: 1; opacity: 1;"></line><line transform="translate(320,-300)" x2="0" y2="300" style="fill: none; stroke: #ddd; stroke-width: 1; opacity: 1;"></line><line transform="translate(360,-300)" x2="0" y2="300" style="fill: none; stroke: #ddd; stroke-width: 1; opacity: 1;"></line><line transform="translate(400,-300)" x2="0" y2="300" style="fill: none; stroke: #ddd; stroke-width: 1; opacity: 1;"></line></g></g><path class="foreground" d="" style="pointer-events: none; display: none; fill: none;"></path></g></g><g class="mark-group role-axis"><g transform="translate(0.5,0.5)"><path class="background" d="M0,0h0v0h0Z" style="pointer-events: none; fill: none;"></path><g><g class="mark-rule role-axis-grid" style="pointer-events: none;"><line transform="translate(0,300)" x2="400" y2="0" style="fill: none; stroke: #ddd; stroke-width: 1; opacity: 1;"></line><line transform="translate(0,257)" x2="400" y2="0" style="fill: none; stroke: #ddd; stroke-width: 1; opacity: 1;"></line><line transform="translate(0,214)" x2="400" y2="0" style="fill: none; stroke: #ddd; stroke-width: 1; opacity: 1;"></line><line transform="translate(0,171)" x2="400" y2="0" style="fill: none; stroke: #ddd; stroke-width: 1; opacity: 1;"></line><line transform="translate(0,129)" x2="400" y2="0" style="fill: none; stroke: #ddd; stroke-width: 1; opacity: 1;"></line><line transform="translate(0,86)" x2="400" y2="0" style="fill: none; stroke: #ddd; stroke-width: 1; opacity: 1;"></line><line transform="translate(0,43)" x2="400" y2="0" style="fill: none; stroke: #ddd; stroke-width: 1; opacity: 1;"></line><line transform="translate(0,0)" x2="400" y2="0" style="fill: none; stroke: #ddd; stroke-width: 1; opacity: 1;"></line></g></g><path class="foreground" d="" style="pointer-events: none; display: none; fill: none;"></path></g></g><g class="mark-group role-axis"><g transform="translate(0.5,300.5)"><path class="background" d="M0,0h0v0h0Z" style="pointer-events: none; fill: none;"></path><g><g class="mark-rule role-axis-tick" style="pointer-events: none;"><line transform="translate(0,0)" x2="0" y2="5" style="fill: none; stroke: #888; stroke-width: 1; opacity: 1;"></line><line transform="translate(40,0)" x2="0" y2="5" style="fill: none; stroke: #888; stroke-width: 1; opacity: 1;"></line><line transform="translate(80,0)" x2="0" y2="5" style="fill: none; stroke: #888; stroke-width: 1; opacity: 1;"></line><line transform="translate(120,0)" x2="0" y2="5" style="fill: none; stroke: #888; stroke-width: 1; opacity: 1;"></line><line transform="translate(160,0)" x2="0" y2="5" style="fill: none; stroke: #888; stroke-width: 1; opacity: 1;"></line><line transform="translate(200,0)" x2="0" y2="5" style="fill: none; stroke: #888; stroke-width: 1; opacity: 1;"></line><line transform="translate(240,0)" x2="0" y2="5" style="fill: none; stroke: #888; stroke-width: 1; opacity: 1;"></line><line transform="translate(280,0)" x2="0" y2="5" style="fill: none; stroke: #888; stroke-width: 1; opacity: 1;"></line><line transform="translate(320,0)" x2="0" y2="5" style="fill: none; stroke: #888; stroke-width: 1; opacity: 1;"></line><line transform="translate(360,0)" x2="0" y2="5" style="fill: none; stroke: #888; stroke-width: 1; opacity: 1;"></line><line transform="translate(400,0)" x2="0" y2="5" style="fill: none; stroke: #888; stroke-width: 1; opacity: 1;"></line></g><g class="mark-text role-axis-label" style="pointer-events: none;"><text text-anchor="start" transform="translate(0,15)" style="font-family: sans-serif; font-size: 10px; fill: #000; opacity: 1;">-10</text><text text-anchor="middle" transform="translate(40,15)" style="font-family: sans-serif; font-size: 10px; fill: #000; opacity: 1;">-8</text><text text-anchor="middle" transform="translate(80,15)" style="font-family: sans-serif; font-size: 10px; fill: #000; opacity: 1;">-6</text><text text-anchor="middle" transform="translate(120,15)" style="font-family: sans-serif; font-size: 10px; fill: #000; opacity: 1;">-4</text><text text-anchor="middle" transform="translate(160,15)" style="font-family: sans-serif; font-size: 10px; fill: #000; opacity: 1;">-2</text><text text-anchor="middle" transform="translate(200,15)" style="font-family: sans-serif; font-size: 10px; fill: #000; opacity: 1;">0</text><text text-anchor="middle" transform="translate(240,15)" style="font-family: sans-serif; font-size: 10px; fill: #000; opacity: 1;">2</text><text text-anchor="middle" transform="translate(280,15)" style="font-family: sans-serif; font-size: 10px; fill: #000; opacity: 1;">4</text><text text-anchor="middle" transform="translate(320,15)" style="font-family: sans-serif; font-size: 10px; fill: #000; opacity: 1;">6</text><text text-anchor="middle" transform="translate(360,15)" style="font-family: sans-serif; font-size: 10px; fill: #000; opacity: 1;">8</text><text text-anchor="end" transform="translate(400,15)" style="font-family: sans-serif; font-size: 10px; fill: #000; opacity: 1;">10</text></g><g class="mark-rule role-axis-domain" style="pointer-events: none;"><line transform="translate(0,0)" x2="400" y2="0" style="fill: none; stroke: #888; stroke-width: 1; opacity: 1;"></line></g><g class="mark-text role-axis-title" style="pointer-events: none;"><text text-anchor="middle" transform="translate(200,30)" style="font-family: sans-serif; font-size: 11px; font-weight: bold; fill: #000; opacity: 1;">studied</text></g></g><path class="foreground" d="" style="pointer-events: none; display: none; fill: none;"></path></g></g><g class="mark-group role-axis"><g transform="translate(0.5,0.5)"><path class="background" d="M0,0h0v0h0Z" style="pointer-events: none; fill: none;"></path><g><g class="mark-rule role-axis-tick" style="pointer-events: none;"><line transform="translate(0,300)" x2="-5" y2="0" style="fill: none; stroke: #888; stroke-width: 1; opacity: 1;"></line><line transform="translate(0,257)" x2="-5" y2="0" style="fill: none; stroke: #888; stroke-width: 1; opacity: 1;"></line><line transform="translate(0,214)" x2="-5" y2="0" style="fill: none; stroke: #888; stroke-width: 1; opacity: 1;"></line><line transform="translate(0,171)" x2="-5" y2="0" style="fill: none; stroke: #888; stroke-width: 1; opacity: 1;"></line><line transform="translate(0,129)" x2="-5" y2="0" style="fill: none; stroke: #888; stroke-width: 1; opacity: 1;"></line><line transform="translate(0,86)" x2="-5" y2="0" style="fill: none; stroke: #888; stroke-width: 1; opacity: 1;"></line><line transform="translate(0,43)" x2="-5" y2="0" style="fill: none; stroke: #888; stroke-width: 1; opacity: 1;"></line><line transform="translate(0,0)" x2="-5" y2="0" style="fill: none; stroke: #888; stroke-width: 1; opacity: 1;"></line></g><g class="mark-text role-axis-label" style="pointer-events: none;"><text text-anchor="end" transform="translate(-7,303)" style="font-family: sans-serif; font-size: 10px; fill: #000; opacity: 1;">-0.2</text><text text-anchor="end" transform="translate(-7,260.1428571428571)" style="font-family: sans-serif; font-size: 10px; fill: #000; opacity: 1;">0.0</text><text text-anchor="end" transform="translate(-7,217.28571428571425)" style="font-family: sans-serif; font-size: 10px; fill: #000; opacity: 1;">0.2</text><text text-anchor="end" transform="translate(-7,174.42857142857142)" style="font-family: sans-serif; font-size: 10px; fill: #000; opacity: 1;">0.4</text><text text-anchor="end" transform="translate(-7,131.57142857142856)" style="font-family: sans-serif; font-size: 10px; fill: #000; opacity: 1;">0.6</text><text text-anchor="end" transform="translate(-7,88.71428571428571)" style="font-family: sans-serif; font-size: 10px; fill: #000; opacity: 1;">0.8</text><text text-anchor="end" transform="translate(-7,45.85714285714284)" style="font-family: sans-serif; font-size: 10px; fill: #000; opacity: 1;">1.0</text><text text-anchor="end" transform="translate(-7,3)" style="font-family: sans-serif; font-size: 10px; fill: #000; opacity: 1;">1.2</text></g><g class="mark-rule role-axis-domain" style="pointer-events: none;"><line transform="translate(0,300)" x2="0" y2="-300" style="fill: none; stroke: #888; stroke-width: 1; opacity: 1;"></line></g><g class="mark-text role-axis-title" style="pointer-events: none;"><text text-anchor="middle" transform="translate(-28.2314453125,150) rotate(-90) translate(0,-2)" style="font-family: sans-serif; font-size: 11px; font-weight: bold; fill: #000; opacity: 1;">passed</text></g></g><path class="foreground" d="" style="pointer-events: none; display: none; fill: none;"></path></g></g><g class="mark-symbol role-mark concat_1_layer_0_marks"><path transform="translate(297.1012848429382,42.85714285714284)" d="M5,0A5,5,0,1,1,-5,0A5,5,0,1,1,5,0" style="fill: none; stroke: red; stroke-width: 2; opacity: 0.7;"></path><path transform="translate(372.50879518687725,257.1428571428571)" d="M5,0A5,5,0,1,1,-5,0A5,5,0,1,1,5,0" style="fill: none; stroke: blue; stroke-width: 2; opacity: 0.7;"></path><path transform="translate(276.56383076682687,257.1428571428571)" d="M5,0A5,5,0,1,1,-5,0A5,5,0,1,1,5,0" style="fill: none; stroke: blue; stroke-width: 2; opacity: 0.7;"></path><path transform="translate(343.01909673959017,42.85714285714284)" d="M5,0A5,5,0,1,1,-5,0A5,5,0,1,1,5,0" style="fill: none; stroke: red; stroke-width: 2; opacity: 0.7;"></path><path transform="translate(329.5580088160932,42.85714285714284)" d="M5,0A5,5,0,1,1,-5,0A5,5,0,1,1,5,0" style="fill: none; stroke: red; stroke-width: 2; opacity: 0.7;"></path><path transform="translate(238.44539001584053,257.1428571428571)" d="M5,0A5,5,0,1,1,-5,0A5,5,0,1,1,5,0" style="fill: none; stroke: blue; stroke-width: 2; opacity: 0.7;"></path><path transform="translate(379.56431778147817,42.85714285714284)" d="M5,0A5,5,0,1,1,-5,0A5,5,0,1,1,5,0" style="fill: none; stroke: red; stroke-width: 2; opacity: 0.7;"></path><path transform="translate(332.7120615169406,42.85714285714284)" d="M5,0A5,5,0,1,1,-5,0A5,5,0,1,1,5,0" style="fill: none; stroke: red; stroke-width: 2; opacity: 0.7;"></path><path transform="translate(353.447179030627,42.85714285714284)" d="M5,0A5,5,0,1,1,-5,0A5,5,0,1,1,5,0" style="fill: none; stroke: red; stroke-width: 2; opacity: 0.7;"></path><path transform="translate(297.320306673646,257.1428571428571)" d="M5,0A5,5,0,1,1,-5,0A5,5,0,1,1,5,0" style="fill: none; stroke: blue; stroke-width: 2; opacity: 0.7;"></path><path transform="translate(337.2280993498862,42.85714285714284)" d="M5,0A5,5,0,1,1,-5,0A5,5,0,1,1,5,0" style="fill: none; stroke: red; stroke-width: 2; opacity: 0.7;"></path><path transform="translate(370.808426477015,42.85714285714284)" d="M5,0A5,5,0,1,1,-5,0A5,5,0,1,1,5,0" style="fill: none; stroke: red; stroke-width: 2; opacity: 0.7;"></path><path transform="translate(274.35761308297515,257.1428571428571)" d="M5,0A5,5,0,1,1,-5,0A5,5,0,1,1,5,0" style="fill: none; stroke: blue; stroke-width: 2; opacity: 0.7;"></path><path transform="translate(383.6259424686432,42.85714285714284)" d="M5,0A5,5,0,1,1,-5,0A5,5,0,1,1,5,0" style="fill: none; stroke: red; stroke-width: 2; opacity: 0.7;"></path><path transform="translate(391.2028004415333,257.1428571428571)" d="M5,0A5,5,0,1,1,-5,0A5,5,0,1,1,5,0" style="fill: none; stroke: blue; stroke-width: 2; opacity: 0.7;"></path><path transform="translate(319.4273894652724,42.85714285714284)" d="M5,0A5,5,0,1,1,-5,0A5,5,0,1,1,5,0" style="fill: none; stroke: red; stroke-width: 2; opacity: 0.7;"></path><path transform="translate(388.7640538625419,42.85714285714284)" d="M5,0A5,5,0,1,1,-5,0A5,5,0,1,1,5,0" style="fill: none; stroke: red; stroke-width: 2; opacity: 0.7;"></path><path transform="translate(287.15102039277554,42.85714285714284)" d="M5,0A5,5,0,1,1,-5,0A5,5,0,1,1,5,0" style="fill: none; stroke: red; stroke-width: 2; opacity: 0.7;"></path><path transform="translate(290.8066392876208,42.85714285714284)" d="M5,0A5,5,0,1,1,-5,0A5,5,0,1,1,5,0" style="fill: none; stroke: red; stroke-width: 2; opacity: 0.7;"></path><path transform="translate(230.98203260451555,257.1428571428571)" d="M5,0A5,5,0,1,1,-5,0A5,5,0,1,1,5,0" style="fill: none; stroke: blue; stroke-width: 2; opacity: 0.7;"></path><path transform="translate(361.63947423920035,42.85714285714284)" d="M5,0A5,5,0,1,1,-5,0A5,5,0,1,1,5,0" style="fill: none; stroke: red; stroke-width: 2; opacity: 0.7;"></path><path transform="translate(392.4093000590801,42.85714285714284)" d="M5,0A5,5,0,1,1,-5,0A5,5,0,1,1,5,0" style="fill: none; stroke: red; stroke-width: 2; opacity: 0.7;"></path><path transform="translate(376.69541956856847,42.85714285714284)" d="M5,0A5,5,0,1,1,-5,0A5,5,0,1,1,5,0" style="fill: none; stroke: red; stroke-width: 2; opacity: 0.7;"></path><path transform="translate(235.06897073239088,257.1428571428571)" d="M5,0A5,5,0,1,1,-5,0A5,5,0,1,1,5,0" style="fill: none; stroke: blue; stroke-width: 2; opacity: 0.7;"></path><path transform="translate(220.86425675079226,257.1428571428571)" d="M5,0A5,5,0,1,1,-5,0A5,5,0,1,1,5,0" style="fill: none; stroke: blue; stroke-width: 2; opacity: 0.7;"></path><path transform="translate(223.9276636391878,257.1428571428571)" d="M5,0A5,5,0,1,1,-5,0A5,5,0,1,1,5,0" style="fill: none; stroke: blue; stroke-width: 2; opacity: 0.7;"></path><path transform="translate(378.20139760151505,42.85714285714284)" d="M5,0A5,5,0,1,1,-5,0A5,5,0,1,1,5,0" style="fill: none; stroke: red; stroke-width: 2; opacity: 0.7;"></path><path transform="translate(290.59237483888865,42.85714285714284)" d="M5,0A5,5,0,1,1,-5,0A5,5,0,1,1,5,0" style="fill: none; stroke: red; stroke-width: 2; opacity: 0.7;"></path><path transform="translate(237.1822482906282,257.1428571428571)" d="M5,0A5,5,0,1,1,-5,0A5,5,0,1,1,5,0" style="fill: none; stroke: blue; stroke-width: 2; opacity: 0.7;"></path><path transform="translate(391.1435768008232,42.85714285714284)" d="M5,0A5,5,0,1,1,-5,0A5,5,0,1,1,5,0" style="fill: none; stroke: red; stroke-width: 2; opacity: 0.7;"></path><path transform="translate(343.09402452781796,42.85714285714284)" d="M5,0A5,5,0,1,1,-5,0A5,5,0,1,1,5,0" style="fill: none; stroke: red; stroke-width: 2; opacity: 0.7;"></path><path transform="translate(246.87237050384283,257.1428571428571)" d="M5,0A5,5,0,1,1,-5,0A5,5,0,1,1,5,0" style="fill: none; stroke: blue; stroke-width: 2; opacity: 0.7;"></path><path transform="translate(258.45368979498744,42.85714285714284)" d="M5,0A5,5,0,1,1,-5,0A5,5,0,1,1,5,0" style="fill: none; stroke: red; stroke-width: 2; opacity: 0.7;"></path><path transform="translate(326.6619246453047,42.85714285714284)" d="M5,0A5,5,0,1,1,-5,0A5,5,0,1,1,5,0" style="fill: none; stroke: red; stroke-width: 2; opacity: 0.7;"></path><path transform="translate(218.51256350055337,257.1428571428571)" d="M5,0A5,5,0,1,1,-5,0A5,5,0,1,1,5,0" style="fill: none; stroke: blue; stroke-width: 2; opacity: 0.7;"></path><path transform="translate(357.48781133443117,42.85714285714284)" d="M5,0A5,5,0,1,1,-5,0A5,5,0,1,1,5,0" style="fill: none; stroke: red; stroke-width: 2; opacity: 0.7;"></path><path transform="translate(366.95502093061805,42.85714285714284)" d="M5,0A5,5,0,1,1,-5,0A5,5,0,1,1,5,0" style="fill: none; stroke: red; stroke-width: 2; opacity: 0.7;"></path><path transform="translate(311.6212226450443,257.1428571428571)" d="M5,0A5,5,0,1,1,-5,0A5,5,0,1,1,5,0" style="fill: none; stroke: blue; stroke-width: 2; opacity: 0.7;"></path><path transform="translate(301.8205818720162,42.85714285714284)" d="M5,0A5,5,0,1,1,-5,0A5,5,0,1,1,5,0" style="fill: none; stroke: red; stroke-width: 2; opacity: 0.7;"></path><path transform="translate(290.60342740267515,257.1428571428571)" d="M5,0A5,5,0,1,1,-5,0A5,5,0,1,1,5,0" style="fill: none; stroke: blue; stroke-width: 2; opacity: 0.7;"></path><path transform="translate(228.47555978223681,257.1428571428571)" d="M5,0A5,5,0,1,1,-5,0A5,5,0,1,1,5,0" style="fill: none; stroke: blue; stroke-width: 2; opacity: 0.7;"></path><path transform="translate(381.919202581048,42.85714285714284)" d="M5,0A5,5,0,1,1,-5,0A5,5,0,1,1,5,0" style="fill: none; stroke: red; stroke-width: 2; opacity: 0.7;"></path><path transform="translate(280.1323183812201,42.85714285714284)" d="M5,0A5,5,0,1,1,-5,0A5,5,0,1,1,5,0" style="fill: none; stroke: red; stroke-width: 2; opacity: 0.7;"></path><path transform="translate(379.53134868294,42.85714285714284)" d="M5,0A5,5,0,1,1,-5,0A5,5,0,1,1,5,0" style="fill: none; stroke: red; stroke-width: 2; opacity: 0.7;"></path><path transform="translate(201.9610575400293,257.1428571428571)" d="M5,0A5,5,0,1,1,-5,0A5,5,0,1,1,5,0" style="fill: none; stroke: blue; stroke-width: 2; opacity: 0.7;"></path><path transform="translate(209.04777348041534,257.1428571428571)" d="M5,0A5,5,0,1,1,-5,0A5,5,0,1,1,5,0" style="fill: none; stroke: blue; stroke-width: 2; opacity: 0.7;"></path><path transform="translate(277.2609253413975,257.1428571428571)" d="M5,0A5,5,0,1,1,-5,0A5,5,0,1,1,5,0" style="fill: none; stroke: blue; stroke-width: 2; opacity: 0.7;"></path><path transform="translate(357.2770034894347,42.85714285714284)" d="M5,0A5,5,0,1,1,-5,0A5,5,0,1,1,5,0" style="fill: none; stroke: red; stroke-width: 2; opacity: 0.7;"></path><path transform="translate(378.45412818714976,42.85714285714284)" d="M5,0A5,5,0,1,1,-5,0A5,5,0,1,1,5,0" style="fill: none; stroke: red; stroke-width: 2; opacity: 0.7;"></path><path transform="translate(349.2873575538397,42.85714285714284)" d="M5,0A5,5,0,1,1,-5,0A5,5,0,1,1,5,0" style="fill: none; stroke: red; stroke-width: 2; opacity: 0.7;"></path><path transform="translate(226.83858582749963,257.1428571428571)" d="M5,0A5,5,0,1,1,-5,0A5,5,0,1,1,5,0" style="fill: none; stroke: blue; stroke-width: 2; opacity: 0.7;"></path><path transform="translate(318.819391913712,42.85714285714284)" d="M5,0A5,5,0,1,1,-5,0A5,5,0,1,1,5,0" style="fill: none; stroke: red; stroke-width: 2; opacity: 0.7;"></path><path transform="translate(218.0815531872213,257.1428571428571)" d="M5,0A5,5,0,1,1,-5,0A5,5,0,1,1,5,0" style="fill: none; stroke: blue; stroke-width: 2; opacity: 0.7;"></path><path transform="translate(355.01060113310814,42.85714285714284)" d="M5,0A5,5,0,1,1,-5,0A5,5,0,1,1,5,0" style="fill: none; stroke: red; stroke-width: 2; opacity: 0.7;"></path><path transform="translate(390.35850586369634,257.1428571428571)" d="M5,0A5,5,0,1,1,-5,0A5,5,0,1,1,5,0" style="fill: none; stroke: blue; stroke-width: 2; opacity: 0.7;"></path><path transform="translate(354.8757342621684,257.1428571428571)" d="M5,0A5,5,0,1,1,-5,0A5,5,0,1,1,5,0" style="fill: none; stroke: blue; stroke-width: 2; opacity: 0.7;"></path><path transform="translate(353.83846117183566,42.85714285714284)" d="M5,0A5,5,0,1,1,-5,0A5,5,0,1,1,5,0" style="fill: none; stroke: red; stroke-width: 2; opacity: 0.7;"></path><path transform="translate(341.84546060860157,257.1428571428571)" d="M5,0A5,5,0,1,1,-5,0A5,5,0,1,1,5,0" style="fill: none; stroke: blue; stroke-width: 2; opacity: 0.7;"></path><path transform="translate(338.8887816108763,42.85714285714284)" d="M5,0A5,5,0,1,1,-5,0A5,5,0,1,1,5,0" style="fill: none; stroke: red; stroke-width: 2; opacity: 0.7;"></path><path transform="translate(200.9004944935441,257.1428571428571)" d="M5,0A5,5,0,1,1,-5,0A5,5,0,1,1,5,0" style="fill: none; stroke: blue; stroke-width: 2; opacity: 0.7;"></path><path transform="translate(230.91938262805343,42.85714285714284)" d="M5,0A5,5,0,1,1,-5,0A5,5,0,1,1,5,0" style="fill: none; stroke: red; stroke-width: 2; opacity: 0.7;"></path><path transform="translate(305.4476633667946,42.85714285714284)" d="M5,0A5,5,0,1,1,-5,0A5,5,0,1,1,5,0" style="fill: none; stroke: red; stroke-width: 2; opacity: 0.7;"></path><path transform="translate(217.208141554147,257.1428571428571)" d="M5,0A5,5,0,1,1,-5,0A5,5,0,1,1,5,0" style="fill: none; stroke: blue; stroke-width: 2; opacity: 0.7;"></path><path transform="translate(345.0687786564231,42.85714285714284)" d="M5,0A5,5,0,1,1,-5,0A5,5,0,1,1,5,0" style="fill: none; stroke: red; stroke-width: 2; opacity: 0.7;"></path><path transform="translate(350.3461795859039,257.1428571428571)" d="M5,0A5,5,0,1,1,-5,0A5,5,0,1,1,5,0" style="fill: none; stroke: blue; stroke-width: 2; opacity: 0.7;"></path><path transform="translate(381.63254372775555,42.85714285714284)" d="M5,0A5,5,0,1,1,-5,0A5,5,0,1,1,5,0" style="fill: none; stroke: red; stroke-width: 2; opacity: 0.7;"></path><path transform="translate(209.11356369033456,257.1428571428571)" d="M5,0A5,5,0,1,1,-5,0A5,5,0,1,1,5,0" style="fill: none; stroke: blue; stroke-width: 2; opacity: 0.7;"></path><path transform="translate(338.9941083267331,257.1428571428571)" d="M5,0A5,5,0,1,1,-5,0A5,5,0,1,1,5,0" style="fill: none; stroke: blue; stroke-width: 2; opacity: 0.7;"></path><path transform="translate(385.6428503058851,42.85714285714284)" d="M5,0A5,5,0,1,1,-5,0A5,5,0,1,1,5,0" style="fill: none; stroke: red; stroke-width: 2; opacity: 0.7;"></path><path transform="translate(343.61625388264656,42.85714285714284)" d="M5,0A5,5,0,1,1,-5,0A5,5,0,1,1,5,0" style="fill: none; stroke: red; stroke-width: 2; opacity: 0.7;"></path><path transform="translate(222.6497677154839,257.1428571428571)" d="M5,0A5,5,0,1,1,-5,0A5,5,0,1,1,5,0" style="fill: none; stroke: blue; stroke-width: 2; opacity: 0.7;"></path><path transform="translate(354.93056904524565,42.85714285714284)" d="M5,0A5,5,0,1,1,-5,0A5,5,0,1,1,5,0" style="fill: none; stroke: red; stroke-width: 2; opacity: 0.7;"></path><path transform="translate(341.3072089664638,257.1428571428571)" d="M5,0A5,5,0,1,1,-5,0A5,5,0,1,1,5,0" style="fill: none; stroke: blue; stroke-width: 2; opacity: 0.7;"></path><path transform="translate(330.1163498312235,257.1428571428571)" d="M5,0A5,5,0,1,1,-5,0A5,5,0,1,1,5,0" style="fill: none; stroke: blue; stroke-width: 2; opacity: 0.7;"></path><path transform="translate(314.0105822123587,42.85714285714284)" d="M5,0A5,5,0,1,1,-5,0A5,5,0,1,1,5,0" style="fill: none; stroke: red; stroke-width: 2; opacity: 0.7;"></path><path transform="translate(333.20933375507593,257.1428571428571)" d="M5,0A5,5,0,1,1,-5,0A5,5,0,1,1,5,0" style="fill: none; stroke: blue; stroke-width: 2; opacity: 0.7;"></path><path transform="translate(221.8294403515756,257.1428571428571)" d="M5,0A5,5,0,1,1,-5,0A5,5,0,1,1,5,0" style="fill: none; stroke: blue; stroke-width: 2; opacity: 0.7;"></path><path transform="translate(298.06175231933594,257.1428571428571)" d="M5,0A5,5,0,1,1,-5,0A5,5,0,1,1,5,0" style="fill: none; stroke: blue; stroke-width: 2; opacity: 0.7;"></path><path transform="translate(268.8621868379414,257.1428571428571)" d="M5,0A5,5,0,1,1,-5,0A5,5,0,1,1,5,0" style="fill: none; stroke: blue; stroke-width: 2; opacity: 0.7;"></path><path transform="translate(363.65956123918295,42.85714285714284)" d="M5,0A5,5,0,1,1,-5,0A5,5,0,1,1,5,0" style="fill: none; stroke: red; stroke-width: 2; opacity: 0.7;"></path><path transform="translate(380.0075295381248,42.85714285714284)" d="M5,0A5,5,0,1,1,-5,0A5,5,0,1,1,5,0" style="fill: none; stroke: red; stroke-width: 2; opacity: 0.7;"></path><path transform="translate(393.66208277642727,42.85714285714284)" d="M5,0A5,5,0,1,1,-5,0A5,5,0,1,1,5,0" style="fill: none; stroke: red; stroke-width: 2; opacity: 0.7;"></path><path transform="translate(259.83822951093316,257.1428571428571)" d="M5,0A5,5,0,1,1,-5,0A5,5,0,1,1,5,0" style="fill: none; stroke: blue; stroke-width: 2; opacity: 0.7;"></path><path transform="translate(244.76366955786943,257.1428571428571)" d="M5,0A5,5,0,1,1,-5,0A5,5,0,1,1,5,0" style="fill: none; stroke: blue; stroke-width: 2; opacity: 0.7;"></path><path transform="translate(213.3095665834844,42.85714285714284)" d="M5,0A5,5,0,1,1,-5,0A5,5,0,1,1,5,0" style="fill: none; stroke: red; stroke-width: 2; opacity: 0.7;"></path><path transform="translate(335.5863742530346,257.1428571428571)" d="M5,0A5,5,0,1,1,-5,0A5,5,0,1,1,5,0" style="fill: none; stroke: blue; stroke-width: 2; opacity: 0.7;"></path><path transform="translate(398.9568185992539,42.85714285714284)" d="M5,0A5,5,0,1,1,-5,0A5,5,0,1,1,5,0" style="fill: none; stroke: red; stroke-width: 2; opacity: 0.7;"></path><path transform="translate(264.2969844862819,257.1428571428571)" d="M5,0A5,5,0,1,1,-5,0A5,5,0,1,1,5,0" style="fill: none; stroke: blue; stroke-width: 2; opacity: 0.7;"></path><path transform="translate(377.03292621299624,42.85714285714284)" d="M5,0A5,5,0,1,1,-5,0A5,5,0,1,1,5,0" style="fill: none; stroke: red; stroke-width: 2; opacity: 0.7;"></path><path transform="translate(204.00115735828876,257.1428571428571)" d="M5,0A5,5,0,1,1,-5,0A5,5,0,1,1,5,0" style="fill: none; stroke: blue; stroke-width: 2; opacity: 0.7;"></path><path transform="translate(303.7093901075423,257.1428571428571)" d="M5,0A5,5,0,1,1,-5,0A5,5,0,1,1,5,0" style="fill: none; stroke: blue; stroke-width: 2; opacity: 0.7;"></path><path transform="translate(345.2017629519105,42.85714285714284)" d="M5,0A5,5,0,1,1,-5,0A5,5,0,1,1,5,0" style="fill: none; stroke: red; stroke-width: 2; opacity: 0.7;"></path><path transform="translate(383.01032250747085,42.85714285714284)" d="M5,0A5,5,0,1,1,-5,0A5,5,0,1,1,5,0" style="fill: none; stroke: red; stroke-width: 2; opacity: 0.7;"></path><path transform="translate(329.2179211974144,42.85714285714284)" d="M5,0A5,5,0,1,1,-5,0A5,5,0,1,1,5,0" style="fill: none; stroke: red; stroke-width: 2; opacity: 0.7;"></path><path transform="translate(295.57144986465573,42.85714285714284)" d="M5,0A5,5,0,1,1,-5,0A5,5,0,1,1,5,0" style="fill: none; stroke: red; stroke-width: 2; opacity: 0.7;"></path><path transform="translate(200.4455914720893,257.1428571428571)" d="M5,0A5,5,0,1,1,-5,0A5,5,0,1,1,5,0" style="fill: none; stroke: blue; stroke-width: 2; opacity: 0.7;"></path><path transform="translate(352.6127385906875,42.85714285714284)" d="M5,0A5,5,0,1,1,-5,0A5,5,0,1,1,5,0" style="fill: none; stroke: red; stroke-width: 2; opacity: 0.7;"></path><path transform="translate(273.69994930922985,257.1428571428571)" d="M5,0A5,5,0,1,1,-5,0A5,5,0,1,1,5,0" style="fill: none; stroke: blue; stroke-width: 2; opacity: 0.7;"></path><path transform="translate(349.68519071117043,42.85714285714284)" d="M5,0A5,5,0,1,1,-5,0A5,5,0,1,1,5,0" style="fill: none; stroke: red; stroke-width: 2; opacity: 0.7;"></path><path transform="translate(240.614159591496,257.1428571428571)" d="M5,0A5,5,0,1,1,-5,0A5,5,0,1,1,5,0" style="fill: none; stroke: blue; stroke-width: 2; opacity: 0.7;"></path></g><g class="mark-line role-mark concat_1_layer_1_marks"><path d="M0,257.1331290281352L8.16326530612244,257.12822588044236L16.32653061224488,257.120851710453L24.489795918367356,257.1097615259201L32.6530612244898,257.09308346565246L40.81632653061224,257.06800367307017L48.97959183673469,257.0302933989863L57.14285714285715,256.9736001553422L65.3061224489796,256.88838702688514L73.46938775510203,256.7603496375951L81.63265306122449,256.5680628686503L89.79591836734696,256.27950356603594L97.95918367346938,255.84695959851425L106.12244897959182,255.1996822625667L114.28571428571428,254.23351779776905L122.44897959183673,252.79679960847974L130.6122448979592,250.67230599035315L138.77551020408163,247.55671148448508L146.9387755102041,243.04273220058312L155.10204081632654,236.61632872250334L163.26530612244898,227.6918716182526L171.42857142857142,215.7168493280767L179.5918367346939,200.36830652081642L187.75510204081633,181.81129787654623L195.91836734693877,160.8951561823377L204.08163265306123,139.10484381766227L212.24489795918365,118.18870212345377L220.40816326530614,99.63169347918344L228.57142857142856,84.28315067192327L236.73469387755102,72.30812838174738L244.89795918367346,63.383671277496624L253.06122448979593,56.95726779941681L261.2244897959184,52.44328851551485L269.3877551020408,49.32769400964686L277.55102040816325,47.20320039152026L285.7142857142857,45.766482202230904L293.8775510204082,44.800317737433225L302.0408163265306,44.15304040148571L310.2040816326531,43.720496433964016L318.3673469387755,43.43193713134964L326.53061224489795,43.23965036240486L334.6938775510204,43.11161297311482L342.85714285714283,43.02639984465782L351.0204081632653,42.96970660101369L359.1836734693878,42.93199632692976L367.34693877551024,42.90691653434753L375.51020408163265,42.89023847407989L383.6734693877551,42.879148289546976L391.83673469387753,42.871774119557635L400,42.86687097186478" style="fill: none; stroke: purple; stroke-width: 3;"></path></g><g class="mark-group role-title"><g transform="translate(200,-22)"><path class="background" d="M0,0h0v0h0Z" style="pointer-events: none; fill: none;"></path><g><g class="mark-text role-title-text" style="pointer-events: none;"><text text-anchor="middle" transform="translate(0,10)" style="font-family: sans-serif; font-size: 13px; font-weight: bold; fill: #000; opacity: 1;">Logistic Regression</text></g></g><path class="foreground" d="" style="pointer-events: none; display: none; fill: none;"></path></g></g></g><path class="foreground" d="" style="display: none; fill: none;"></path></g></g><g class="mark-group role-legend"><g transform="translate(892,0)"><path class="background" d="M0,0h38v45h-38Z" style="pointer-events: none; fill: none;"></path><g><g class="mark-group role-legend-entry"><g transform="translate(0,16)"><path class="background" d="M0,0h0v0h0Z" style="pointer-events: none; fill: none;"></path><g><g class="mark-group role-scope"><g transform="translate(0,0)"><path class="background" d="M0,0h21.5615234375v12.5h-21.5615234375Z" style="pointer-events: none; fill: none; opacity: 1;"></path><g><g class="mark-symbol role-legend-symbol" style="pointer-events: none;"><path transform="translate(6,6)" d="M5,0A5,5,0,1,1,-5,0A5,5,0,1,1,5,0" style="fill: none; stroke: blue; stroke-width: 1.5; opacity: 0.7;"></path></g><g class="mark-text role-legend-label" style="pointer-events: none;"><text text-anchor="start" transform="translate(16,9)" style="font-family: sans-serif; font-size: 10px; fill: #000; opacity: 1;">0</text></g></g><path class="foreground" d="" style="pointer-events: none; display: none; fill: none;"></path></g><g transform="translate(0,16)"><path class="background" d="M0,0h21.5615234375v12.5h-21.5615234375Z" style="pointer-events: none; fill: none; opacity: 1;"></path><g><g class="mark-symbol role-legend-symbol" style="pointer-events: none;"><path transform="translate(6,6)" d="M5,0A5,5,0,1,1,-5,0A5,5,0,1,1,5,0" style="fill: none; stroke: red; stroke-width: 1.5; opacity: 0.7;"></path></g><g class="mark-text role-legend-label" style="pointer-events: none;"><text text-anchor="start" transform="translate(16,9)" style="font-family: sans-serif; font-size: 10px; fill: #000; opacity: 1;">1</text></g></g><path class="foreground" d="" style="pointer-events: none; display: none; fill: none;"></path></g></g></g><path class="foreground" d="" style="pointer-events: none; display: none; fill: none;"></path></g></g><g class="mark-text role-legend-title" style="pointer-events: none;"><text text-anchor="start" transform="translate(0,9)" style="font-family: sans-serif; font-size: 11px; font-weight: bold; fill: #000; opacity: 1;">passed</text></g></g><path class="foreground" d="" style="pointer-events: none; display: none; fill: none;"></path></g></g></g><path class="foreground" d="" style="display: none; fill: none;"></path></g></g></g></svg>